<?xml version="1.0" encoding="UTF-8"?>
<svg width="1187px" height="1600px" viewBox="0 0 1187 1600" version="1.1" xmlns="http://www.w3.org/2000/svg" xmlns:xlink="http://www.w3.org/1999/xlink">
    <!-- Generator: Sketch 51.2 (57519) - http://www.bohemiancoding.com/sketch -->
    <title>about-hiw-4</title>
    <desc>Created with Sketch.</desc>
    <defs>
        <linearGradient x1="49.9899601%" y1="100.007353%" x2="49.9899601%" y2="-0.00193859288%" id="linearGradient-1">
            <stop stop-color="#808080" stop-opacity="0.25" offset="0%"></stop>
            <stop stop-color="#808080" stop-opacity="0.12" offset="54%"></stop>
            <stop stop-color="#808080" stop-opacity="0.1" offset="100%"></stop>
        </linearGradient>
    </defs>
    <g id="about-hiw-4" stroke="none" stroke-width="1" fill="none" fill-rule="evenodd">
        <g id="hiw-1" transform="translate(32.000000, 171.000000)">
            <ellipse id="Oval" fill="#627BED" fill-rule="nonzero" opacity="0.1" cx="580.68" cy="836.68" rx="430.73" ry="29.88"></ellipse>
            <path d="M112.06,129.12 C85.22,160.54 78.43,200.37 78.06,238.56 C77.8,265.49 81.48,294.7 103.96,314.56 C133.55,340.69 190.36,345.84 205.02,379.23 C218.02,408.9 187.77,438.75 158.71,459.69 C129.65,480.63 96.28,506.27 101.71,537.45 C105.15,557.36 124.02,572.99 142.84,586.11 C178.62,611.11 218.84,632.98 264.18,643.62 C346.44,662.9 435.29,642.94 512.37,612.72 C559.82,594.12 614.91,571.29 662.03,590.42 C674.47,595.47 685.03,603.1 696.5,609.42 C729.85,627.69 770.58,634.42 810.22,640.13 C868.32,648.53 929.38,655.54 985.36,640.39 C1041.34,625.24 1089.72,580.93 1081.15,533.67 C1073.07,489.15 1021.63,460.13 980.64,429.72 C966.18,418.99 951.46,404.77 955.06,389.16 C957.92,376.78 971.38,368.16 983.38,360.16 C1046.54,317.82 1092.96,259.37 1114.3,195.28 C1124.38,165.04 1128.02,130.2 1105.53,104.7 C1087.39,84.13 1056.3,74.25 1026.73,66.12 C971.86,51.03 915.62,38.28 857.91,34.84 C800.2,31.4 740.58,37.96 689.35,59.73 C664.78,70.18 642.51,83.94 617.7,94 C547.26,122.56 464.26,118.72 385.7,114.21 C357.63,112.6 328.29,109.74 303.92,97.48 C282.92,86.9 270.92,79.32 244.92,78.14 C193.96,75.83 141.24,94.9 112.06,129.12 Z" id="Shape" fill="#627BED" fill-rule="nonzero" opacity="0.1"></path>
            <polygon id="Shape" fill="#535461" fill-rule="nonzero" points="492.46 344.36 491.36 346.63 484.23 361.28 409.44 514.85 282.53 825.81 264.39 825.95 391.37 514.85 477.9 337.15 484.23 340.28 491.36 343.81"></polygon>
            <polygon id="Shape" fill="#535461" fill-rule="nonzero" points="715.12 825.95 700.19 825.81 573.27 514.85 500.45 365.31 491.36 346.63 490.25 344.36 491.36 343.81 500.45 339.31 504.82 337.15 590.05 514.85"></polygon>
            <rect id="Rectangle-path" fill="#535461" fill-rule="nonzero" x="484.23" y="295.38" width="16.23" height="530.57"></rect>
            <path d="M490.49,207.97 C479.08989,207.981025 469.851025,217.21989 469.84,228.62 L469.84,236 C469.675237,243.487663 473.575625,250.478149 480.034064,254.270353 C486.492503,258.062556 494.497497,258.062556 500.955936,254.270353 C507.414375,250.478149 511.314763,243.487663 511.15,236 L511.15,228.62 C511.133465,217.218272 501.891734,207.981015 490.49,207.97 Z M505.98,235.97 C505.98,244.530414 499.040414,251.47 490.48,251.47 C481.919586,251.47 474.98,244.530414 474.98,235.97 L474.98,228.59 C474.98,220.029586 481.919586,213.09 490.48,213.09 C499.040414,213.09 505.98,220.029586 505.98,228.59 L505.98,235.97 Z" id="Shape" fill="#535461" fill-rule="nonzero"></path>
            <polygon id="Shape" fill="#000000" fill-rule="nonzero" opacity="0.1" points="590.05 514.85 573.27 514.85 500.45 365.31 500.45 514.85 484.23 514.85 484.23 361.28 409.44 514.85 391.37 514.85 477.9 337.15 484.23 340.28 484.23 295.38 500.45 295.38 500.45 339.31 504.82 337.15"></polygon>
            <path d="M511.15,229.36 L511.15,236 C511.314763,243.487663 507.414375,250.478149 500.955936,254.270353 C494.497497,258.062556 486.492503,258.062556 480.034064,254.270353 C473.575625,250.478149 469.675237,243.487663 469.84,236 L469.84,229.36 L475,229.36 L475,236 C475.000001,244.560413 481.939587,251.499999 490.5,251.499999 C499.060413,251.499999 505.999999,244.560413 506,236 L506,229.36 L511.15,229.36 Z" id="Shape" fill="#000000" fill-rule="nonzero" opacity="0.1"></path>
            <rect id="Rectangle-path" fill="#535461" fill-rule="nonzero" x="178.45" y="230.84" width="624.09" height="281.8"></rect>
            <rect id="Rectangle-path" fill="#FFFFFF" fill-rule="nonzero" x="189.52" y="239.69" width="600.48" height="256.72"></rect>
            <g id="Group" opacity="0.2" transform="translate(248.000000, 267.000000)" fill="#627BED" fill-rule="nonzero">
                <rect id="Rectangle-path" x="0.82" y="0.6" width="28.39" height="12.93"></rect>
            </g>
            <g id="Group" opacity="0.2" transform="translate(248.000000, 292.000000)" fill="#627BED" fill-rule="nonzero">
                <rect id="Rectangle-path" x="0.82" y="0.61" width="28.39" height="12.93"></rect>
            </g>
            <g id="Group" opacity="0.2" transform="translate(248.000000, 317.000000)" fill="#627BED" fill-rule="nonzero">
                <rect id="Rectangle-path" x="0.82" y="0.61" width="28.39" height="12.93"></rect>
            </g>
            <g id="Group" opacity="0.2" transform="translate(248.000000, 342.000000)" fill="#627BED" fill-rule="nonzero">
                <rect id="Rectangle-path" x="0.82" y="0.61" width="28.39" height="12.93"></rect>
            </g>
            <g id="Group" opacity="0.2" transform="translate(248.000000, 367.000000)" fill="#627BED" fill-rule="nonzero">
                <rect id="Rectangle-path" x="0.82" y="0.62" width="28.39" height="12.93"></rect>
            </g>
            <g id="Group" opacity="0.2" transform="translate(248.000000, 392.000000)" fill="#627BED" fill-rule="nonzero">
                <rect id="Rectangle-path" x="0.82" y="0.62" width="28.39" height="12.93"></rect>
            </g>
            <g id="Group" opacity="0.2" transform="translate(248.000000, 417.000000)" fill="#627BED" fill-rule="nonzero">
                <rect id="Rectangle-path" x="0.82" y="0.62" width="28.39" height="12.93"></rect>
            </g>
            <g id="Group" opacity="0.2" transform="translate(248.000000, 442.000000)" fill="#627BED" fill-rule="nonzero">
                <rect id="Rectangle-path" x="0.82" y="0.62" width="28.39" height="12.93"></rect>
            </g>
            <g id="Group" opacity="0.2" transform="translate(302.000000, 455.000000)" fill="#627BED" fill-rule="nonzero">
                <rect id="Rectangle-path" x="0.27" y="0.56" width="28.39" height="12.93"></rect>
            </g>
            <g id="Group" opacity="0.2" transform="translate(352.000000, 455.000000)" fill="#627BED" fill-rule="nonzero">
                <rect id="Rectangle-path" x="0.28" y="0.56" width="28.39" height="12.93"></rect>
            </g>
            <g id="Group" opacity="0.2" transform="translate(402.000000, 455.000000)" fill="#627BED" fill-rule="nonzero">
                <rect id="Rectangle-path" x="0.28" y="0.56" width="28.39" height="12.93"></rect>
            </g>
            <g id="Group" opacity="0.2" transform="translate(452.000000, 455.000000)" fill="#627BED" fill-rule="nonzero">
                <rect id="Rectangle-path" x="0.29" y="0.56" width="28.39" height="12.93"></rect>
            </g>
            <g id="Group" opacity="0.2" transform="translate(502.000000, 455.000000)" fill="#627BED" fill-rule="nonzero">
                <rect id="Rectangle-path" x="0.29" y="0.56" width="28.39" height="12.93"></rect>
            </g>
            <g id="Group" opacity="0.2" transform="translate(552.000000, 455.000000)" fill="#627BED" fill-rule="nonzero">
                <rect id="Rectangle-path" x="0.3" y="0.56" width="28.39" height="12.93"></rect>
            </g>
            <g id="Group" opacity="0.2" transform="translate(602.000000, 455.000000)" fill="#627BED" fill-rule="nonzero">
                <rect id="Rectangle-path" x="0.3" y="0.56" width="28.39" height="12.93"></rect>
            </g>
            <g id="Group" opacity="0.2" transform="translate(652.000000, 455.000000)" fill="#627BED" fill-rule="nonzero">
                <rect id="Rectangle-path" x="0.31" y="0.56" width="28.39" height="12.93"></rect>
            </g>
            <g id="Group" opacity="0.2" transform="translate(702.000000, 455.000000)" fill="#627BED" fill-rule="nonzero">
                <rect id="Rectangle-path" x="0.31" y="0.56" width="28.39" height="12.93"></rect>
            </g>
            <rect id="Rectangle-path" fill="#627BED" fill-rule="nonzero" x="302.27" y="361.58" width="28.39" height="81.04"></rect>
            <rect id="Rectangle-path" fill="#627BED" fill-rule="nonzero" x="352.28" y="324.08" width="28.39" height="118.55"></rect>
            <rect id="Rectangle-path" fill="#627BED" fill-rule="nonzero" x="402.28" y="292.61" width="28.39" height="150.02"></rect>
            <rect id="Rectangle-path" fill="#627BED" fill-rule="nonzero" x="452.29" y="308.92" width="28.39" height="133.7"></rect>
            <rect id="Rectangle-path" fill="#627BED" fill-rule="nonzero" x="502.29" y="280.54" width="28.39" height="162.09"></rect>
            <g id="Group" opacity="0.2" transform="translate(552.000000, 342.000000)" fill="#627BED" fill-rule="nonzero">
                <rect id="Rectangle-path" x="0.3" y="0.61" width="28.39" height="100.01"></rect>
            </g>
            <g id="Group" opacity="0.2" transform="translate(602.000000, 342.000000)" fill="#627BED" fill-rule="nonzero">
                <rect id="Rectangle-path" x="0.3" y="0.61" width="28.39" height="100.01"></rect>
            </g>
            <g id="Group" opacity="0.2" transform="translate(652.000000, 342.000000)" fill="#627BED" fill-rule="nonzero">
                <rect id="Rectangle-path" x="0.31" y="0.61" width="28.39" height="100.01"></rect>
            </g>
            <g id="Group" opacity="0.2" transform="translate(702.000000, 342.000000)" fill="#627BED" fill-rule="nonzero">
                <rect id="Rectangle-path" x="0.31" y="0.61" width="28.39" height="100.01"></rect>
            </g>
            <polygon id="Shape" fill="#535461" fill-rule="nonzero" points="699.05 342.39 455.95 357.35 455.95 362.09 704.23 352.24"></polygon>
            <path d="M986.87,441.15 C986.87,441.15 999.59,420.23 996.21,387.41 C992.83,354.59 980.6,301.47 980.6,301.47 C980.6,301.47 985.91,271.71 957.11,267.53 C957.11,267.53 939.21,264.2 926.41,256.15 C921.65,253.15 917.6,249.52 915.41,245.15 C915.41,245.15 915.24,245.64 914.91,246.54 C914.626882,246.090024 914.366554,245.626106 914.13,245.15 C914.13,245.15 914.06,245.33 913.95,245.65 L909.06,238.03 C909.06,238.03 908.39,238.74 907.26,239.91 C905.293313,237.086777 903.618072,234.071343 902.26,230.91 C903.475873,230.616369 904.668971,230.235379 905.83,229.77 C906.940124,229.402775 907.940572,228.763313 908.74,227.91 C909.440765,226.936866 909.893834,225.807624 910.06,224.62 C910.839501,220.819071 911.06183,216.924949 910.72,213.06 C910.45,210.06 909.84,207.06 910.05,204.01 C910.27,200.76 911.42,197.62 911.58,194.36 C911.86,188.62 909.01,183.16 905.49,178.61 C903.39,175.9 901.03,173.38 899.21,170.48 C897.63,167.96 896.48,165.18 894.78,162.73 C890.78,157.03 884.11,153.67 877.27,152.48 C870.43,151.29 863.39,152.03 856.54,153.16 C850.54,154.16 844.54,155.61 838.54,155.96 C833.3,156.26 829.03,154.49 824.23,157.96 C821.013524,160.331426 818.97907,163.977401 818.65,167.96 C818.572008,168.630132 818.622923,169.308998 818.8,169.96 C819.083212,170.634507 819.417517,171.286402 819.8,171.91 C821.93,176.11 818.69,181.1 819.11,185.79 C819.637173,190.059847 823.032846,193.405827 827.31,193.87 C827.12,194.27 826.91,194.66 826.73,195.07 C821.342352,207.241836 822.123335,221.259817 828.829701,232.75786 C835.536068,244.255902 847.353015,251.83703 860.6,253.14 L862.46,254.57 C866.66,257.82 871.38,261.71 875.93,265.94 L875.84,266.01 L875.1,265.59 C873.714767,266.685533 872.258221,267.687744 870.74,268.59 C866.53,271.17 859.74,274.52 852.1,274.9 C852.1,274.9 838.42,282.15 833.71,306.06 C826.95,312.12 812.48,323.06 793.36,325.91 C766.49,329.91 733.36,331.22 733.36,331.22 C733.36,331.22 733.09,331.7 732.71,332.58 L729.65,332.02 C729.65,332.02 729.65,332.39 729.52,333.02 L728.32,332.48 C718.83,328.33 699.87,322.28 697.47,338.95 C694.25,361.31 715.57,358.74 715.57,358.74 C719.785875,357.13825 724.105852,355.825218 728.5,354.81 L729.69,354.58 C729.89218,355.163152 730.174918,355.715164 730.53,356.22 L733.43,356.22 C734.437374,358.304358 735.6536,360.281145 737.06,362.12 L804.64,360.64 C804.64,360.64 816.19,358.12 826.85,359.72 C822.2,394.48 816.71,432.6 816.71,432.6 C816.71,432.6 805.21,492.97 813.26,499.28 C817.932215,497.721146 822.694193,496.445497 827.52,495.46 C827.593246,499.190367 827.988042,502.907471 828.7,506.57 L833.85,540.28 C833.85,540.28 835.85,574.72 842.54,595.28 L848.44,623.38 L853.38,644.62 L856.16,680.67 C859.977648,695.941708 862.737529,711.458521 864.42,727.11 C867.03,751.33 881.2,790.47 883.09,795.62 C878.25,802.47 868.31,814.09 855.84,815.29 C838.04,817.01 837.61,827.74 850.05,831.6 C862.49,835.46 888.67,831.6 888.67,831.6 L925.59,822.47 C924.48,829.28 923.9,834.66 924.71,835.24 C927.07,836.96 962.9,846.24 964.19,831.38 C964.29,830.153333 964.38,828.963333 964.46,827.81 C964.993332,818.290658 963.72096,808.756349 960.71,799.71 C960.42,798.82 960.16,797.92 959.93,797.02 C960.46144,796.425893 960.949371,795.794257 961.39,795.13 C961.39,795.13 963.97,755.01 965.9,740.63 C966.05,739.48 966.15,738.08 966.2,736.5 C967.09,719.26 960.8,673.91 960.8,673.91 C960.8,673.91 953.03,644.41 953.32,630.85 C953.364528,629.723224 953.556151,628.607103 953.89,627.53 C953.89,627.53 953.89,627.26 953.79,626.81 C953.79,626.62 953.88,626.42 953.94,626.24 C953.94,626.24 950,599.24 950.55,583.18 C950.626904,580.784247 950.96218,578.403793 951.55,576.08 C952.175267,573.029452 952.493521,569.923962 952.5,566.81 C953,555.81 952.42,536.81 951.62,518.99 C951.71,518.69 951.8,518.39 951.87,518.04 C952.031329,516.620948 951.863662,515.183804 951.38,513.84 C951.32,512.69 951.27,511.55 951.21,510.42 C951.54,509.29 951.81,508.09 952.05,506.85 L952.57,506.85 L952.57,506.92 C952.57,506.92 986.19,505.31 993.92,496.3 C993.92,496.3 986.11,472.03 981.78,452.3 L986.87,441.15 Z M841.99,365.66 L841.46,365.47 C842.31,362.47 843.32,358.98 844.46,355.32 C843.49,359.28 842.65,362.88 841.99,365.66 Z M876.11,266.17 L876.26,266.31 L876.1,266.22 L876.11,266.17 Z M918.11,786.69 C916.3,780.46 909.11,755.06 909.34,742.95 C909.390219,741.897422 909.575056,740.855611 909.89,739.85 C910.55674,737.655304 910.893752,735.373735 910.89,733.08 C911.61,720.44 906.77,697.79 906.77,697.79 C906.77,697.79 895.94,667.24 896.77,642.98 C896.77,642.37 896.84,641.76 896.88,641.15 C897.06,638.85 897.2,636.36 897.3,633.73 L897.3,633.68 C897.71,624.31 897.62,613.03 897.35,602.51 L897.29,602.12 C896.92,588.19 896.23,575.65 895.94,570.69 C896.94,577.86 903.34,622.49 906.1,629.79 C906.1,629.79 907.61,650.38 914.47,667.79 L921.99,713.05 C921.99,713.05 923.92,766.91 927.13,782.14 C928.57,788.92 929.79,793.49 930.7,796.47 C929.4,802.54 927.3,812.71 925.89,821.13 C925.06,815.64 922.14,794.72 918.12,786.69 L918.11,786.69 Z" id="Shape" fill="url(#linearGradient-1)" fill-rule="nonzero"></path>
            <path d="M885.96,788.08 C885.96,788.08 873.41,810.83 855.76,812.53 C838.11,814.23 837.69,824.86 850.02,828.69 C862.35,832.52 888.3,828.69 888.3,828.69 L925.3,819.55 C925.3,819.55 920.83,782.97 914.88,781.06 C908.93,779.15 885.96,788.08 885.96,788.08 Z" id="Shape" fill="#4C4C78" fill-rule="nonzero"></path>
            <path d="M931.06,788.5 C931.06,788.5 921.7,830.6 924.06,832.31 C926.42,834.02 961.91,843.15 963.19,828.48 C963.29,827.246667 963.38,826.066667 963.46,824.94 C963.984067,815.505269 962.721959,806.056421 959.74,797.09 C958.74,794.09 958.04,790.88 958.3,788.5 C958.89,782.55 931.06,788.5 931.06,788.5 Z" id="Shape" fill="#4C4C78" fill-rule="nonzero"></path>
            <path d="M919.45,255.49 C919.45,255.49 890.74,326.01 895.85,303.36 C899.23,288.36 877.38,268.43 862.27,256.72 C854.58,250.72 848.64,246.91 848.64,246.91 C848.64,246.91 902.54,184.07 898.72,211.18 C897.67226,218.604932 898.689445,226.175003 901.66,233.06 C907.61,247.2 919.45,255.49 919.45,255.49 Z" id="Shape" fill="#FFB9B9" fill-rule="nonzero"></path>
            <path d="M736.06,355.67 C734.54,355.28 732.06,355.53 729.49,356.08 C725.136896,357.085308 720.857058,358.384962 716.68,359.97 C716.68,359.97 695.55,362.52 698.74,340.36 C701.11,323.84 719.9,329.84 729.31,333.94 C732.51,335.35 734.63,336.53 734.63,336.53 L736.06,355.67 Z" id="Shape" fill="#FFB9B9" fill-rule="nonzero"></path>
            <path d="M736.06,355.67 C734.54,355.28 732.06,355.53 729.49,356.08 C727.19,350.28 728.94,336.53 729.31,333.94 C732.51,335.35 734.63,336.53 734.63,336.53 L736.06,355.67 Z" id="Shape" fill="#000000" fill-rule="nonzero" opacity="0.1"></path>
            <path d="M736.15,334.51 L730.62,333.51 C730.62,333.51 727.79,352.51 731.49,357.51 L737.85,357.51 L736.15,334.51 Z" id="Shape" fill="#CBCDDA" fill-rule="nonzero"></path>
            <path d="M847.06,369.18 C847.06,369.18 830.16,359.07 828.14,371.83 C826.12,384.59 823.46,406.39 823.46,406.39 L818.78,434.14 L812.72,489.74 L813.57,499.2 C813.57,499.2 831.57,493.14 835.79,495.27 C840.01,497.4 843.45,471.88 843.45,471.88 L850.45,445.51 L851.51,389.59 L847.06,369.18 Z" id="Shape" fill="#4C4C78" fill-rule="nonzero"></path>
            <path d="M847.06,369.18 C847.06,369.18 830.16,359.07 828.14,371.83 C826.12,384.59 823.46,406.39 823.46,406.39 L818.78,434.14 L812.72,489.74 L813.57,499.2 C813.57,499.2 831.57,493.14 835.79,495.27 C840.01,497.4 843.45,471.88 843.45,471.88 L850.45,445.51 L851.51,389.59 L847.06,369.18 Z" id="Shape" fill="#000000" fill-rule="nonzero" opacity="0.1"></path>
            <path d="M837.95,303.68 C837.95,303.68 820.41,323.46 793.78,327.44 C767.15,331.42 734.29,332.71 734.29,332.71 C734.29,332.71 726,347.54 737.96,363.33 L804.96,361.85 C804.96,361.85 819.79,358.63 831.28,361.85 L837.95,303.68 Z" id="Shape" fill="#4C4C78" fill-rule="nonzero"></path>
            <path d="M837.95,303.68 C837.95,303.68 820.41,323.46 793.78,327.44 C767.15,331.42 734.29,332.71 734.29,332.71 C734.29,332.71 726,347.54 737.96,363.33 L804.96,361.85 C804.96,361.85 819.79,358.63 831.28,361.85 L837.95,303.68 Z" id="Shape" fill="#000000" fill-rule="nonzero" opacity="0.05"></path>
            <g id="Group" transform="translate(0.060000, 0.280000)"></g>
            <path d="M898.82,232.45 C892.28,246.45 880.91,256.77 864.42,256.77 C863.69,256.77 862.98,256.77 862.27,256.72 C854.58,250.72 848.64,246.91 848.64,246.91 C848.64,246.91 902.54,184.07 898.72,211.18 C897.54,219.48 896.19,226.22 898.82,232.45 Z" id="Shape" fill="#000000" fill-rule="nonzero" opacity="0.1"></path>
            <path d="M905.5,214.4 C905.483433,237.090769 887.077452,255.472876 864.38668,255.459992 C841.695909,255.447109 823.310814,237.044112 823.320014,214.353339 C823.329214,191.662566 841.729225,173.274484 864.42,173.28 C875.328556,173.258668 885.795884,177.585374 893.505658,185.302655 C901.215432,193.019936 905.531948,203.49147 905.5,214.4 Z" id="Shape" fill="#FFB9B9" fill-rule="nonzero"></path>
            <path d="M930.61,465.5 C930.61,465.5 838.97,473.59 835.61,461.89 C832.25,450.19 844.96,418.51 844.96,418.51 L840.82,374.28 L840.67,372.59 C840.67,372.59 852.15,324.74 851.73,320.92 C851.33,317.48 870.21,277.33 874.09,269.12 C874.55,268.17 874.79,267.65 874.79,267.65 L875.52,268.07 L875.84,268.26 L880.33,270.88 L898.06,266.68 L919.43,255.49 L921.43,377.9 L930.61,465.5 Z" id="Shape" fill="#CBCDDA" fill-rule="nonzero"></path>
            <path d="M882.98,269.13 C882.98,269.13 876.71,267.43 874.26,273.7 C873.301089,276.395296 872.165286,279.024346 870.86,281.57 L868.42,296.13 L863.95,319.13 L860.65,420.88 L862.14,438.95 L870.33,424.39 L871.82,329.28 L871.82,317.45 C872.299549,307.221898 874.609443,297.162685 878.64,287.75 L879.78,285.08 L886.9,275.93 L882.98,269.13 Z" id="Shape" fill="#000000" fill-rule="nonzero" opacity="0.1"></path>
            <path d="M881.71,267.85 C881.71,267.85 875.43,266.15 872.99,272.42 C872.029262,275.116108 870.890076,277.745257 869.58,280.29 L867.14,294.86 L862.67,317.86 L859.38,419.61 L860.87,437.69 L869.06,423.08 L870.55,328.03 L870.55,316.17 C871.039173,305.94322 873.348679,295.885694 877.37,286.47 L878.52,283.8 L885.64,274.66 L881.71,267.85 Z" id="Shape" fill="#4C4C78" fill-rule="nonzero"></path>
            <path d="M908.5,241.59 C908.5,241.59 886.81,264.59 879.15,267.32 C879.15,267.32 882.98,284.76 886.81,288.16 C886.81,288.16 909.57,264.95 913.6,263.07 L916.98,254.8 L908.5,241.59 Z" id="Shape" fill="#000000" fill-rule="nonzero" opacity="0.1"></path>
            <path d="M908.5,240.28 C908.5,240.28 886.81,263.28 879.15,266.01 C879.15,266.01 882.98,283.45 886.81,286.85 C886.81,286.85 909.57,263.64 913.6,261.76 L916.98,253.5 L908.5,240.28 Z" id="Shape" fill="#CBCDDA" fill-rule="nonzero"></path>
            <path d="M876.06,267.65 L875.84,268.25 L868.89,286.88 L856.46,322.03 C856.46,322.03 856.35,322.39 856.13,323.03 C854.07,329.43 843,364.16 840.82,374.25 L840.67,372.56 C840.67,372.56 852.15,324.71 851.73,320.89 C851.33,317.45 870.21,277.3 874.09,269.09 C874.71,268.67 875.19,268.31 875.52,268.04 L876.06,267.65 Z" id="Shape" fill="#000000" fill-rule="nonzero" opacity="0.1"></path>
            <path d="M874.79,267.64 L867.61,286.88 L855.18,322.03 C855.18,322.03 855.07,322.39 854.85,323.03 C852.67,329.85 840.24,368.78 839.24,375.9 C838.11,383.72 822.48,425.99 822.48,425.99 L813.55,499.18 C805.55,492.97 816.91,433.18 816.91,433.18 C816.91,433.18 829.67,344.51 832.69,315.01 C835.71,285.51 852,276.89 852,276.89 C859.52,276.51 866.3,273.19 870.47,270.64 C871.975866,269.738348 873.419147,268.73607 874.79,267.64 Z" id="Shape" fill="#4C4C78" fill-rule="nonzero"></path>
            <path d="M964.84,738.53 C962.93,752.78 960.38,792.53 960.38,792.53 C951.45,805.92 931.67,798.69 931.67,798.69 C931.67,798.69 929.55,794.69 926.36,779.55 C923.17,764.41 921.26,711.08 921.26,711.08 L913.81,666.28 C907.01,649.05 905.52,628.64 905.52,628.64 C902.52,620.77 895.31,569.1 895.31,569.1 C895.31,569.1 898.31,615.45 896.38,639.91 C894.45,664.37 906.15,697.28 906.15,697.28 C906.15,697.28 912.75,728.12 909.34,737.69 C905.93,747.26 917.85,786.8 917.85,786.8 C916.85,798.29 882.99,793.61 882.99,793.61 C882.99,793.61 867.06,750.86 864.27,725.13 C862.598043,709.627005 859.861583,694.25739 856.08,679.13 L853.32,643.4 L848.42,622.28 L842.58,594.43 C835.98,574.02 833.97,539.89 833.97,539.89 L828.86,506.4 C825.52,489.84 829.86,470.4 832.74,460.23 C833.99,455.82 834.99,453.13 834.99,453.13 C837.92,455.21 854.7,457.65 863.38,459.63 C868.130417,460.724857 873.015939,461.115698 877.88,460.79 C899.824988,459.047538 921.534443,455.066856 942.67,448.91 C944.1,448.48 944.86,448.23 944.86,448.23 L945.31,452.06 L946.37,461.18 L948.26,477.37 C948.26,477.37 954,563.7 950.6,575.37 C947.2,587.04 952.94,626.37 952.94,626.37 C949.75,635.7 959.74,673.62 959.74,673.62 C959.74,673.62 966.76,724.28 964.84,738.53 Z" id="Shape" fill="#000000" fill-rule="nonzero" opacity="0.1"></path>
            <path d="M964.84,737.28 C962.93,751.53 960.38,791.28 960.38,791.28 C951.45,804.68 931.67,797.44 931.67,797.44 C931.67,797.44 929.55,793.44 926.36,778.31 C923.17,763.18 921.26,709.83 921.26,709.83 L913.81,664.97 C907.06,647.74 905.52,627.28 905.52,627.28 C902.52,619.41 895.31,567.74 895.31,567.74 C895.31,567.74 898.31,614.09 896.38,638.55 C894.45,663.01 906.15,695.96 906.15,695.96 C906.15,695.96 912.75,726.8 909.34,736.37 C905.93,745.94 917.85,785.49 917.85,785.49 C916.85,796.97 882.99,792.29 882.99,792.29 C882.99,792.29 867.06,749.59 864.27,723.85 C862.598043,708.347005 859.861583,692.97739 856.08,677.85 L853.32,642.13 L848.42,621.08 L842.58,593.23 C835.98,572.81 833.97,538.68 833.97,538.68 L828.86,505.19 C825.52,488.63 829.86,469.19 832.74,459.02 C833.99,454.62 834.99,451.93 834.99,451.93 C837.92,454.01 854.7,456.44 863.38,458.42 C868.129657,459.519768 873.015908,459.910668 877.88,459.58 C899.824988,457.837538 921.534443,453.856856 942.67,447.7 L944.86,447.03 L945.31,450.85 L946.37,459.98 L948.26,476.17 C948.26,476.17 954,562.49 950.6,574.17 C947.2,585.85 952.94,625.17 952.94,625.17 C949.75,634.49 959.74,672.41 959.74,672.41 C959.74,672.41 966.76,723.01 964.84,737.28 Z" id="Shape" fill="#474463" fill-rule="nonzero"></path>
            <path d="M905.5,214.4 C905.512599,221.585416 903.636609,228.647967 900.06,234.88 C893.66,236.01 886.85,234.76 882.06,230.53 C878.78,227.64 876.66,223.69 873.84,220.34 C872.014599,218.281297 870.053556,216.346981 867.97,214.55 C866.60957,213.194763 865.04779,212.058004 863.34,211.18 C861.59933,210.300724 859.549272,210.278561 857.79,211.12 C855.53,212.38 854.79,215.19 853.48,217.43 C852.494735,219.352985 850.808701,220.824238 848.77,221.54 C846.677519,222.209344 844.393254,221.434398 843.14,219.63 C841.75,217.24 842.77,213.51 840.44,212.05 C839.825401,211.74652 839.190554,211.485898 838.54,211.27 C835.54,209.91 835.19,205.88 834.93,202.58 C834.8,200.96 834.45,199.13 833.09,198.26 C831.73,197.39 829.94,197.83 828.32,197.86 C827.840681,197.878866 827.360794,197.841951 826.89,197.75 C834.760528,180.008396 853.971856,170.193518 872.960046,174.213268 C891.948235,178.233019 905.53416,194.990989 905.54,214.4 L905.5,214.4 Z" id="Shape" fill="#000000" fill-rule="nonzero" opacity="0.1"></path>
            <path d="M824.37,160.96 C821.175318,163.317162 819.158338,166.942619 818.84,170.9 C818.764237,171.5536 818.815166,172.215677 818.99,172.85 C819.269125,173.523201 819.603605,174.172092 819.99,174.79 C822.09,178.96 818.88,183.9 819.29,188.55 C819.865389,193.093109 823.710763,196.51122 828.29,196.55 C829.91,196.55 831.69,196.07 833.06,196.95 C834.43,197.83 834.77,199.65 834.9,201.27 C835.16,204.57 835.49,208.6 838.5,209.96 C839.14864,210.18103 839.783157,210.441516 840.4,210.74 C842.74,212.2 841.72,215.94 843.11,218.32 C844.363254,220.124398 846.647519,220.899344 848.74,220.23 C850.774786,219.517156 852.457566,218.049199 853.44,216.13 C854.73,213.88 855.5,211.13 857.76,209.82 C859.516695,208.970818 861.568889,208.989306 863.31,209.87 C865.018129,210.751602 866.579867,211.891704 867.94,213.25 C870.025971,215.044361 871.987185,216.978847 873.81,219.04 C876.63,222.38 878.75,226.33 882.03,229.22 C888.21,234.65 897.67,235.22 905.29,232.09 C906.389796,231.723255 907.382353,231.091316 908.18,230.25 C908.875629,229.282497 909.325243,228.160177 909.49,226.98 C910.263752,223.21549 910.486077,219.358483 910.15,215.53 C909.88,212.53 909.27,209.53 909.48,206.53 C909.69,203.31 910.84,200.2 911,196.98 C911.28,191.28 908.45,185.87 905,181.36 C902.92,178.67 900.58,176.18 898.78,173.3 C897.21,170.8 896.07,168.05 894.39,165.63 C890.45,159.98 883.81,156.63 877.03,155.46 C870.25,154.29 863.28,155.01 856.49,156.14 C850.57,157.14 844.61,158.56 838.61,158.91 C833.36,159.28 829.13,157.51 824.37,160.96 Z" id="Shape" fill="#472727" fill-rule="nonzero"></path>
            <path d="M874.79,267.64 L867.61,286.88 L855.18,322.03 C855.18,322.03 855.07,322.39 854.85,323.03 L854.85,323.08 L870.49,270.62 C871.988418,269.724032 873.424983,268.72846 874.79,267.64 Z" id="Shape" fill="#000000" fill-rule="nonzero" opacity="0.1"></path>
            <path d="M952.41,487.83 C952.41,487.83 953.15,511.11 946.88,516.96 L930.19,485.49 L944.19,478.68 L952.41,487.83 Z" id="Shape" fill="#FFB9B9" fill-rule="nonzero"></path>
            <path d="M991.37,496.33 C983.71,505.26 950.37,506.86 950.37,506.86 L917.37,454.86 C917.37,454.86 909.56,449.44 894.89,425.03 C880.22,400.62 880.7,381.82 881.52,367.78 C882.34,353.74 891.52,313.39 891.52,313.39 C892.95,304.31 913.52,247.39 913.52,247.39 C915.68,251.7 919.7,255.3 924.4,258.27 C937.1,266.27 954.83,269.55 954.83,269.55 C983.39,273.7 978.12,303.2 978.12,303.2 C978.12,303.2 978.44,417.87 976.68,431.59 C974.92,445.31 991.37,496.33 991.37,496.33 Z" id="Shape" fill="#000000" fill-rule="nonzero" opacity="0.1"></path>
            <polygon id="Shape" fill="#CBCDDA" fill-rule="nonzero" points="952.84 492.29 951.88 500.8 940.29 496.55 931.79 483.68 938.17 478.68"></polygon>
            <path d="M952.43,459.33 L946.37,459.95 L887.94,465.79 C878.556888,466.732421 869.085617,466.267284 859.84,464.41 L832.74,458.99 C833.99,454.59 834.99,451.9 834.99,451.9 C837.92,453.98 854.7,456.41 863.38,458.39 C868.129657,459.489768 873.015908,459.880668 877.88,459.55 C899.824988,457.807538 921.534443,453.826856 942.67,447.67 L945.31,450.82 L952.43,459.33 Z" id="Shape" fill="#000000" fill-rule="nonzero" opacity="0.1"></path>
            <g id="Group" opacity="0.1" transform="translate(834.000000, 447.000000)" fill="#000000" fill-rule="nonzero">
                <path d="M1.6,5.22 C1.40701004,5.12480093 1.21999718,5.01793644 1.04,4.9 C1.04,4.9 1.04,4.96 0.98,5.05 L1.6,5.22 Z" id="Shape"></path>
                <path d="M125.79,225.4 C125.79,225.4 115.79,187.48 118.99,178.16 C118.99,178.16 113.25,138.86 116.66,127.16 C120.07,115.46 114.31,29.16 114.31,29.16 L112.42,12.97 L111.36,3.84 L110.92,0.02 L108.72,0.69 L107.36,1.09 L107.53,2.57 L108.59,11.69 L110.48,27.88 C110.48,27.88 116.22,114.21 112.83,125.88 C109.44,137.55 115.16,176.88 115.16,176.88 C111.97,186.21 121.96,224.12 121.96,224.12 C121.96,224.12 128.96,274.74 127.07,288.98 C125.18,303.22 122.6,342.98 122.6,342.98 C116.08,352.77 103.77,351.55 97.6,350.18 L97.71,350.42 C97.71,350.42 117.49,357.66 126.42,344.26 C126.42,344.26 128.97,304.49 130.89,290.26 C132.81,276.03 125.79,225.4 125.79,225.4 Z" id="Shape"></path>
                <path d="M75.4,289.41 C78.8,279.84 72.21,249 72.21,249 C72.21,249 60.52,216 62.43,191.59 C63.23,181.4 63.18,167.42 62.84,154.59 C60.13,138.04 57.53,119.59 57.53,119.59 C57.53,119.59 60.53,165.94 58.61,190.39 C56.69,214.84 68.38,247.81 68.38,247.81 C68.38,247.81 74.98,278.64 71.57,288.21 C68.16,297.78 80.06,337.28 80.06,337.28 C79.21,346.48 57.36,345.28 48.69,344.48 L49.02,345.36 C49.02,345.36 82.83,350.04 83.89,338.56 C83.91,338.53 72,298.98 75.4,289.41 Z" id="Shape"></path>
            </g>
            <path d="M992.64,496.33 C984.99,505.26 951.64,506.86 951.64,506.86 L918.64,454.86 C918.64,454.86 910.83,449.44 896.15,425.03 C881.47,400.62 881.97,381.82 882.78,367.78 C883.59,353.74 892.78,313.39 892.78,313.39 C894.21,304.31 914.78,247.39 914.78,247.39 C916.93,251.7 920.95,255.3 925.66,258.27 C938.36,266.27 956.09,269.55 956.09,269.55 C984.64,273.7 979.37,303.2 979.37,303.2 C979.37,303.2 979.69,417.87 977.93,431.59 C976.17,445.31 992.64,496.33 992.64,496.33 Z" id="Shape" fill="#4C4C78" fill-rule="nonzero"></path>
            <path d="M920.89,275.61 L913.71,278.28 L918.49,281.63 L882.79,367.75 C883.62,353.75 892.79,313.36 892.79,313.36 C894.22,304.28 914.79,247.36 914.79,247.36 C916.94,251.67 920.96,255.27 925.67,258.24 L920.89,275.61 Z" id="Shape" fill="#000000" fill-rule="nonzero" opacity="0.1"></path>
            <polygon id="Shape" fill="#000000" fill-rule="nonzero" opacity="0.1" points="929.5 429.03 966.02 419.62 970.81 434.45 933.49 443.55"></polygon>
            <path d="M950.39,281.67 C950.39,281.67 933.8,297.28 940.06,332.07 C946.32,366.86 956.33,404.63 956.33,404.63 L929.33,479.43 C929.33,479.43 948.15,499.05 957.4,501.43 L984.35,441.62 C984.35,441.62 996.95,420.89 993.6,388.36 C990.25,355.83 978.13,303.19 978.13,303.19 C978.13,303.19 978.14,271.15 950.39,281.67 Z" id="Shape" fill="#000000" fill-rule="nonzero" opacity="0.1"></path>
            <path d="M951.66,281.67 C951.66,281.67 935.06,297.28 941.3,332.07 C947.54,366.86 957.56,404.63 957.56,404.63 L930.56,479.43 C930.56,479.43 949.38,499.05 958.63,501.43 L985.63,441.62 C985.63,441.62 998.23,420.89 994.88,388.36 C991.53,355.83 979.41,303.19 979.41,303.19 C979.41,303.19 979.41,271.15 951.66,281.67 Z" id="Shape" fill="#4C4C78" fill-rule="nonzero"></path>
            <path d="M931.46,481.02 C931.46,481.02 952.51,510.16 950.92,517.92 C949.33,525.68 943.16,521.53 943.16,521.53 L934.87,510.16 L927.42,488.89 C927.42,488.89 928.15,479.71 931.46,481.02 Z" id="Shape" fill="#000000" fill-rule="nonzero" opacity="0.1"></path>
            <path d="M928.91,481.02 C928.91,481.02 949.91,510.16 948.37,517.92 C946.83,525.68 940.61,521.53 940.61,521.53 L932.31,510.16 L924.87,488.89 C924.87,488.89 925.6,479.71 928.91,481.02 Z" id="Shape" fill="#000000" fill-rule="nonzero" opacity="0.1"></path>
            <path d="M930.19,481.02 C930.19,481.02 951.19,510.16 949.64,517.92 C948.09,525.68 941.88,521.53 941.88,521.53 L933.59,510.16 L926.15,488.89 C926.15,488.89 926.87,479.71 930.19,481.02 Z" id="Shape" fill="#474463" fill-rule="nonzero"></path>
        </g>
        <text id="4" font-family="Rubik-Medium, Rubik" font-size="200" font-weight="400" fill="#627BED">
            <tspan x="110" y="223">4</tspan>
        </text>
    </g>
</svg>