<?xml version="1.0" encoding="UTF-8"?>
<svg width="1187px" height="1600px" viewBox="0 0 1187 1600" version="1.1" xmlns="http://www.w3.org/2000/svg" xmlns:xlink="http://www.w3.org/1999/xlink">
    <!-- Generator: Sketch 51.2 (57519) - http://www.bohemiancoding.com/sketch -->
    <title>about-hiw-3</title>
    <desc>Created with Sketch.</desc>
    <defs>
        <linearGradient x1="49.9996956%" y1="99.9906158%" x2="49.9996956%" y2="-0.00256609128%" id="linearGradient-1">
            <stop stop-color="#808080" stop-opacity="0.25" offset="0%"></stop>
            <stop stop-color="#808080" stop-opacity="0.12" offset="54%"></stop>
            <stop stop-color="#808080" stop-opacity="0.1" offset="100%"></stop>
        </linearGradient>
    </defs>
    <g id="about-hiw-3" stroke="none" stroke-width="1" fill="none" fill-rule="evenodd">
        <path d="M594.25,999.5 L594.25,1509.5" id="Line" stroke="#6780EE" stroke-width="8" stroke-linecap="square" stroke-dasharray="35,30" fill-rule="nonzero"></path>
        <g id="hiw-2" transform="translate(23.000000, 107.000000)">
            <path d="M9.76,414.46 C29.92,381.53 75.51,387.27 107.84,404.46 C140.17,421.65 172.43,447.31 208.01,442.38 C238.01,438.22 262.61,412.06 275.9,381.88 C289.19,351.7 293.09,317.67 296.83,284.34 C301.53,242.466667 306.226667,200.566667 310.92,158.64 C312.64,143.31 314.67,127.13 323.29,115 C334.68,99 355.56,94.08 373.42,98.89 C391.28,103.7 406.51,116.6 419.54,130.99 C461.28,177.07 484.93,239.36 521.42,290.64 C528.85,301.08 537.24,311.4 548.34,316.44 C564.34,323.69 582.71,318.56 598.34,310.49 C649.34,284.2 683.6,230.55 717.27,180.49 C733.65,156.16 753.62,130.14 780.87,127.49 C809.54,124.64 834.43,149.07 851.28,174.94 C905.36,258.18 916.95,371.82 982.28,444.42 C990.39,453.42 999.34,461.74 1009.65,467.33 C1013.0502,469.167323 1016.59543,470.722542 1020.25,471.98 C1077.25,491.71 1096.25,570.91 1054.09,617.87 C1053.18,618.87 1052.25,619.87 1051.31,620.87 C1045.05,627.48 1037.96,633.73 1029.5,635.7 C1021.63,637.52 1013.5,635.42 1005.7,633.15 C955.84,618.6 906.58,596.36 855.03,597.44 C804.87,598.44 757.29,621.61 707.69,629.95 C674.34,635.56 640.41,634.44 606.69,633.23 C494.383333,629.19 382.1,624.49 269.84,619.13 C214.12,616.57 158.38,614.13 102.67,611.28 C59.75,609.05 32.41,604.14 27.43,554.33 C23.07,510.71 -16.09,456.7 9.76,414.46 Z" id="Shape" fill="#627BED" fill-rule="nonzero" opacity="0.1"></path>
            <ellipse id="Oval" fill="#30374E" fill-rule="nonzero" cx="790.9" cy="749.54" rx="269.99" ry="37.73"></ellipse>
            <path d="M149.74,586.77 C149.74,586.77 162.94,583.77 171.59,592.64 C171.59,592.64 166.03,597.64 152.95,592.1 L149.74,586.77 Z" id="Shape" fill="#627BED" fill-rule="nonzero"></path>
            <path d="M148.28,586.64 C148.28,586.64 140.46,597.72 145.42,609.09 C145.42,609.09 152.18,605.84 151.99,591.64 L148.28,586.64 Z" id="Shape" fill="#627BED" fill-rule="nonzero"></path>
            <path d="M139.48,569.94 C139.48,569.94 144.17,559.79 166.48,572.06 C166.48,572.06 164.08,578.84 154.6,578.94 C145.12,579.04 142.28,574.93 139.48,569.94 Z" id="Shape" fill="#627BED" fill-rule="nonzero"></path>
            <path d="M138.06,569.32 C138.06,569.32 126.89,568.8 127.52,594.24 C127.52,594.24 134.65,595.24 139.1,586.86 C143.55,578.48 141.19,574.15 138.06,569.32 Z" id="Shape" fill="#627BED" fill-rule="nonzero"></path>
            <path d="M130.28,549.52 C130.28,549.52 135.28,531.84 158.75,542.64 C158.75,542.64 154.65,558.83 132.95,555.28 L130.28,549.52 Z" id="Shape" fill="#627BED" fill-rule="nonzero"></path>
            <path d="M121.57,524.18 C121.57,524.18 132.15,505.94 154.06,520.74 C154.06,520.74 147.87,537.61 123.77,530.29 L121.57,524.18 Z" id="Shape" fill="#627BED" fill-rule="nonzero"></path>
            <path d="M117.43,499.78 C117.43,499.78 130.06,482.83 151.79,497.47 C151.79,497.47 139.73,512.41 117.7,503.87 L117.43,499.78 Z" id="Shape" fill="#627BED" fill-rule="nonzero"></path>
            <path d="M113.69,476.06 C113.69,476.06 126.45,458.4 147.28,472.91 C147.28,472.91 132.6,488.74 113.95,479.98 L113.69,476.06 Z" id="Shape" fill="#627BED" fill-rule="nonzero"></path>
            <path d="M113.51,454.8 C113.51,454.8 126.66,432.27 146.16,445.63 C146.16,445.63 131.74,465.2 113.79,458.89 L113.51,454.8 Z" id="Shape" fill="#627BED" fill-rule="nonzero"></path>
            <path d="M115.28,429.82 C115.28,429.82 129.28,407.42 148.37,422.64 C148.37,422.64 131.27,442.39 115.5,433.79 L115.28,429.82 Z" id="Shape" fill="#627BED" fill-rule="nonzero"></path>
            <path d="M118.91,407.36 C118.91,407.36 135.91,386.05 152.46,392.99 C152.46,392.99 134.78,415.59 118.46,412.75 L118.91,407.36 Z" id="Shape" fill="#627BED" fill-rule="nonzero"></path>
            <path d="M123.91,385.96 C123.91,385.96 143.45,359.96 156.28,367.34 C156.28,367.34 141.97,387.43 122.7,390.69 L123.91,385.96 Z" id="Shape" fill="#627BED" fill-rule="nonzero"></path>
            <path d="M131.53,361.02 C131.53,361.02 148.7,339.7 162.53,343.78 C162.53,343.78 148.08,365.67 129.43,367.46 L131.53,361.02 Z" id="Shape" fill="#627BED" fill-rule="nonzero"></path>
            <path d="M138.38,337.71 C138.38,337.71 157.56,317.11 166.69,319.89 C166.69,319.89 153.34,342.25 137.77,342.04 L138.38,337.71 Z" id="Shape" fill="#627BED" fill-rule="nonzero"></path>
            <path d="M145.15,316.15 C145.15,316.15 161.24,292 170.97,293.15 C170.97,293.15 161.66,314.34 145.31,318.48 L145.15,316.15 Z" id="Shape" fill="#627BED" fill-rule="nonzero"></path>
            <path d="M152.14,287.24 C152.14,287.24 166.53,268.58 174.95,268.06 C174.95,268.06 164.24,292.4 151.88,293.06 L152.14,287.24 Z" id="Shape" fill="#627BED" fill-rule="nonzero"></path>
            <path d="M156.14,268.03 L168.72,230.34 C168.72,230.34 171.72,263.44 154.72,274.96 L156.14,268.03 Z" id="Shape" fill="#627BED" fill-rule="nonzero"></path>
            <path d="M159.53,227.17 C159.53,227.17 159.97,196.38 158.2,194 C158.2,194 170.67,218.74 160.34,240.71 L159.53,227.17 Z" id="Shape" fill="#627BED" fill-rule="nonzero"></path>
            <path d="M129.64,549.15 C129.64,549.15 113.38,540.53 104.87,564.88 C104.87,564.88 119.37,573.16 131.87,555.07 L129.64,549.15 Z" id="Shape" fill="#627BED" fill-rule="nonzero"></path>
            <path d="M121,523.23 C121,523.23 101.28,515.78 93.65,541.11 C93.65,541.11 109.12,550.26 123.16,529.35 L121,523.23 Z" id="Shape" fill="#627BED" fill-rule="nonzero"></path>
            <path d="M116.64,501.31 C116.64,501.31 101.85,486.2 82.28,503.64 C82.28,503.64 96.22,516.83 116.91,505.43 L116.64,501.31 Z" id="Shape" fill="#627BED" fill-rule="nonzero"></path>
            <path d="M113.22,476.1 C113.22,476.1 98.22,460.29 79.51,477.46 C79.51,477.46 96.17,491.19 113.51,480.01 L113.22,476.1 Z" id="Shape" fill="#627BED" fill-rule="nonzero"></path>
            <path d="M113.55,455.4 C113.55,455.4 102.19,431.93 81.72,443.73 C81.72,443.73 94.58,464.36 112.96,459.47 L113.55,455.4 Z" id="Shape" fill="#627BED" fill-rule="nonzero"></path>
            <path d="M116.45,429.64 C116.45,429.64 105.12,405.74 84.39,418.57 C84.39,418.57 99.05,440.18 115.73,433.5 L116.45,429.64 Z" id="Shape" fill="#627BED" fill-rule="nonzero"></path>
            <path d="M120.98,407.34 C120.98,407.34 115.34,380.69 97.43,379.47 C97.43,379.47 103.11,407.6 118.94,412.35 L120.98,407.34 Z" id="Shape" fill="#627BED" fill-rule="nonzero"></path>
            <path d="M124.37,385.98 C124.37,385.98 120.7,353.67 105.91,353.52 C105.91,353.52 108.06,378.09 123.02,390.67 L124.37,385.98 Z" id="Shape" fill="#627BED" fill-rule="nonzero"></path>
            <path d="M133,359.99 C133,359.99 126.79,333.33 112.53,330.99 C112.53,330.99 116.03,356.99 132.06,366.71 L133,359.99 Z" id="Shape" fill="#627BED" fill-rule="nonzero"></path>
            <path d="M140.06,337.79 C140.06,337.79 138.06,309.72 129.16,306.17 C129.16,306.17 125.55,331.95 137.81,341.55 L140.06,337.79 Z" id="Shape" fill="#627BED" fill-rule="nonzero"></path>
            <path d="M145.79,315.8 C145.79,315.8 142.64,286.95 133.48,283.48 C133.48,283.48 131.98,306.57 144.58,317.78 L145.79,315.8 Z" id="Shape" fill="#627BED" fill-rule="nonzero"></path>
            <path d="M153.54,289.46 C153.54,289.46 151.9,265.95 145.19,260.85 C145.19,260.85 140.61,287.04 150.54,294.41 L153.54,289.46 Z" id="Shape" fill="#627BED" fill-rule="nonzero"></path>
            <path d="M155.28,266.92 L146.48,228.18 C146.48,228.18 140.25,260.82 156.05,273.96 L155.28,266.92 Z" id="Shape" fill="#627BED" fill-rule="nonzero"></path>
            <path d="M153.91,227.92 C153.91,227.92 136.28,202.64 136.42,199.7 C136.42,199.7 139.96,227.18 160.83,239.59 L153.91,227.92 Z" id="Shape" fill="#627BED" fill-rule="nonzero"></path>
            <path d="M155.28,220.03 C155.28,220.03 137.82,183.64 130.85,181.03 C130.85,181.03 152.94,190.46 156.46,218.83 L155.28,220.03 Z" id="Shape" fill="#627BED" fill-rule="nonzero"></path>
            <path d="M151.82,293.25 L150.82,293 C160.67,251 162.06,224.52 154.72,218.44 L155.4,217.62 C163.14,224.06 161.92,250.22 151.82,293.25 Z" id="Shape" fill="#444053" fill-rule="nonzero"></path>
            <path d="M123.54,391.91 L121.99,391.48 C123.08,387.62 124.26,383.69 125.52,379.82 C136.52,346.1 145.66,314.82 151.27,290.88 L152.54,290.13 C146.92,314.13 138.03,346.56 127.05,380.31 C125.8,384.17 124.62,388.07 123.54,391.91 Z" id="Shape" fill="#444053" fill-rule="nonzero"></path>
            <path d="M170.59,616.31 C170.37,616.1 148.37,594.44 131.47,556.07 C121.567906,533.610934 115.286707,509.724827 112.86,485.3 C109.86,454.77 113.96,420.17 122.86,388.4 L124.14,389.72 C104.14,461.03 117.95,520.06 133.37,555.12 C150.1,593.12 171.85,614.57 172.07,614.78 L170.59,616.31 Z" id="Shape" fill="#444053" fill-rule="nonzero"></path>
            <path d="M194.81,502.1 C194.81,502.1 202.81,500.27 208.03,505.65 C208.03,505.65 204.66,508.65 196.76,505.32 L194.81,502.1 Z" id="Shape" fill="#627BED" fill-rule="nonzero"></path>
            <path d="M193.94,502.03 C193.94,502.03 189.22,508.73 192.22,515.6 C192.22,515.6 196.3,513.6 196.22,505.05 L193.94,502.03 Z" id="Shape" fill="#627BED" fill-rule="nonzero"></path>
            <path d="M188.62,491.92 C188.62,491.92 191.45,485.79 204.92,493.21 C204.92,493.21 203.47,497.3 197.74,497.36 C192.01,497.42 190.33,494.94 188.62,491.92 Z" id="Shape" fill="#627BED" fill-rule="nonzero"></path>
            <path d="M187.76,491.55 C187.76,491.55 181,491.24 181.38,506.61 C181.38,506.61 185.69,507.21 188.38,502.15 C191.07,497.09 189.65,494.47 187.76,491.55 Z" id="Shape" fill="#627BED" fill-rule="nonzero"></path>
            <path d="M183.03,479.58 C183.03,479.58 186.1,468.89 200.26,475.4 C200.26,475.4 197.79,485.19 184.67,483.04 L183.03,479.58 Z" id="Shape" fill="#627BED" fill-rule="nonzero"></path>
            <path d="M177.79,464.26 C177.79,464.26 184.18,453.26 197.43,462.18 C197.43,462.18 193.68,472.38 179.12,467.95 L177.79,464.26 Z" id="Shape" fill="#627BED" fill-rule="nonzero"></path>
            <path d="M175.28,449.51 C175.28,449.51 182.92,439.26 196.05,448.11 C196.05,448.11 188.77,457.11 175.45,451.98 L175.28,449.51 Z" id="Shape" fill="#627BED" fill-rule="nonzero"></path>
            <path d="M173.02,435.17 C173.02,435.17 180.74,424.49 193.33,433.27 C193.33,433.27 184.46,442.84 173.18,437.54 L173.02,435.17 Z" id="Shape" fill="#627BED" fill-rule="nonzero"></path>
            <path d="M172.92,422.31 C172.92,422.31 180.92,408.7 192.65,416.77 C192.65,416.77 183.93,428.6 173.08,424.77 L172.92,422.31 Z" id="Shape" fill="#627BED" fill-rule="nonzero"></path>
            <path d="M173.96,407.22 C173.96,407.22 182.45,393.67 193.96,402.84 C193.96,402.84 183.62,414.78 174.08,409.58 L173.96,407.22 Z" id="Shape" fill="#627BED" fill-rule="nonzero"></path>
            <path d="M176.18,393.64 C176.18,393.64 186.45,380.76 196.46,384.96 C196.46,384.96 185.77,398.62 175.93,396.9 L176.18,393.64 Z" id="Shape" fill="#627BED" fill-rule="nonzero"></path>
            <path d="M179.2,380.7 C179.2,380.7 191.01,364.99 198.77,369.44 C198.77,369.44 190.12,381.59 178.47,383.56 L179.2,380.7 Z" id="Shape" fill="#627BED" fill-rule="nonzero"></path>
            <path d="M183.81,365.64 C183.81,365.64 194.19,352.75 202.57,355.22 C202.57,355.22 193.84,368.45 182.57,369.53 L183.81,365.64 Z" id="Shape" fill="#627BED" fill-rule="nonzero"></path>
            <path d="M187.95,351.53 C187.95,351.53 199.54,339.08 205.06,340.76 C205.06,340.76 197,354.27 187.58,354.15 L187.95,351.53 Z" id="Shape" fill="#627BED" fill-rule="nonzero"></path>
            <path d="M192.04,338.5 C192.04,338.5 201.77,323.9 207.65,324.58 C207.65,324.58 202.03,337.39 192.14,339.9 L192.04,338.5 Z" id="Shape" fill="#627BED" fill-rule="nonzero"></path>
            <path d="M196.28,321.02 C196.28,321.02 204.98,309.74 210.07,309.42 C210.07,309.42 203.59,324.14 196.12,324.51 L196.28,321.02 Z" id="Shape" fill="#627BED" fill-rule="nonzero"></path>
            <path d="M198.69,309.4 L206.28,286.64 C206.28,286.64 208.08,306.64 197.79,313.64 L198.69,309.4 Z" id="Shape" fill="#627BED" fill-rule="nonzero"></path>
            <path d="M200.74,284.7 C200.74,284.7 201,266.09 199.93,264.65 C199.93,264.65 207.47,279.6 201.22,292.89 L200.74,284.7 Z" id="Shape" fill="#627BED" fill-rule="nonzero"></path>
            <path d="M182.66,479.36 C182.66,479.36 172.84,474.14 167.66,488.86 C167.66,488.86 176.43,493.86 183.99,482.94 L182.66,479.36 Z" id="Shape" fill="#627BED" fill-rule="nonzero"></path>
            <path d="M177.45,463.64 C177.45,463.64 165.52,459.14 160.91,474.45 C160.91,474.45 170.26,479.98 178.75,467.35 L177.45,463.64 Z" id="Shape" fill="#627BED" fill-rule="nonzero"></path>
            <path d="M174.8,450.43 C174.8,450.43 165.87,441.3 154.03,451.83 C154.03,451.83 162.46,459.83 174.97,452.91 L174.8,450.43 Z" id="Shape" fill="#627BED" fill-rule="nonzero"></path>
            <path d="M172.74,435.19 C172.74,435.19 163.67,425.64 152.36,436.02 C152.36,436.02 162.43,444.31 172.9,437.56 L172.74,435.19 Z" id="Shape" fill="#627BED" fill-rule="nonzero"></path>
            <path d="M172.94,422.64 C172.94,422.64 166.07,408.45 153.69,415.58 C153.69,415.58 161.47,428.05 172.58,425.1 L172.94,422.64 Z" id="Shape" fill="#627BED" fill-rule="nonzero"></path>
            <path d="M174.69,407.09 C174.69,407.09 167.84,392.64 155.28,400.4 C155.28,400.4 164.14,413.47 174.23,409.4 L174.69,407.09 Z" id="Shape" fill="#627BED" fill-rule="nonzero"></path>
            <path d="M177.43,393.64 C177.43,393.64 174.02,377.52 163.19,376.79 C163.19,376.79 166.62,393.79 176.19,396.66 L177.43,393.64 Z" id="Shape" fill="#627BED" fill-rule="nonzero"></path>
            <path d="M179.48,380.71 C179.48,380.71 177.28,361.18 168.28,361.08 C168.28,361.08 169.58,375.94 178.62,383.55 L179.48,380.71 Z" id="Shape" fill="#627BED" fill-rule="nonzero"></path>
            <path d="M184.69,365 C184.69,365 180.94,348.88 172.32,347.46 C172.32,347.46 174.44,363.17 184.13,369.05 L184.69,365 Z" id="Shape" fill="#627BED" fill-rule="nonzero"></path>
            <path d="M188.96,351.58 C188.96,351.58 187.73,334.58 182.38,332.46 C182.38,332.46 180.19,348.05 187.6,353.85 L188.96,351.58 Z" id="Shape" fill="#627BED" fill-rule="nonzero"></path>
            <path d="M192.43,338.28 C192.43,338.28 190.53,320.84 184.99,318.74 C184.99,318.74 184.08,332.74 191.7,339.48 L192.43,338.28 Z" id="Shape" fill="#627BED" fill-rule="nonzero"></path>
            <path d="M197.11,322.36 C197.11,322.36 196.11,308.15 192.11,305.06 C192.11,305.06 189.34,320.9 195.34,325.35 L197.11,322.36 Z" id="Shape" fill="#627BED" fill-rule="nonzero"></path>
            <path d="M198.19,308.73 L192.87,285.31 C192.87,285.31 189.1,305.05 198.65,312.99 L198.19,308.73 Z" id="Shape" fill="#627BED" fill-rule="nonzero"></path>
            <path d="M197.34,285.16 C197.34,285.16 186.69,269.89 186.77,268.1 C186.77,268.1 188.9,284.71 201.52,292.21 L197.34,285.16 Z" id="Shape" fill="#627BED" fill-rule="nonzero"></path>
            <path d="M198.14,280.38 C198.14,280.38 187.58,258.38 183.37,256.83 C183.37,256.83 196.73,262.53 198.85,279.69 L198.14,280.38 Z" id="Shape" fill="#627BED" fill-rule="nonzero"></path>
            <path d="M196.07,324.64 L195.44,324.49 C201.44,299.1 202.24,283.09 197.8,279.42 L198.21,278.92 C202.92,282.82 202.18,298.64 196.07,324.64 Z" id="Shape" fill="#444053" fill-rule="nonzero"></path>
            <path d="M178.98,384.3 L178.04,384.03 C178.7,381.7 179.42,379.33 180.18,377.03 C186.81,356.64 192.35,337.73 195.74,323.26 L196.51,322.8 C193.11,337.3 187.74,356.92 181.1,377.33 C180.34,379.64 179.63,381.97 178.98,384.3 Z" id="Shape" fill="#444053" fill-rule="nonzero"></path>
            <path d="M207.42,519.96 C207.29,519.83 193.99,506.74 183.77,483.54 C177.788161,469.962252 173.991262,455.52391 172.52,440.76 C170.69,422.3 173.19,401.38 178.58,382.17 L179.35,382.97 C167.26,426.08 175.61,461.77 184.93,482.97 C195.05,505.97 208.19,518.9 208.33,519.03 L207.42,519.96 Z" id="Shape" fill="#444053" fill-rule="nonzero"></path>
            <path d="M237.5,569.96 C234.933599,570.415856 232.420531,571.132918 230,572.1 C176.06,593.64 176.96,734.64 176.96,734.64 L161.08,734.64 C161.08,734.64 156.08,674.13 134.29,587.8 C114.66,510.13 195.17,440.52 211.52,427.32 C213.36,425.85 214.38,425.07 214.38,425.07 C295.47,454.87 237.5,569.96 237.5,569.96 Z" id="Shape" fill="#AFC0E0" fill-rule="nonzero"></path>
            <path d="M220.28,427.52 C218.41,426.66 216.48,425.84 214.43,425.09 C214.43,425.09 213.43,425.87 211.57,427.34 C195.22,440.54 114.71,510.15 134.34,587.82 C156.13,674.15 161.08,734.64 161.08,734.64 L170.01,734.64 C170.01,734.64 165.06,674.13 143.22,587.8 C123.67,510.49 203.4,441.14 220.28,427.52 Z" id="Shape" fill="#FFFFFF" fill-rule="nonzero" opacity="0.2"></path>
            <path d="M505.04,587.82 C483.2,674.15 478.28,734.64 478.28,734.64 L462.37,734.64 C462.37,734.64 463.37,587.28 405.64,570.83 C404.389649,570.454746 403.1172,570.157507 401.83,569.94 C401.83,569.94 343.83,454.85 424.95,425.07 C424.95,425.07 425.77,425.68 427.25,426.87 C442.28,438.9 524.89,509.25 505.04,587.82 Z" id="Shape" fill="#AFC0E0" fill-rule="nonzero"></path>
            <path d="M237.5,569.96 C234.933599,570.415856 232.420531,571.132918 230,572.1 C220.247895,524.373499 214.070745,475.985824 211.52,427.34 C213.36,425.87 214.38,425.09 214.38,425.09 C295.47,454.87 237.5,569.96 237.5,569.96 Z" id="Shape" fill="#000000" fill-rule="nonzero" opacity="0.1"></path>
            <path d="M427.28,426.89 C423.973506,475.394414 416.746578,523.551638 405.67,570.89 C404.419649,570.514746 403.1472,570.217507 401.86,570 C401.86,570 343.86,454.91 424.98,425.13 C424.95,425.09 425.77,425.7 427.28,426.89 Z" id="Shape" fill="#000000" fill-rule="nonzero" opacity="0.1"></path>
            <path d="M397.59,591.78 C391.99,613.873333 385.426667,636.54 377.9,659.78 C377.9,659.78 342.18,696.99 255.9,659.78 C255.9,659.78 247.28,635.48 237.8,594.17 C216.93,503.34 191.9,330.25 245.23,152.46 C261.111037,99.0127622 283.683216,47.7868855 312.41,-5.68434189e-14 C312.41,-5.68434189e-14 357.97,52.31 391.41,152.43 C424.85,252.55 446.13,400.5 397.59,591.78 Z" id="Shape" fill="#E3E8F4" fill-rule="nonzero"></path>
            <circle id="Oval" fill="#AFC0E0" fill-rule="nonzero" cx="319.66" cy="293.6" r="71.63"></circle>
            <path d="M370.46,293.64 C370.459528,313.275731 359.14282,331.152896 341.395133,339.55418 C323.647447,347.955464 302.647241,345.376271 287.46,332.93 C283.828258,329.939221 280.624934,326.463345 277.94,322.6 C276.734282,320.874178 275.638768,319.073928 274.66,317.21 C270.850186,309.937978 268.863256,301.849564 268.87,293.64 C268.87,293.23 268.87,292.83 268.87,292.43 C269.404702,270.130795 284.40679,250.782155 305.87,244.71 C309.862419,243.60969 313.970946,242.985355 318.11,242.85 L319.63,242.85 C333.106462,242.842041 346.033834,248.189282 355.566883,257.71483 C365.099933,267.240378 370.45735,280.163536 370.46,293.64 Z" id="Shape" fill="#627BED" fill-rule="nonzero"></path>
            <path d="M391.4,152.43 C310.13,191.34 245.18,152.43 245.18,152.43 C261.079192,98.9907228 283.668155,47.7749617 312.41,0 C312.41,0 357.97,52.31 391.4,152.43 Z" id="Shape" fill="#AFC0E0" fill-rule="nonzero"></path>
            <path d="M397.59,591.78 C393.79,606.74 389.556667,621.956667 384.89,637.43 C382.676667,644.81 380.343333,652.25 377.89,659.75 C377.89,659.75 342.17,696.96 255.89,659.75 C255.89,659.75 253.09,651.86 248.89,637.43 C245.75,626.53 241.84,611.92 237.76,594.14 C237.76,594.14 269.88,607.85 315.47,607.85 C343.633837,607.946496 371.540008,602.485559 397.59,591.78 Z" id="Shape" fill="#AFC0E0" fill-rule="nonzero"></path>
            <path d="M384.89,637.43 C382.676667,644.81 380.343333,652.25 377.89,659.75 C377.89,659.75 342.17,696.96 255.89,659.75 C255.89,659.75 253.09,651.86 248.89,637.43 C248.88,637.43 336.82,662.73 384.89,637.43 Z" id="Shape" fill="#E3E8F4" fill-rule="nonzero"></path>
            <path d="M305.9,244.64 L305.79,244.72 L268.89,292.36 C268.89,292.76 268.89,293.16 268.89,293.57 C268.883256,301.779564 270.870186,309.867978 274.68,317.14 L318.16,242.78 L305.9,244.64 Z" id="Shape" fill="#FFFFFF" fill-rule="nonzero" opacity="0.2"></path>
            <path d="M317.68,287.64 L287.46,332.89 C283.828258,329.899221 280.624934,326.423345 277.94,322.56 L313.94,283.92 L317.68,287.64 Z" id="Shape" fill="#FFFFFF" fill-rule="nonzero" opacity="0.2"></path>
            <path d="M275.2,659.76 C275.2,659.76 266.58,635.45 257.1,594.15 C236.23,503.31 211.2,330.22 264.53,152.43 C278.865451,104.324047 298.608171,57.9982674 323.38,14.34 C316.61,4.85 312.38,0.01 312.38,0.01 C283.648673,47.7829766 261.069798,98.9953599 245.18,152.43 C191.85,330.22 216.88,503.31 237.75,594.15 C247.23,635.45 255.85,659.76 255.85,659.76 C289.94,674.45 316.13,677.53 335.35,675.89 C318.93,674.64 298.99,670.01 275.2,659.76 Z" id="Shape" fill="#FFFFFF" fill-rule="nonzero" opacity="0.2"></path>
            <path d="M937.98,728.93 C937.98,728.93 984.72,670.77 981.62,612.52 C980.165273,588.100385 986.670822,563.867742 1000.16,543.46 C1006.65211,533.806078 1014.01631,524.768194 1022.16,516.46" id="Shape" stroke="#535461" stroke-width="2"></path>
            <path d="M1020.39,479.78 C1017.05,487.89 1022.05,517.46 1022.05,517.46 C1022.05,517.46 1046.42,499.98 1049.76,491.87 C1053.09856,483.759698 1049.2303,474.478561 1041.12,471.14 C1033.0097,467.801439 1023.72856,471.669698 1020.39,479.78 Z" id="Shape" fill="#627BED" fill-rule="nonzero"></path>
            <path d="M977.61,514.72 C979.22,523.34 999.49,545.44 999.49,545.44 C999.49,545.44 1010.49,517.53 1008.84,508.9 C1007.23285,500.276074 998.938926,494.587852 990.315,496.195 C981.691074,497.802149 976.002852,506.096074 977.61,514.72 Z" id="Shape" fill="#627BED" fill-rule="nonzero"></path>
            <path d="M947.07,591.94 C952.81,598.57 981.47,607.42 981.47,607.42 C981.47,607.42 976.83,577.79 971.09,571.15 C965.295336,564.74641 955.445465,564.147673 948.917831,569.802236 C942.390196,575.456799 941.578192,585.291386 947.09,591.94 L947.07,591.94 Z" id="Shape" fill="#627BED" fill-rule="nonzero"></path>
            <path d="M937.12,655.57 C941.65,663.08 968.4,676.64 968.4,676.64 C968.4,676.64 968.84,646.64 964.31,639.14 C961.375063,634.282974 956.071877,631.360667 950.398101,631.473884 C944.724325,631.587101 939.54194,634.718641 936.803101,639.688884 C934.064262,644.659127 934.185063,650.712974 937.12,655.57 Z" id="Shape" fill="#627BED" fill-rule="nonzero"></path>
            <path d="M1029.68,559.71 C1021.54,562.96 992.02,557.66 992.02,557.66 C992.02,557.66 1009.74,533.47 1017.89,530.21 C1026.0362,526.954282 1035.27928,530.9188 1038.535,539.065 C1041.79072,547.2112 1037.8262,556.454281 1029.68,559.71 Z" id="Shape" fill="#627BED" fill-rule="nonzero"></path>
            <path d="M1017.1,633.98 C1008.36,634.65 981.78,620.76 981.78,620.76 C981.78,620.76 1005.92,602.97 1014.67,602.3 C1023.303,601.819037 1030.73608,608.329066 1031.39736,616.950132 C1032.05863,625.571198 1025.70536,633.138702 1017.1,633.98 Z" id="Shape" fill="#627BED" fill-rule="nonzero"></path>
            <path d="M994.97,704.48 C986.46,706.62 957.92,697.42 957.92,697.42 C957.92,697.42 978.71,675.81 987.22,673.68 C992.72189,672.295596 998.544417,673.951577 1002.49429,678.024151 C1006.44417,682.096726 1007.92131,687.967173 1006.36929,693.424152 C1004.81728,698.88113 1000.47189,703.095596 994.97,704.48 Z" id="Shape" fill="#627BED" fill-rule="nonzero"></path>
            <path d="M1020.39,479.78 C1017.05,487.89 1022.05,517.46 1022.05,517.46 C1022.05,517.46 1046.42,499.98 1049.76,491.87 C1053.09856,483.759698 1049.2303,474.478561 1041.12,471.14 C1033.0097,467.801439 1023.72856,471.669698 1020.39,479.78 Z" id="Shape" fill="#000000" fill-rule="nonzero" opacity="0.25"></path>
            <path d="M977.61,514.72 C979.22,523.34 999.49,545.44 999.49,545.44 C999.49,545.44 1010.49,517.53 1008.84,508.9 C1007.23285,500.276074 998.938926,494.587852 990.315,496.195 C981.691074,497.802149 976.002852,506.096074 977.61,514.72 Z" id="Shape" fill="#000000" fill-rule="nonzero" opacity="0.25"></path>
            <path d="M947.07,591.94 C952.81,598.57 981.47,607.42 981.47,607.42 C981.47,607.42 976.83,577.79 971.09,571.15 C965.295336,564.74641 955.445465,564.147673 948.917831,569.802236 C942.390196,575.456799 941.578192,585.291386 947.09,591.94 L947.07,591.94 Z" id="Shape" fill="#000000" fill-rule="nonzero" opacity="0.25"></path>
            <path d="M937.12,655.57 C941.65,663.08 968.4,676.64 968.4,676.64 C968.4,676.64 968.84,646.64 964.31,639.14 C961.375063,634.282974 956.071877,631.360667 950.398101,631.473884 C944.724325,631.587101 939.54194,634.718641 936.803101,639.688884 C934.064262,644.659127 934.185063,650.712974 937.12,655.57 Z" id="Shape" fill="#000000" fill-rule="nonzero" opacity="0.25"></path>
            <path d="M1029.68,559.71 C1021.54,562.96 992.02,557.66 992.02,557.66 C992.02,557.66 1009.74,533.47 1017.89,530.21 C1026.0362,526.954282 1035.27928,530.9188 1038.535,539.065 C1041.79072,547.2112 1037.8262,556.454281 1029.68,559.71 Z" id="Shape" fill="#000000" fill-rule="nonzero" opacity="0.25"></path>
            <path d="M1017.1,633.98 C1008.36,634.65 981.78,620.76 981.78,620.76 C981.78,620.76 1005.92,602.97 1014.67,602.3 C1023.303,601.819037 1030.73608,608.329066 1031.39736,616.950132 C1032.05863,625.571198 1025.70536,633.138702 1017.1,633.98 Z" id="Shape" fill="#000000" fill-rule="nonzero" opacity="0.25"></path>
            <path d="M994.97,704.48 C986.46,706.62 957.92,697.42 957.92,697.42 C957.92,697.42 978.71,675.81 987.22,673.68 C992.72189,672.295596 998.544417,673.951577 1002.49429,678.024151 C1006.44417,682.096726 1007.92131,687.967173 1006.36929,693.424152 C1004.81728,698.88113 1000.47189,703.095596 994.97,704.48 Z" id="Shape" fill="#000000" fill-rule="nonzero" opacity="0.25"></path>
            <path d="M938.4,726.5 C938.4,726.5 1004.7,692.26 1025.47,637.76 C1034.03247,614.840464 1049.80253,595.319138 1070.41,582.13 C1080.23958,575.939617 1090.61641,570.664172 1101.41,566.37" id="Shape" stroke="#535461" stroke-width="2"></path>
            <path d="M1114.7,532.1 C1108.36,538.17 1100.95,567.23 1100.95,567.23 C1100.95,567.23 1130.31,561.12 1136.65,555.06 C1143.00127,548.998675 1143.23632,538.936275 1137.175,532.585001 C1131.11367,526.233727 1121.05127,525.998676 1114.7,532.06 L1114.7,532.1 Z" id="Shape" fill="#627BED" fill-rule="nonzero"></path>
            <path d="M1061.44,546.71 C1059.44,555.25 1068.99,583.71 1068.99,583.71 C1068.99,583.71 1090.28,562.64 1092.34,554.05 C1094.33258,545.53103 1089.05941,537.005153 1080.54736,534.983198 C1072.03532,532.961242 1063.4913,538.204978 1061.44,546.71 Z" id="Shape" fill="#627BED" fill-rule="nonzero"></path>
            <path d="M1002.22,604.93 C1004.78,613.32 1027.4,633.02 1027.4,633.02 C1027.4,633.02 1035.17,604.02 1032.61,595.67 C1030.95586,590.241349 1026.53122,586.107542 1021.0028,584.825744 C1015.47438,583.543946 1009.68208,585.308892 1005.8078,589.455744 C1001.93352,593.602596 1000.56586,599.501349 1002.22,604.93 Z" id="Shape" fill="#627BED" fill-rule="nonzero"></path>
            <path d="M967.34,659.07 C968.44,667.78 987.4,691.01 987.4,691.01 C987.4,691.01 999.96,663.78 998.85,655.07 C997.745431,646.368754 989.796246,640.210431 981.095,641.315 C972.393754,642.419569 966.235431,650.368754 967.34,659.07 Z" id="Shape" fill="#627BED" fill-rule="nonzero"></path>
            <path d="M1090.81,608.94 C1082.04,608.62 1057.21,591.81 1057.21,591.81 C1057.21,591.81 1083.21,576.88 1091.98,577.2 C1097.6498,577.409 1102.77742,580.62693 1105.43132,585.641625 C1108.08523,590.65632 1107.86223,596.70593 1104.84632,601.511625 C1101.83042,606.31732 1096.4798,609.149 1090.81,608.94 Z" id="Shape" fill="#627BED" fill-rule="nonzero"></path>
            <path d="M1049.21,671.74 C1040.94,668.81 1022.27,645.34 1022.27,645.34 C1022.27,645.34 1051.56,638.87 1059.82,641.8 C1065.16827,643.695294 1069.09914,648.299884 1070.1319,653.879265 C1071.16466,659.458646 1069.14241,665.165178 1064.8269,668.849265 C1060.51139,672.533352 1054.55827,673.635294 1049.21,671.74 Z" id="Shape" fill="#627BED" fill-rule="nonzero"></path>
            <path d="M1000.4,727.23 C991.76,725.74 969.4,705.76 969.4,705.76 C969.4,705.76 997.17,694.44 1005.81,695.93 C1014.45326,697.421169 1020.25117,705.636744 1018.76,714.28 C1017.26883,722.923256 1009.05326,728.721169 1000.41,727.23 L1000.4,727.23 Z" id="Shape" fill="#627BED" fill-rule="nonzero"></path>
            <path d="M1032.67,694.36 L981.28,619.83 C981.28,619.83 980.28,601.38 976.96,597.07 C973.64,592.76 976.24,583.17 976.24,583.17 C976.24,583.17 979.84,577.9 976.72,577.42 C973.6,576.94 976.24,565.19 976.24,565.19 L976,546.5 C976,546.5 978.88,528.5 976.48,524.22 C975.04483,521.838568 975.13875,518.837046 976.72,516.55 C976.72,516.55 979.6,506.24 976.72,503.61 C973.84,500.98 974.56,484.91 975.28,472.21 C976,459.51 970.23,452.32 970.23,450.4 C970.23,448.48 951.23,429.79 951.23,428.12 C951.23,426.45 939.23,419.49 932.02,417.57 C924.81,415.65 921.21,414.22 921.45,413.26 C921.69,412.3 910.16,408.47 910.16,408.47 C910.16,408.47 900.07,407.75 896.22,402.71 C892.37,397.67 880.63,396.23 880.29,396.18 C880.22,395.85 880.14,395.51 880.07,395.18 C880,394.85 879.92,394.46 879.85,394.1 C880.76,392.57 881.6,391.01 882.36,389.4 C882.59,388.91 882.81,388.4 883.02,387.94 C887.23,387.75 891.55,386.85 894.85,384.27 C898.277117,381.403108 900.359651,377.241663 900.6,372.78 C900.803686,368.350198 899.834363,363.945126 897.79,360.01 C895.69,355.69 892.6,351.22 893.66,346.54 C894.13,344.54 895.34,342.74 895.96,340.76 C897.13,337.01 896.05,332.89 894.23,329.41 C892.41,325.93 889.88,322.87 887.86,319.5 C885.279723,315.205504 883.557859,310.45085 882.79,305.5 C882.38,302.9 882.22,300.16 880.91,297.87 C879.824141,296.170646 878.38901,294.72188 876.7,293.62 C869.186396,288.24604 860.112895,285.49447 850.88,285.79 C844.34,286.02 837.82,287.79 831.33,286.98 C827.42,286.5 823.69,285.11 819.91,283.98 C811.85,281.6 802.56,280.62 795.54,285.23 C788.52,289.84 785.73,298.91 780.98,306 C776.78,312.28 770.62,317.54 767.42,324.18 C767.42,324.06 767.48,323.93 767.52,323.8 C766.73338,325.336584 766.132485,326.96135 765.73,328.64 C764.51,333.86 765.53,339.32 766.8,344.53 C767.45,347.22 768.35,350.14 770.68,351.63 C773.01,353.12 776.31,352.79 779.07,353.28 C778.97,353.73 778.85,354.19 778.75,354.65 C772.823016,382.65065 789.401805,410.506845 816.84,418.65 C816.84,419.14 816.84,419.65 816.84,420.11 C816.834812,421.486961 816.751344,422.862514 816.59,424.23 C816.59,424.23 792.44,419.23 785.95,422.63 C779.46,426.03 766.73,428.63 764.81,430.53 C762.89,432.43 758.09,431.01 753.81,442.28 C749.53,453.55 749.01,465.04 743.48,470.28 C737.95,475.52 735.08,479.15 734.84,482.99 C734.6,486.83 735.56,487.78 733.39,488.99 C731.22,490.2 728.11,495.22 729.07,497.14 C729.07,497.14 730.27,501.93 726.43,504.32 C722.59,506.71 723.06,511.51 723.06,511.51 C723.06,511.51 721.62,516.79 718.26,517.98 C714.9,519.17 712.73,527.09 712.73,527.09 L701.8,539.64 L680.21,515.74 C676.843388,512.010234 671.091024,511.714782 667.36,515.08 L656.76,524.64 C652.668408,525.632148 648.970902,527.834621 646.15,530.96 C643.839962,533.331888 641.979791,536.103509 640.66,539.14 L634.85,544.36 C631.116402,548.989915 630.528882,555.40926 633.36,560.64 L647.19,575.93 L647.28,576.06 C642.05,576.72 637.43,578.4 633.9,581.51 C613.25,599.72 613,616.51 616.13,624.16 C619.26,631.81 645.43,661.31 645.43,661.31 C645.43,661.31 660.64,681.08 682.6,691.6 L682.43,691.77 C682,692.23 681.57,692.77 681.15,693.27 L680.79,693.73 L680.46,694.19 L680.07,694.77 C679.96,694.92 679.86,695.08 679.76,695.24 C679.66,695.4 679.48,695.69 679.35,695.93 L679.08,696.39 C678.92,696.69 678.75,697 678.59,697.32 L678.43,697.63 C678.23,698.05 678.03,698.48 677.84,698.93 C677.77,699.09 677.71,699.26 677.64,699.42 C677.52,699.73 677.39,700.05 677.27,700.42 C677.15,700.79 677.12,700.83 677.05,701.04 C676.98,701.25 676.84,701.66 676.74,701.98 C676.64,702.3 676.6,702.43 676.54,702.65 C676.48,702.87 676.34,703.35 676.25,703.71 C676.16,704.07 676.14,704.13 676.08,704.36 C675.95,704.91 675.82,705.48 675.71,706.08 C675.71,706.3 675.63,706.53 675.59,706.76 C675.51,707.16 675.44,707.57 675.38,707.99 C675.33,708.28 675.3,708.57 675.26,708.86 C675.22,709.15 675.16,709.65 675.11,710.05 L675.02,710.97 C675.02,711.41 674.94,711.87 674.91,712.33 C674.91,712.61 674.91,712.89 674.86,713.17 C674.86,713.93 674.78,714.69 674.77,715.49 C674.29,743.49 675.93,747.6 675.93,747.6 C675.93,747.6 679.32,756.53 688.68,757.17 C690.053792,757.270624 691.434799,757.196702 692.79,756.95 C705.28,754.79 734.58,749.76 744.91,751.68 C751.12,752.83 762.62,751.13 770.81,749.58 L772.96,749.17 L774.46,753.93 L779.21,752.63 L783.21,754.96 L785.76,756.42 C790.5,772.5 809.76,767.02 809.76,767.02 L814.28,769.64 L860.64,770.84 C860.64,770.84 870.64,776.84 877.05,778.72 C877.812151,778.950609 878.591202,779.121131 879.38,779.23 C883.677681,779.574654 887.992484,779.654805 892.3,779.47 C895.85,779.38 898.6,779.23 898.6,779.23 C898.6,779.23 898.13,766.64 897.45,752.55 C915.17,751.81 930.88,750.7 940.39,749.03 C965.15,744.68 975.48,722.17 979.28,710.14 C980.422001,715.056915 981.233813,720.044717 981.71,725.07 C982.718997,729.460252 984.004901,733.782228 985.56,738.01 C986.912096,741.411739 988.68597,744.630245 990.84,747.59 C1009.1,741.36 998.05,732.02 994.2,727.94 C990.35,723.86 996.85,720.51 996.85,720.51 C996.85,720.51 1001.85,717.16 1001.41,714.04 C1000.97,710.92 1000.69,707.57 1017.02,707.81 C1033.35,708.05 1032.67,694.36 1032.67,694.36 Z M779.01,541.36 C779.22,542.73 781.5,557.5 783.56,561.36 C783.99,562.18 784.16,565.09 784.1,569.25 C774.42,568.48 764.34,568.07 764.34,568.07 C764.630136,568.420175 764.810962,568.847897 764.86,569.3 L763.34,568.96 L761.13,568.42 L778.96,541.3 L779.01,541.36 Z M743.69,597.56 L760.44,600.22 L761.85,600.44 C761.369767,603.052257 761.079009,605.695813 760.98,608.35 C760.98,608.6 761.36,608.9 761.9,609.25 C761.665921,610.570179 761.555443,611.909308 761.57,613.25 C761.84,614.58 769.67,617.44 778.65,619.82 C778.53,620.3 778.41,620.76 778.29,621.19 C770.36,617.02 757.86,615.07 756.42,611.97 C754.98,608.87 712.42,593.97 712.42,593.97 C712.42,593.97 710.87,593.15 708.19,591.85 L719.39,593.97 L722.47,593.66 C729.452857,595.40683 736.540814,596.702837 743.69,597.54 L743.69,597.56 Z" id="Shape" fill="url(#linearGradient-1)" fill-rule="nonzero"></path>
            <path d="M977.99,704.79 C977.99,704.79 971.33,745.02 937.52,750.97 C903.71,756.92 790.86,755.73 790.86,755.73 C790.86,755.73 726.34,746.45 703.01,691.93 C679.68,637.41 664.68,615.74 684.68,614.79 C704.68,613.84 812.53,651.22 818.68,651.69 C824.83,652.16 983.94,568.84 977.99,704.79 Z" id="Shape" fill="#434175" fill-rule="nonzero"></path>
            <path d="M977.99,704.79 C977.99,704.79 971.33,745.02 937.52,750.97 C903.71,756.92 790.86,755.73 790.86,755.73 C790.86,755.73 726.34,746.45 703.01,691.93 C679.68,637.41 664.68,615.74 684.68,614.79 C704.68,613.84 812.53,651.22 818.68,651.69 C824.83,652.16 983.94,568.84 977.99,704.79 Z" id="Shape" fill="#000000" fill-rule="nonzero" opacity="0.05"></path>
            <path d="M675.35,749.54 C675.35,749.54 678.72,758.42 687.99,759.05 C689.350539,759.145884 690.717724,759.071982 692.06,758.83 C704.44,756.69 733.49,751.69 743.72,753.59 C749.88,754.74 761.27,753.04 769.38,751.51 C774.78,750.51 778.72,749.51 778.72,749.51 C778.72,749.51 769.2,717.85 768,716.9 C766.8,715.95 725.15,690.95 725.15,690.95 L692.15,688.58 L692.05,688.58 C692.05,688.58 685.94,688.99 680.87,695.15 C677.38,699.36 674.39,706.28 674.19,717.62 C673.73,745.49 675.35,749.54 675.35,749.54 Z" id="Shape" fill="#565387" fill-rule="nonzero"></path>
            <path d="M675.35,749.54 C675.35,749.54 678.72,758.42 687.99,759.05 C684.736992,754.869607 681.731837,750.502116 678.99,745.97 L679.16,722.88 C677.69,705.59 685.78,694.52 692.16,688.61 L692.06,688.61 C692.06,688.61 674.68,689.79 674.2,717.61 C673.72,745.43 675.35,749.54 675.35,749.54 Z" id="Shape" fill="#000000" fill-rule="nonzero" opacity="0.05"></path>
            <path d="M818.48,699.07 L849.19,675.07 L897.52,627.45 C897.52,627.45 892.3,627.2 884.43,626.86 C882.43,628.11 876.98,632.04 876.78,636.86 C876.54,642.68 863.71,637.26 857.05,640.59 C850.39,643.92 817.77,685.67 812.05,685.4 C806.33,685.13 801.82,682.5 799.43,686.55 C799.43,686.64 799.32,686.72 799.26,686.81 L818.48,699.07 Z" id="Shape" fill="#000000" fill-rule="nonzero" opacity="0.1"></path>
            <path d="M680.88,695.17 C681.97,695.7 683.07,696.17 684.2,696.69 C707.54,706.69 736.34,727.69 738.49,731.45 C739.79,733.77 756.49,743.91 769.38,751.51 C774.78,750.51 778.72,749.51 778.72,749.51 C778.72,749.51 769.2,717.85 768,716.9 C766.8,715.95 725.15,690.95 725.15,690.95 L692.15,688.58 L692.05,688.58 C692.05,688.58 685.95,689.01 680.88,695.17 Z" id="Shape" fill="#000000" fill-rule="nonzero" opacity="0.1"></path>
            <path d="M616.12,626.93 C619.21,634.55 645.12,663.84 645.12,663.84 C645.12,663.84 661.54,685.26 684.88,695.26 C708.22,705.26 737.02,726.26 739.16,730.02 C740.54,732.47 759.16,743.67 772.24,751.37 L775.17,753.08 L781.67,756.85 L785.11,758.85 C785.11,758.85 793.11,752.45 801.02,746.01 C808.93,739.57 816.65,733.26 816.78,732.9 C817.01,732.19 820.1,724.09 819.39,723.62 C819.02,723.37 817.39,720.07 814.39,716.25 C811.188268,712.010161 807.032678,708.584282 802.26,706.25 C791.26,701.25 786.55,689.87 786.55,689.87 C786.55,689.87 785.55,689.11 783.92,688.11 C781.1,686.33 776.57,683.77 773.22,683.34 C767.97,682.68 758.22,671.97 758.22,671.97 C758.22,671.97 751.55,667.68 748.93,662.21 C746.43,656.99 709.51,631.63 706.09,629.29 L795.6,686.77 L817.02,700.54 L847.73,676.54 L896.07,628.92 C896.07,628.92 889.57,628.6 880.07,628.2 C856.58,627.2 814.86,625.59 809.59,626.78 C805.299486,627.779757 800.873734,628.066924 796.49,627.63 C796.49,627.63 784.61,628.17 776.75,624.02 C768.89,619.87 756.5,617.93 755.07,614.86 C753.64,611.79 711.5,597.01 711.5,597.01 C711.5,597.01 654.13,566.54 633.65,584.64 C613.17,602.74 613.02,619.32 616.12,626.93 Z" id="Shape" fill="#434175" fill-rule="nonzero"></path>
            <path d="M801.1,452.19 L808.48,476.71 L818,531.94 L853,534.32 L863.13,517.52 L873.28,500.75 C873.28,500.75 879.58,478.43 884.11,456.84 C888.11,437.74 890.73,419.2 886.37,417.19 C882.51,415.4 879.97,408.97 878.37,402.05 C878.16,401.2 877.97,400.33 877.79,399.46 C876.623706,393.60136 875.848659,387.671587 875.47,381.71 C875.47,381.71 802.14,377.91 812.38,408.14 C814.207435,413.304123 815.140815,418.742073 815.14,424.22 C815.129843,425.586822 815.04639,426.952116 814.89,428.31 C813.836372,437.848622 808.834901,446.509618 801.1,452.19 Z" id="Shape" fill="#EE8E9E" fill-rule="nonzero"></path>
            <path d="M785.86,448.14 L788.48,489.8 L794.43,525.27 L801.1,541.7 L807.05,631.58 C807.05,631.58 864.46,638.22 878.42,631.46 C879.426479,631.030681 880.299944,630.340195 880.95,629.46 C897.81,604.03 892.28,530.27 892.28,530.27 L898.71,482.64 L894.42,457.92 L884.07,456.82 L876.07,455.97 C876.07,455.97 874.27,458.19 871.67,461.62 C864.61,470.94 851.67,489.27 852.5,496.92 C853.68,507.4 851.07,518.11 847.02,519.78 C842.97,521.45 839.64,524.3 838.93,521.45 C838.22,518.6 837.5,517.88 838.21,513.83 C838.92,509.78 835.11,497.4 835.11,497.4 C835.11,497.4 828.69,482.88 829.11,476.69 C829.53,470.5 828.4,463.35 826.49,461.69 C824.58,460.03 821.97,458.35 824.11,450.69 C826.25,443.03 814.72,428.24 814.72,428.24 L785.86,448.14 Z" id="Shape" fill="#E3E8F4" fill-rule="nonzero"></path>
            <path d="M861.69,552.19 L864.07,623.38 L877.82,631 C878.826229,630.570261 879.699593,629.879855 880.35,629 C897.22,603.53 891.69,529.78 891.69,529.78 L898.12,482.16 L893.83,457.45 L883.47,456.35 C887.47,437.25 890.09,418.71 885.74,416.7 C881.87,414.91 879.33,408.48 877.68,401.56 L870.28,451.96 C870.28,451.96 870.9,456.5 871.12,461.18 C871.29,464.66 871.23,468.18 870.52,470.05 C868.85,474.34 870.04,481.96 870.04,481.96 C865.75,489.52 863.61,503.53 862.56,517.06 C861.15,535.05 861.69,552.19 861.69,552.19 Z" id="Shape" fill="#000000" fill-rule="nonzero" opacity="0.1"></path>
            <path d="M877.91,400.46 C877.91,400.46 889.91,401.95 893.71,406.95 C897.51,411.95 907.52,412.64 907.52,412.64 C907.52,412.64 918.95,416.45 918.71,417.4 C918.47,418.35 922.04,419.79 929.19,421.69 C936.34,423.59 948.19,430.5 948.19,432.17 C948.19,433.84 967,452.4 967,454.31 C967,456.22 972.72,463.31 972,475.97 C971.28,488.63 970.57,504.54 973.43,507.16 C976.29,509.78 973.43,520.02 973.43,520.02 C971.880434,522.307771 971.82167,525.293019 973.28,527.64 C975.66,531.93 972.81,549.79 972.81,549.79 L973.04,568.36 C973.04,568.36 970.42,580.02 973.52,580.5 C976.62,580.98 973.04,586.21 973.04,586.21 C973.04,586.21 970.42,595.74 973.76,600.02 C977.1,604.3 978.04,622.64 978.04,622.64 L1029.04,696.64 C1029.04,696.64 1029.76,710.21 1013.57,709.97 C997.38,709.73 997.57,713.07 998.09,716.16 C998.61,719.25 993.57,722.59 993.57,722.59 C993.57,722.59 987.14,725.92 990.95,729.97 C994.76,734.02 1005.71,743.3 987.62,749.49 C985.479223,746.550106 983.718604,743.351426 982.38,739.97 C980.844499,735.769905 979.572036,731.478267 978.57,727.12 C978.57,727.12 976.9,709.02 973.57,706.64 C970.24,704.26 970.71,692.83 970.71,692.83 C970.71,692.83 975.47,683.55 968.81,679.74 C962.15,675.93 865.38,622.41 865.38,622.41 L863,551.22 C863,551.22 861.33,498.61 871.33,480.99 C871.33,480.99 870.14,473.37 871.81,469.09 C873.48,464.81 871.57,450.99 871.57,450.99 L877.91,400.46 Z" id="Shape" fill="#565387" fill-rule="nonzero"></path>
            <path d="M815.51,429.02 C815.51,429.02 791.58,424.09 785.15,427.42 C778.72,430.75 766.15,433.42 764.15,435.28 C762.15,437.14 757.48,435.76 753.2,446.95 C748.92,458.14 748.43,469.56 742.96,474.8 C737.49,480.04 734.63,483.61 734.39,487.42 C734.15,491.23 735.1,492.18 732.96,493.42 C730.82,494.66 727.72,499.61 728.67,501.52 C729.62,503.43 778.28,545.27 778.28,545.27 C778.28,545.27 780.67,561.27 782.81,565.27 C784.95,569.27 780.43,625.03 775.67,628.84 C770.91,632.65 807.81,632.3 807.81,632.3 C807.81,632.3 809.47,595.75 810.9,593.84 C812.33,591.93 809.9,552.84 809.9,552.84 C809.9,552.84 809.66,519.51 812.76,510.7 C815.86,501.89 815.51,472.64 815.51,472.64 C815.51,472.64 818.25,455.07 821.58,450.97 C824.91,446.87 815.51,429.02 815.51,429.02 Z" id="Shape" fill="#000000" fill-rule="nonzero" opacity="0.1"></path>
            <path d="M814.8,428.31 C814.8,428.31 790.86,423.38 784.43,426.71 C778,430.04 765.43,432.66 763.48,434.57 C761.53,436.48 756.82,435.04 752.48,446.23 C748.14,457.42 747.72,468.85 742.24,474.09 C736.76,479.33 733.91,482.9 733.67,486.71 C733.43,490.52 734.39,491.47 732.25,492.66 C730.11,493.85 727.01,498.85 727.96,500.75 C728.91,502.65 777.48,544.56 777.48,544.56 C777.48,544.56 779.86,560.56 782,564.56 C784.14,568.56 779.62,624.31 774.86,628.12 C770.1,631.93 807,631.58 807,631.58 C807,631.58 808.67,595.03 810.1,593.13 C811.53,591.23 809.1,552.13 809.1,552.13 C809.1,552.13 808.87,518.8 811.96,509.99 C815.05,501.18 814.71,471.89 814.71,471.89 C814.71,471.89 817.45,454.32 820.77,450.23 C824.09,446.14 814.8,428.31 814.8,428.31 Z" id="Shape" fill="#565387" fill-rule="nonzero"></path>
            <path d="M812.28,408.14 C814.107435,413.304123 815.040815,418.742073 815.04,424.22 C839.132422,431.356871 864.986032,421.139228 877.69,399.46 C876.523706,393.60136 875.748659,387.671587 875.37,381.71 C875.37,381.71 802.05,377.91 812.28,408.14 Z" id="Shape" fill="#000000" fill-rule="nonzero" opacity="0.1"></path>
            <path d="M776.1,370.52 C776.125686,399.522319 798.852513,423.428241 827.816475,424.919586 C856.780437,426.410932 881.842384,404.965639 884.846677,376.119332 C887.85097,347.273025 867.745924,321.123667 839.096248,316.614651 C810.446571,312.105635 783.281394,330.815391 777.28,359.19 C776.492192,362.915113 776.096701,366.712494 776.1,370.52 Z" id="Shape" fill="#EE8E9E" fill-rule="nonzero"></path>
            <path d="M741.1,496.7 L728.01,500.75 C728.01,500.75 729.2,505.51 725.39,507.89 C721.58,510.27 722.06,515.04 722.06,515.04 C722.06,515.04 720.63,520.27 717.3,521.46 C713.97,522.65 711.82,530.46 711.82,530.46 L700.87,543.08 C700.87,543.08 696.82,546.41 697.54,548.08 C698.26,549.75 693.25,550.22 693.25,550.22 L695.87,592.64 L718.49,596.93 L732.49,595.5 L743.92,591.21 L753.92,585.21 L758.48,573.64 L778.48,543.17 L741.1,496.7 Z" id="Shape" fill="#565387" fill-rule="nonzero"></path>
            <path d="M696.58,553.64 C696.58,553.64 667.58,511.73 645.87,534.35 C624.16,556.97 654.68,593.63 661.82,592.44 C668.96,591.25 703.01,589.35 703.01,589.35 L696.58,553.64 Z" id="Shape" fill="#EE8E9E" fill-rule="nonzero"></path>
            <rect id="Rectangle-path" fill="#30374E" fill-rule="nonzero" transform="translate(673.333937, 562.470532) rotate(-42.050000) translate(-673.333937, -562.470532) " x="642.623937" y="527.570532" width="61.42" height="69.8" rx="12.62"></rect>
            <rect id="Rectangle-path" fill="#000000" fill-rule="nonzero" opacity="0.1" transform="translate(673.333937, 562.470532) rotate(-42.050000) translate(-673.333937, -562.470532) " x="642.623937" y="527.570532" width="61.42" height="69.8" rx="12.62"></rect>
            <rect id="Rectangle-path" fill="#30374E" fill-rule="nonzero" transform="translate(674.152100, 559.019479) rotate(-42.050000) translate(-674.152100, -559.019479) " x="643.4421" y="524.119479" width="61.42" height="69.8" rx="12.62"></rect>
            <circle id="Oval" fill="#627BED" fill-rule="nonzero" cx="673.39" cy="560.74" r="13.57"></circle>
            <circle id="Oval" fill="#000000" fill-rule="nonzero" opacity="0.1" cx="673.39" cy="560.74" r="13.57"></circle>
            <circle id="Oval" fill="#627BED" fill-rule="nonzero" cx="674.15" cy="559.02" r="13.57"></circle>
            <path d="M677.78,562.41 C677.54,593.84 742.54,600.5 742.54,600.5 L759.14,603.14 L766.58,604.32 L769.68,573.64 C769.68,573.64 766.27,573.13 762.01,572.14 C755.72,570.67 747.57,568.14 745.86,564.59 C743.01,558.64 678.01,530.99 677.78,562.41 Z" id="Shape" fill="#EE8E9E" fill-rule="nonzero"></path>
            <path d="M777.28,359.19 C778.779671,359.300472 780.19403,359.929862 781.28,360.97 C783.12,362.92 783.22,366.38 785.61,367.58 C786.503129,367.968702 787.491538,368.083553 788.45,367.91 C794.78,367.01 798.45,359.91 804.52,357.91 C807.98,356.79 811.79,357.52 815.17,358.82 C816.529177,359.245915 817.748549,360.030044 818.7,361.09 C820.7,363.72 819.31,367.59 820.25,370.78 C821.56,375.2 826.84,376.96 831.41,377.54 C835.98,378.12 841.13,378.44 844.18,381.89 C846.34,384.34 846.89,387.89 846.45,391.1 C846.180416,392.220682 846.180416,393.389318 846.45,394.51 C847.71,398.08 853.89,397.51 855.5,394.73 C856.68,392.68 856.32,390.98 859.1,390.41 C860.98,390.02 863.19,390.81 864.93,391.41 C869.776672,393.082188 874.884829,393.868058 880.01,393.73 C888.852619,374.749702 886.045986,352.382377 872.788077,336.175235 C859.530167,319.968093 838.162844,312.783946 817.806481,317.689259 C797.450118,322.594571 781.70044,338.722872 777.28,359.19 Z" id="Shape" fill="#000000" fill-rule="nonzero" opacity="0.1"></path>
            <path d="M846.42,393.07 C846.150416,391.949318 846.150416,390.780682 846.42,389.66 C846.85,386.43 846.31,382.89 844.15,380.45 C841.15,377 835.95,376.67 831.38,376.1 C826.81,375.53 821.53,373.77 820.22,369.35 C819.28,366.16 820.7,362.28 818.67,359.65 C817.724322,358.590226 816.507218,357.80879 815.15,357.39 C811.76,356.08 807.95,355.39 804.49,356.47 C798.42,358.47 794.75,365.59 788.42,366.47 C787.461538,366.643553 786.473129,366.528702 785.58,366.14 C783.19,364.94 783.09,361.48 781.25,359.54 C778.36,356.48 772.87,358.45 769.33,356.18 C767.02,354.69 766.13,351.8 765.49,349.13 C764.23,343.95 763.22,338.52 764.43,333.34 C766.5,324.48 774.43,318.41 779.43,310.85 C784.14,303.8 786.78,294.85 793.86,290.21 C800.94,285.57 810.03,286.6 818.01,288.97 C821.75,290.08 825.45,291.46 829.32,291.97 C835.76,292.76 842.22,290.97 848.7,290.79 C857.852508,290.494302 866.847057,293.225355 874.29,298.56 C875.967047,299.658222 877.391796,301.100014 878.47,302.79 C879.76,305.07 879.93,307.79 880.32,310.37 C881.076215,315.291447 882.77384,320.021031 885.32,324.3 C887.32,327.65 889.83,330.69 891.64,334.15 C893.45,337.61 894.51,341.7 893.35,345.42 C892.74,347.42 891.53,349.15 891.08,351.16 C890.02,355.81 893.08,360.25 895.17,364.54 C897.194232,368.452743 898.153013,372.829334 897.95,377.23 C897.713579,381.658972 895.649328,385.791096 892.25,388.64 C888.88,391.28 884.45,392.16 880.18,392.3 C874.955255,392.476186 869.742463,391.69325 864.8,389.99 C863.05,389.39 860.8,388.6 858.97,388.99 C856.19,389.56 856.55,391.26 855.37,393.31 C853.85,396.11 847.68,396.64 846.42,393.07 Z" id="Shape" fill="#434175" fill-rule="nonzero"></path>
            <path d="M817.05,700.5 L847.76,676.5 L896.1,628.88 C896.1,628.88 889.6,628.56 880.1,628.16 C878.37,629.92 876.83,632.16 876.73,634.66 C876.49,640.48 863.66,635.07 857,638.4 C850.34,641.73 817.72,683.47 812,683.2 C806.28,682.93 801.77,680.3 799.38,684.35 C799.329236,684.443584 799.27245,684.533774 799.21,684.62 C798.259895,685.705021 796.988119,686.458276 795.58,686.77 L817.05,700.5 Z" id="Shape" fill="#000000" fill-rule="nonzero" opacity="0.1"></path>
            <path d="M755.15,698.83 L770.58,748.09 L773,755.83 L780.35,753.83 L796.55,749.38 L868.71,729.56 C868.71,729.56 882.27,729.38 894.71,722.63 C908.46,715.15 923.97,711.39 939.55,712.85 C949.09,713.74 959.7,709.63 968.55,693.37 C968.55,693.37 988.55,634.37 938.07,617.37 C887.59,600.37 885.19,626.37 885.19,626.37 C885.19,626.37 884.93,626.51 884.51,626.79 C882.51,628.04 877.06,631.97 876.86,636.79 C876.62,642.61 863.79,637.19 857.13,640.52 C850.47,643.85 817.85,685.6 812.13,685.33 C806.41,685.06 801.9,682.43 799.51,686.48 C799.51,686.57 799.4,686.65 799.34,686.74 C797.58,689.17 792.28,689.74 788.77,689.83 C786.86,689.89 785.47,689.83 785.47,689.83 L785.02,689.97 L781.28,691.01 L755.15,698.83 Z" id="Shape" fill="#434175" fill-rule="nonzero"></path>
            <path d="M759.14,603.14 L766.58,604.32 L769.68,573.64 C769.68,573.64 766.27,573.13 762.01,572.14 C763.14,576.39 760.58,592.96 759.14,603.14 Z" id="Shape" fill="#000000" fill-rule="nonzero" opacity="0.1"></path>
            <path d="M953.82,459.64 C953.82,459.64 975.96,453.21 970.48,516.07 C965,578.93 924.06,618.64 924.06,618.64 C924.06,618.64 876.92,639.35 855.73,636.02 C834.54,632.69 819.07,632.02 819.07,632.02 C812.400851,628.648741 805.102415,626.704081 797.64,626.31 C785.73,625.83 760.74,618.45 760.26,616.07 C759.78,613.69 766.45,578.69 763.59,576.07 C763.59,576.07 796.92,577.44 800.26,579.85 C803.6,582.26 808.35,580.53 811.92,579.85 C815.49,579.17 826.45,569.64 848.11,577.98 C848.11,577.98 855.49,578.69 858.35,576.79 C861.21,574.89 865.79,576.31 865.79,576.31 C865.79,576.31 870.28,574.64 870.97,573.64 C871.66,572.64 877.39,573.64 877.39,573.64 C878.079171,573.976665 878.883569,573.98388 879.578668,573.65963 C880.273767,573.33538 880.785121,572.714393 880.97,571.97 C881.717914,570.02093 882.850392,568.242293 884.3,566.74 C884.3,566.74 890.73,530.55 902.87,516.98 C902.87,516.98 906.44,513.88 905.49,510.07 C904.54,506.26 925.28,452.01 953.82,459.64 Z" id="Shape" fill="#000000" fill-rule="nonzero" opacity="0.1"></path>
            <path d="M953.28,454.8 C953.28,454.8 975.42,448.37 969.95,511.23 C964.48,574.09 923.47,613.84 923.47,613.84 C923.47,613.84 876.33,634.55 855.14,631.22 C833.95,627.89 818.48,627.17 818.48,627.17 C811.811586,623.796814 804.512736,621.852044 797.05,621.46 C785.15,620.98 760.15,613.6 759.67,611.22 C759.19,608.84 765.86,573.84 763.01,571.22 C763.01,571.22 796.34,572.59 799.67,575 C803,577.41 807.77,575.68 811.34,575 C814.91,574.32 825.86,564.8 847.53,573.13 C847.53,573.13 854.91,573.84 857.76,571.94 C860.61,570.04 865.21,571.46 865.21,571.46 C865.21,571.46 869.67,569.79 870.38,568.84 C871.09,567.89 876.81,568.84 876.81,568.84 C877.496373,569.17695 878.298313,569.185413 878.991644,568.863023 C879.684975,568.540634 880.195314,567.92198 880.38,567.18 C881.126231,565.227123 882.258832,563.444893 883.71,561.94 C883.71,561.94 890.14,525.75 902.28,512.18 C902.28,512.18 905.85,509.08 904.9,505.28 C903.95,501.48 924.66,447.18 953.28,454.8 Z" id="Shape" fill="#565387" fill-rule="nonzero"></path>
            <path d="M781.28,691.01 L812.72,729.01 C812.84,728.9 812.92,728.82 812.92,728.79 C813.16,728.07 816.25,719.98 815.54,719.5 C814.83,719.02 809.35,707.12 798.4,702.12 C791.71,699.12 787.33,693.63 784.94,689.87 L781.28,691.01 Z" id="Shape" fill="#000000" fill-rule="nonzero" opacity="0.1"></path>
            <path d="M781.71,756.85 L785.15,758.85 C785.15,758.85 793.15,752.45 801.06,746.01 C808.97,739.57 816.69,733.26 816.82,732.9 C817.05,732.19 820.14,724.09 819.43,723.62 C819.06,723.37 817.43,720.07 814.43,716.25 C793.11,710.25 806.68,725.08 808.49,725.76 C808.49,725.76 782.49,719.76 781.11,748.07 C780.921397,751.010321 781.123152,753.962671 781.71,756.85 Z" id="Shape" fill="#000000" fill-rule="nonzero" opacity="0.1"></path>
            <path d="M808,768.83 L812.53,771.45 L858.53,772.64 C858.53,772.64 868.39,778.64 874.79,780.46 C875.544146,780.695192 876.316932,780.865808 877.1,780.97 C881.357597,781.314644 885.632476,781.394798 889.9,781.21 C893.42,781.12 896.15,780.97 896.15,780.97 C896.15,780.97 893.97,722.97 892.33,716.97 C891.55,714.05 887.7,714.69 883.9,716.15 C881.045088,717.307859 878.292138,718.702732 875.67,720.32 C875.67,720.32 856.15,722.21 853.05,723.89 C849.95,725.57 841.15,722.89 835.67,723.89 C830.19,724.89 820.44,717.44 820.44,717.44 C793.77,708.64 808.77,725.06 810.67,725.78 C810.67,725.78 784.73,719.78 783.3,748.09 C781.87,776.4 808,768.83 808,768.83 Z" id="Shape" fill="#565387" fill-rule="nonzero"></path>
            <path d="M874.43,746.45 C874.93,758.45 884.28,773.34 889.85,781.21 C893.37,781.12 896.1,780.97 896.1,780.97 C896.1,780.97 893.92,722.97 892.28,716.97 C891.5,714.05 887.65,714.69 883.85,716.15 C879.28,724.75 874.03,736.78 874.43,746.45 Z" id="Shape" fill="#565387" fill-rule="nonzero"></path>
            <path d="M874.43,746.45 C874.93,758.45 884.28,773.34 889.85,781.21 C893.37,781.12 896.1,780.97 896.1,780.97 C896.1,780.97 893.92,722.97 892.28,716.97 C891.5,714.05 887.65,714.69 883.85,716.15 C879.28,724.75 874.03,736.78 874.43,746.45 Z" id="Shape" fill="#000000" fill-rule="nonzero" opacity="0.1"></path>
            <path d="M866.57,748.04 C869.73,759.62 869.7,772.61 874.74,780.46 C875.494146,780.695192 876.266932,780.865808 877.05,780.97 C881.307597,781.314644 885.582476,781.394798 889.85,781.21 C893.37,781.12 896.1,780.97 896.1,780.97 C896.1,780.97 893.92,722.97 892.28,716.97 C891.5,714.05 887.65,714.69 883.85,716.15 C880.995088,717.307859 878.242138,718.702732 875.62,720.32 C875.62,720.32 862.53,733.22 866.57,748.04 Z" id="Shape" fill="#000000" fill-rule="nonzero" opacity="0.05"></path>
            <path d="M708.05,630.58 C708.05,630.58 730.87,637.99 750.21,664.31 L708.05,630.58 Z" id="Shape" fill="#000000" fill-rule="nonzero" opacity="0.1"></path>
            <g id="Group" opacity="0.1" transform="translate(763.000000, 328.000000)" fill="#000000" fill-rule="nonzero">
                <path d="M130.51,16.9 C130.472642,17.069134 130.425903,17.2360586 130.37,17.4 C130.151392,18.0834772 129.887474,18.7516246 129.58,19.4 C129.814789,18.5405882 130.126031,17.7039166 130.51,16.9 Z" id="Shape"></path>
                <path d="M1.39,5.35 C1.78573056,3.68171538 2.37996757,2.06686792 3.16,0.54 C3.04,0.95 2.91,1.36 2.81,1.78 C1.6,6.96 2.61,12.39 3.87,17.57 C4.52,20.24 5.4,23.13 7.71,24.62 C11.26,26.89 16.71,24.91 19.63,27.97 C21.47,29.92 21.57,33.38 23.97,34.58 C24.8629706,34.9692906 25.8515578,35.0841616 26.81,34.91 C33.13,34.01 36.81,26.91 42.88,24.91 C46.34,23.79 50.14,24.52 53.53,25.83 C54.8872184,26.2487901 56.1043223,27.0302262 57.05,28.09 C59.05,30.72 57.66,34.6 58.6,37.78 C59.91,42.2 65.19,43.96 69.76,44.53 C74.33,45.1 79.48,45.43 82.53,48.89 C84.69,51.33 85.24,54.89 84.8,58.1 C84.5352699,59.2212527 84.5352699,60.3887473 84.8,61.51 C86.06,65.08 92.24,64.51 93.8,61.73 C94.98,59.68 94.63,57.98 97.41,57.41 C99.28,57.02 101.49,57.81 103.23,58.41 C108.172463,60.11325 113.385255,60.8961856 118.61,60.72 C122.88,60.57 127.32,59.72 130.68,57.06 C132.215238,55.8360471 133.475861,54.3028566 134.38,52.56 C133.596733,55.7332276 131.807601,58.5677754 129.28,60.64 C125.92,63.28 121.49,64.16 117.21,64.3 C111.988478,64.4769989 106.778818,63.6940246 101.84,61.99 C100.09,61.39 97.84,60.6 96.01,60.99 C93.23,61.56 93.58,63.26 92.41,65.31 C90.79,68.13 84.62,68.66 83.35,65.09 C83.0852699,63.9687473 83.0852699,62.8012527 83.35,61.68 C83.79,58.45 83.25,54.91 81.09,52.47 C78.03,49.02 72.88,48.69 68.31,48.12 C63.74,47.55 58.46,45.79 57.16,41.37 C56.21,38.18 57.64,34.3 55.61,31.67 C54.6589389,30.6117999 53.4391174,29.8308377 52.08,29.41 C48.69,28.1 44.89,27.41 41.43,28.49 C35.35,30.49 31.68,37.61 25.36,38.49 C24.4015578,38.6641616 23.4129706,38.5492906 22.52,38.16 C20.12,36.96 20.02,33.5 18.18,31.56 C15.29,28.5 9.81,30.47 6.27,28.2 C3.95,26.71 3.07,23.82 2.42,21.15 C1.18,15.96 0.17,10.53 1.39,5.35 Z" id="Shape"></path>
            </g>
            <path d="M897.2,523.9 C892.84,529.79 887.86,535.24 884,541.47 C880.14,547.7 877.41,554.97 878.22,562.25 C882.22,558.15 884.04,552.49 886.56,547.35 C890.82,538.65 897.2,531.27 902.56,523.27 C903.56,521.74 910.17,512.92 906.84,512.5 C904.1,512.15 898.69,521.89 897.2,523.9 Z" id="Shape" fill="#000000" fill-rule="nonzero" opacity="0.1"></path>
        </g>
        <text id="3" font-family="Rubik-Medium, Rubik" font-size="200" font-weight="400" fill="#627BED">
            <tspan x="110" y="223">3</tspan>
        </text>
    </g>
</svg>