<svg xmlns="http://www.w3.org/2000/svg" xmlns:xlink="http://www.w3.org/1999/xlink" viewBox="0 0 353 347">
  <defs>
    <style>
      .cls-1 {
        clip-path: url(#clip-Artboard_2);
      }

      .cls-10, .cls-2 {
        fill: #4285f4;
      }

      .cls-12, .cls-15, .cls-2, .cls-5 {
        opacity: 0.1;
      }

      .cls-3 {
        fill: url(#linear-gradient);
      }

      .cls-4 {
        fill: #65617d;
      }

      .cls-6 {
        fill: #fbbebe;
      }

      .cls-7 {
        fill: #e7effd;
      }

      .cls-8 {
        fill: #3f3d56;
      }

      .cls-9 {
        fill: #5f5d7e;
      }

      .cls-11 {
        fill: #7c5c5c;
      }

      .cls-13 {
        fill: #e6e8ec;
      }

      .cls-14 {
        fill: #fff;
      }

      .cls-15 {
        fill: #5a5773;
      }
    </style>
    <linearGradient id="linear-gradient" x1="0.5" y1="1" x2="0.5" gradientUnits="objectBoundingBox">
      <stop offset="0" stop-color="gray" stop-opacity="0.251"/>
      <stop offset="0.54" stop-color="gray" stop-opacity="0.122"/>
      <stop offset="1" stop-color="gray" stop-opacity="0.102"/>
    </linearGradient>
    <clipPath id="clip-Artboard_2">
      <rect width="353" height="347"/>
    </clipPath>
  </defs>
  <g id="Artboard_2" data-name="Artboard – 2" class="cls-1">
    <rect class="cls-14" width="353" height="347"/>
    <g id="Group_163" data-name="Group 163" transform="translate(-7211.12 -4148.863)">
      <ellipse id="Ellipse_301" data-name="Ellipse 301" class="cls-2" cx="71.644" cy="17.698" rx="71.644" ry="17.698" transform="translate(7341.451 4433.383)"/>
      <path id="Path_2124" data-name="Path 2124" class="cls-3" d="M1099.37,556.429c.272-.716-1.746-4.809-1.746-5.01s-2.083-2.469-2.083-3.736-2.755-4.008-2.755-4.008-3.7-1.531-4.1-4.874-4.43-3.4-4.437-3.4h0v-.766a10.532,10.532,0,0,0-.494-3.9,3.928,3.928,0,0,0-2.283-1.94s-.408-2.6-1.209-3.406a3.828,3.828,0,0,1-.945-3.578c.408-1.26-.537-4.466-2.484-4.938s-4.172-1.2-4.172-1.2l-.537.093-.265-.093a11.155,11.155,0,0,1-1.431.179,1.768,1.768,0,0,1-1.138-.372c-.673-.716-6.119-2.147-7.157-2.147a16.362,16.362,0,0,1-3.9-1.338s-2.018-1.531-2.863-2.2a18.783,18.783,0,0,1-2.534-3.485v-.05h0a12.354,12.354,0,0,1-.608-1.753h0a15.791,15.791,0,0,0,2.5-3.442c.071-.129.136-.258.2-.394a1.5,1.5,0,0,0,.436-.064l.179-.072a2.906,2.906,0,0,0,1.431-1.7h0a4.5,4.5,0,0,0,.129-.444v-.15l.065-.3a1.441,1.441,0,0,1,0-.172l.043-.3v-.172a.992.992,0,0,1,.05-.379h0a13.218,13.218,0,0,1,.208-1.431h0c.4-1.811,1.5-3.342,2.261-5.01h0c.108-.236.215-.479.308-.716s.186-.537.265-.809l.065-.251c.05-.2.093-.4.136-.6s0-.179.05-.272q.064-.408.108-.837a10.352,10.352,0,0,0-.716-4.687c-.5-1.252-1.253-2.383-1.76-3.636-.773-1.9-.981-4.051-1.918-5.861a6.978,6.978,0,0,0-8.373-3.406c-1.431.544-2.734,1.6-4.215,2.068-1.99.637-4.108.158-6.169-.121s-4.294-.315-5.983,1.03c-1.9,1.546-2.419,4.451-4.208,6.147-.716.716-1.682,1.167-2.476,1.825a4.043,4.043,0,0,0-1.245,1.7l-.043.136a1.262,1.262,0,0,0-.043.179,1.7,1.7,0,0,0-.036.2.865.865,0,0,0,0,.136,1.516,1.516,0,0,0,0,.358h0a2.766,2.766,0,0,0,.05.336v.093a.837.837,0,0,0,.086.279c.036.093,0,.036,0,.05s.079.208.122.308l.064.15a.119.119,0,0,0,.057.122,8.872,8.872,0,0,1,.623,1.553,1.722,1.722,0,0,1-.065,1.023,3.015,3.015,0,0,1-.716.98,13.85,13.85,0,0,0-3.034,4.859q-.122.315-.215.623h.093a4.083,4.083,0,0,0,.587.122,2.835,2.835,0,0,0,.336,0,5.241,5.241,0,0,0,1.374-.1l.344-.086a7.767,7.767,0,0,0,1.36-.494v.637a15.873,15.873,0,0,0,8.824,14.2,2.954,2.954,0,0,0,.057.429l.043.365-.179-.172s-1.209-.6-2.354,1.131a7.6,7.6,0,0,1-3.292,2.54s-12.238,1.932-12.71,3.536l-5.726.336s-2.018.265-2.218,4.473-1.274,4.6-1.274,4.6-2.355,4.144-2.147,6.276a3.5,3.5,0,0,1-1.818,3.206l-.265,3.807a2.626,2.626,0,0,0-2.863,2.269,9.052,9.052,0,0,1-1.675,3.8s-3.7,3.077-3.9,5.675l-2.29,1.431s-5.31-1.2-6.52-3.335c0,0-.143-.143-.372-.351v-.05h0a21.575,21.575,0,0,0-2.219-1.954,1.608,1.608,0,0,1,.107,1.073l-.393-.436-1.059-1.174s-8.588-8.044-13.6-8.681h0c-.065-.129-.394-1.431-1.253-.608a7.014,7.014,0,0,0-.05,10.284l8.044,7.507.207.15,1.725,2.219a20.16,20.16,0,0,0-.716,1.99v.065l-.129.386a.857.857,0,0,0-.036.129c-.043.129-.079.25-.114.372l-.065.215v.129c-.193.673-.315,1.188-.372,1.474l-.451-.143.436.193v.208l.415.179c2.355,1.023,14.106,6.183,14.707,6.963s5.11,3.406,9.146,1.267a9.63,9.63,0,0,0,4.9-5.4s3.9-5.41,4.036-6.212,3.156-1.732,3.156-1.732.272,8.939-1.274,12.216-4.437,17.755-4.437,17.755a2.05,2.05,0,0,1,.573,0l-.172.837a1.946,1.946,0,0,1,.716,0c-.215,1.646-1.431,9.3-1.431,9.3a19.063,19.063,0,0,1-1.074,4.673c-.673,1.2-.716,7.479-.716,7.479l-1.081,4.537s.143.315.408.78h0a11.62,11.62,0,0,0,3.092,4,7.909,7.909,0,0,1-.544,2.075,7.3,7.3,0,0,0-.537,3.206s-1.138,5.138-1.009,6.606a25.228,25.228,0,0,1-.716,5.074l-1.209,11.615s-.8,10.076-.4,12.817a24.606,24.606,0,0,1-.272,6.441s.809,7.944.608,8.81-1.209,4.609-.608,6.677.272,7.743.272,7.743.4,7.479.873,9.883a16.915,16.915,0,0,1-.136,5.475,45.041,45.041,0,0,1-.673,5.139c-.2,0-1.946,3.535,1.61,7.006s1.353,2.934,1.353,2.934-2.862-1.431-2.491,1.474c.315,2.727.759,2.018.8,1.939l-.673,2.2.472.064-.386.465a10.054,10.054,0,0,1-1.36,1.431,2.913,2.913,0,0,0-.873,1.932s-4.974,5.41-9.611,8.144a27.775,27.775,0,0,0-5.46,3.671c-.83.9-.716,1.632,1.023,2.2,3.628,1.2,10.019,1.8,14.585.265a17.059,17.059,0,0,0,7.157-4.6,10.129,10.129,0,0,1,5.725-.938c2.863.537,8.473-3.134,8.473-3.134l-.107-.945-.294-2.734a2.147,2.147,0,0,1-.472-1.66,8.576,8.576,0,0,0-.236-2.4c-.05-.265-.1-.529-.151-.773l.515-.1s-.666-3.4.544-4.072.866-9.411.866-9.411a10.551,10.551,0,0,0-2.347-2.333c-.809-.329-.072-4.48.072-5.01s1.209-10.885,1.209-10.885-.408-3.263.129-4.666-.672-6.813-.672-6.813a1.245,1.245,0,0,1,.336-1.467c.716-.8.472-7.944.472-7.944s-.064-3.578-.064-4.544a16.122,16.122,0,0,1,1.546-5.468c.744-1.131.265-4.673.265-4.673h0l.043-.265a.992.992,0,0,1,.057-.379l.057-.358a51.985,51.985,0,0,1,1.317-5.8c.873-2.8,1.882-7.736,1.882-7.736l6.248-16.3.072-.193s2.863,5.339,2.863,10.284a64.9,64.9,0,0,1,.544,7.543c-.172,1.6.465,9.139.465,9.139s.873,10.814.873,11.279,1.081,8.81,1.753,10.083-.673,5.138-1.081,5.539.136,10.213.136,10.213-1.009,7.743-1.209,9.346-1.009,7.743-.336,10.148.4,2.734.4,2.734,2.426,2.476,1.009,2.676a3.7,3.7,0,0,0-2.691,4.867,64.165,64.165,0,0,0,2.963,7.156l1.116-.236v.794l.079,3.979s.473,3.8.2,4.673c-.193.63-.465,3.621-.594,5.188-.05.573-.079.952-.079.952s0,3.536,7.464,2.469,8.8-4.008,8.8-4.008l.057-.365c.108-.673.351-2.1.551-2.906.265-1.066-2.147-5.876-2.147-5.876s-.4-3.27-1.074-4a3.583,3.583,0,0,1-.544-1.431c-.057-.272-.115-.551-.157-.823a4.875,4.875,0,0,1,.5.086s-.408-2.333,1.145-3.07a2.2,2.2,0,0,0,.938-2.934c-.2-.666.6-4.409.6-4.409a2.146,2.146,0,0,1,.537-2.147c.945-.938,1.682-7.479,1.682-7.479l.136-25.234s.472-4.473-.065-6.276-1.074-5.274-.336-6.212.064-5.267.064-5.267,0-9.146,1.009-11.45.673-16.625.673-16.625l.265-9.411s2.2-2.076,1.682-12.882c2.34-.15,5.01-.236,5.382.093.715.6,5.51,3.671,8.337,1.732a37.4,37.4,0,0,0,3.356-2.6l-1.188-20.038,1.188,1.854c0-2.8,7.937-11.88,7.937-11.88s7.393-9.547,9-10.677,4.773-7.157,4.773-7.157a29.035,29.035,0,0,1,1.617-3.335C1101.524,560.365,1099.1,557.159,1099.37,556.429Zm-17.34,7.006c-2.018.2-6.255,4.809-6.32,5.811a4.124,4.124,0,0,1-.894,1.789c0-.4-.065-.809-.1-1.224-.472-5.9-.988-13.089-.716-13.784.4-1.2.265-6.613.265-6.613h0l.079-.107c1.353,4.194,5.561,9.132,5.561,9.132s.716,2.147,1.618,2.2S1082.029,563.435,1082.029,563.435Z" transform="translate(6386.222 3707.537)"/>
      <path id="Path_2125" data-name="Path 2125" class="cls-4" d="M978.65,593.692s2.455-12.882,10.334-12.882l5.768,11.859-3.843,2.648S982.558,595.545,978.65,593.692Z" transform="translate(6381.823 3675.756)"/>
      <path id="Path_2126" data-name="Path 2126" class="cls-5" d="M994.752,592.624l-3.843,2.648a45.5,45.5,0,0,1-10.076-.845,11.589,11.589,0,0,1-2.183-.716l.043-.207v-.043a28.644,28.644,0,0,1,1.489-4.724c.244-.579.515-1.174.816-1.768a11.985,11.985,0,0,1,5.01-5.475,6.793,6.793,0,0,1,2.627-.716h.351l.129.265,1.947,4.008Z" transform="translate(6381.823 3675.764)"/>
      <path id="Path_2127" data-name="Path 2127" class="cls-4" d="M1090.213,657.333s8.28-.794,9.01-.193,5.432,3.643,8.208,1.718.931-8.588.931-8.874-.265-9.74-.265-9.74l-4.967-6.691-6.226-11.722-12.724-1.26.329,18.607-.065,9.54Z" transform="translate(6351.816 3664.45)"/>
      <path id="Path_2128" data-name="Path 2128" class="cls-5" d="M1090.213,657.333s8.28-.794,9.01-.193,5.432,3.643,8.208,1.718.931-8.588.931-8.874-.265-9.74-.265-9.74l-4.967-6.691-6.226-11.722-12.724-1.26.329,18.607-.065,9.54Z" transform="translate(6351.816 3664.45)"/>
      <path id="Path_2129" data-name="Path 2129" class="cls-6" d="M983.266,575.454s-.666,8.08-5.725,8.216c0,0-1.431-.859-3.349-2.3-4.423-3.314-11.451-9.676-9.5-15.594,2.784-8.481,16.3,7.156,16.3,7.156l1.045,1.167Z" transform="translate(6385.887 3680.746)"/>
      <path id="Path_2130" data-name="Path 2130" class="cls-5" d="M987,579.751s-.665,8.08-5.725,8.216c0,0-1.431-.859-3.349-2.3l-.429-.551a6.589,6.589,0,0,0,2.762.715,3.728,3.728,0,0,0,3.578-2.268,28.63,28.63,0,0,0,1.431-3.213,10.011,10.011,0,0,0,.508-1.982Z" transform="translate(6382.15 3676.45)"/>
      <path id="Path_2131" data-name="Path 2131" class="cls-7" d="M984.985,594.135l-1.131-1.431-3.815-4.909-1.939-2.512a6.535,6.535,0,0,0,2.755.716,3.707,3.707,0,0,0,3.578-2.268,28.077,28.077,0,0,0,1.4-3.206c.63-1.789.615-2.705.393-3.02a17.719,17.719,0,0,1,2.19,1.947h0l.365.343.136.272,2,3.865a1.043,1.043,0,0,1,0,.165C991.053,585.311,991.7,593.033,984.985,594.135Z" transform="translate(6381.979 3676.708)"/>
      <path id="Path_2132" data-name="Path 2132" class="cls-4" d="M1028.529,834.775s-5.568,3.65-8.352,3.113a10.018,10.018,0,0,0-5.632.931,16.721,16.721,0,0,1-7.021,4.573c-4.508,1.524-10.8.923-14.377-.265-1.689-.565-1.825-1.3-1.009-2.19a30.566,30.566,0,0,1,5.382-3.643c4.573-2.719,9.475-8.08,9.475-8.08a2.862,2.862,0,0,1,.859-1.925,9.849,9.849,0,0,0,1.338-1.431c.716-.837,1.381-1.718,1.381-1.718l16.4.616s.279,1.181.5,2.39a8.636,8.636,0,0,1,.229,2.383,2.147,2.147,0,0,0,.465,1.653l.293,2.705Z" transform="translate(6378.125 3606.567)"/>
      <path id="Path_2133" data-name="Path 2133" class="cls-4" d="M1084.395,839.884c-.193.794-.436,2.212-.544,2.863a1.215,1.215,0,0,1-.05.365s-1.324,2.913-8.681,3.972-7.35-2.447-7.35-2.447l.072-.952c.128-1.546.393-4.516.587-5.146a23.53,23.53,0,0,0-.193-4.637l-.078-3.951-.057-2.741,12.167-1.259a23.405,23.405,0,0,0,.394,2.712,3.483,3.483,0,0,0,.537,1.431c.658.716,1.059,3.972,1.059,3.972S1084.681,838.825,1084.395,839.884Z" transform="translate(6356.483 3606.052)"/>
      <path id="Path_2134" data-name="Path 2134" class="cls-5" d="M1033.911,824.787s.279,1.181.5,2.391c-1.768.322-9.5,1.66-11.451.715-2.19-1.059-6.892-1.653-6.892-1.653l.079-.272c.716-.837,1.381-1.717,1.381-1.717Z" transform="translate(6371.183 3606.535)"/>
      <path id="Path_2135" data-name="Path 2135" class="cls-5" d="M1080.841,828.692c-3.084-.522-9.862.716-12.524,1.288l-.057-2.741,12.166-1.259A23.565,23.565,0,0,0,1080.841,828.692Z" transform="translate(6356.342 3606.044)"/>
      <path id="Path_2136" data-name="Path 2136" class="cls-8" d="M1072.407,673.465l-.258,9.3s.329,14.242-.666,16.46-.995,11.329-.995,11.329.665,4.294-.064,5.231-.2,4.373.329,6.162.064,6.226.064,6.226l-.129,25.048s-.715,6.491-1.66,7.421a2.182,2.182,0,0,0-.53,2.147s-.794,3.707-.594,4.372a2.2,2.2,0,0,1-.923,2.913c-1.517.73-1.131,3.049-1.131,3.049-3.643-.866-13.977,1.431-13.977,1.431a63.412,63.412,0,0,1-2.92-7.092,3.672,3.672,0,0,1,2.656-4.838c1.388-.193-1-2.648-1-2.648s.265-.329-.4-2.719.136-8.481.336-10.069,1.188-9.3,1.188-9.3-.53-9.74-.129-10.134,1.718-4.244,1.059-5.5-1.725-9.54-1.725-10.019-.859-11.2-.859-11.2-.794-7.486-.594-9.074a58.413,58.413,0,0,0-.537-7.486c0-4.9-2.863-10.205-2.863-10.205l-.072.193-6.155,16.288s-.995,4.9-1.853,7.686a50.413,50.413,0,0,0-1.3,5.725l-.057.358-.057.372-.043.265h0s.458,3.507-.272,4.637a16.54,16.54,0,0,0-1.517,5.432c0,.93.064,4.509.064,4.509s.265,7.085-.465,7.872a1.238,1.238,0,0,0-.329,1.431s1.188,5.367.658,6.756-.129,4.637-.129,4.637-1.059,10.27-1.2,10.8-.859,4.638-.065,4.967a10.6,10.6,0,0,1,2.318,2.319s.33,8.681-.859,9.339-.537,4.043-.537,4.043-9.6,1.854-11.787.794-6.892-1.653-6.892-1.653l.658-2.147c-.043.079-.479.787-.787-1.925-.336-2.863,2.447-1.431,2.447-1.431s2.19.53-1.324-2.913-1.789-6.956-1.589-6.956a44.476,44.476,0,0,0,.658-5.1,16.871,16.871,0,0,0,.136-5.432c-.465-2.383-.859-9.8-.859-9.8s.329-5.632-.272-7.686.4-5.725.6-6.627-.6-8.745-.6-8.745a24.522,24.522,0,0,0,.272-6.441c-.4-2.719.394-12.724.394-12.724l1.2-11.522a23.812,23.812,0,0,0,.716-5.01c-.143-1.431.995-6.555.995-6.555a7.268,7.268,0,0,1,.529-3.185c.666-1.324.931-5.725.931-5.725l6.362-14.571,3.113-12.882,42.066-.4s.15,1.116.408,3.142.615,5.01,1.016,8.724c.365,3.364.766,7.321,1.159,11.723C1075.063,670.946,1072.407,673.465,1072.407,673.465Z" transform="translate(6371.668 3660.842)"/>
      <path id="Path_2137" data-name="Path 2137" class="cls-6" d="M1081.12,523.062l-9.8,10.484s-12.581-5.01-11.258-6.763c.508-.665.429-2.769.136-5.088-.465-3.671-1.431-7.872-1.431-7.872s21.992-3.578,20.132.129a6.1,6.1,0,0,0-.136,4.4A16.671,16.671,0,0,0,1081.12,523.062Z" transform="translate(6359.041 3695.245)"/>
      <path id="Path_2138" data-name="Path 2138" class="cls-5" d="M1078.873,513.9c-.672,1.36-.995,1.489-.573,2.949-2.863,3.084-6.534,6.441-11.086,6.441a15.685,15.685,0,0,1-7.013-1.646c-.465-3.671-1.431-7.872-1.431-7.872S1080.734,510.195,1078.873,513.9Z" transform="translate(6359.04 3695.259)"/>
      <path id="Path_2139" data-name="Path 2139" class="cls-6" d="M1080.079,498.82a15.769,15.769,0,0,1-31.539,0v-.229a15.766,15.766,0,1,1,31.532.229Z" transform="translate(6361.949 3703.585)"/>
      <path id="Path_2140" data-name="Path 2140" class="cls-5" d="M1078.177,647.019c-2.09,0-9.046.072-16.818.2h-.093l-2.569.043h-.079c-9.218.143-18.3-1.653-21.949-1.317-7.75.716,2.784-7.157,2.784-7.157a64.993,64.993,0,0,0,17.655,1.782l2.233-.114c7.042-.4,14.12-1.059,17.82-2.147C1077.418,640.342,1077.777,643.319,1078.177,647.019Z" transform="translate(6366.135 3659.406)"/>
      <path id="Path_2141" data-name="Path 2141" class="cls-9" d="M1078.177,646.462c-2.09,0-9.046.079-16.818.2h-.093l-2.569.043h-.079c-9.218.151-18.3-1.653-21.949-1.31-7.75.716,2.784-7.157,2.784-7.157a64.675,64.675,0,0,0,17.655,1.782l2.233-.114c7.042-.394,14.12-1.059,17.82-2.147C1077.418,639.785,1077.777,642.762,1078.177,646.462Z" transform="translate(6366.135 3659.563)"/>
      <path id="Path_2142" data-name="Path 2142" class="cls-5" d="M1056.077,532.53l-12.166,5.725-9.411,72.739s5.568-2.519,8.745-.93,12.982.136,12.982.136,7.157-.4,8.216.4,13.519-3.314,13.519-3.314,2.254-5.009.53-5.832.529-8.588.529-8.588l-1.059-52.472-2.147-6.756-5.725-3.449-5.825,4.637-2.784.4Z" transform="translate(6365.942 3690.149)"/>
      <path id="Path_2143" data-name="Path 2143" class="cls-7" d="M1056.068,531.423l-12.166,5.725-9.432,72.747s5.568-2.519,8.745-.93,12.982.136,12.982.136,7.157-.4,8.216.394,13.519-3.306,13.519-3.306,2.254-5.01.53-5.833.53-8.588.53-8.588l-1.059-52.472-2.147-6.756-5.725-3.449-5.825,4.637-2.784.4Z" transform="translate(6365.951 3690.462)"/>
      <path id="Path_2144" data-name="Path 2144" class="cls-5" d="M1060.594,536.658s3.514,4.172,3.449,5.01-.2,2.92-.2,2.92l-2.648,5.36s-1.432,6.691-1.432,8.087-2.319,13.447-2.319,13.447l-2.841,18.571-3.514,24.332,3.578,6.162,4.244-3.578,5.632-43.326,1.188-8.545s1.259-15.372,1.259-16.961a53.926,53.926,0,0,0-.716-5.761s.866-3.979,4.444-4.9-.272-.2-.272-.2l-2.047-1.653-1.789.716S1061.653,534.8,1060.594,536.658Z" transform="translate(6361.226 3688.605)"/>
      <path id="Path_2145" data-name="Path 2145" class="cls-10" d="M1060.067,536.083s3.506,4.172,3.442,5.01-.2,2.913-.2,2.913l-2.648,5.368s-1.431,6.691-1.431,8.08-2.319,13.447-2.319,13.447l-2.777,18.55-3.514,24.332,3.578,6.162,4.237-3.578,5.632-43.326,1.2-8.545s1.259-15.372,1.259-16.961a54.152,54.152,0,0,0-.716-5.768s.859-3.972,4.437-4.9-.265-.193-.265-.193l-2.054-1.66-1.789.716S1061.126,534.23,1060.067,536.083Z" transform="translate(6361.359 3688.779)"/>
      <path id="Path_2146" data-name="Path 2146" class="cls-5" d="M1059.525,526.79s-.53.4-.666,3.049-1.99,8.588-1.99,8.588,6.892-4.766,10.334-4.237Z" transform="translate(6359.581 3691.116)"/>
      <path id="Path_2147" data-name="Path 2147" class="cls-7" d="M1059.525,525.68s-.53.4-.666,3.049-1.99,8.588-1.99,8.588,6.892-4.766,10.334-4.237Z" transform="translate(6359.581 3691.432)"/>
      <path id="Path_2148" data-name="Path 2148" class="cls-5" d="M1082.553,523.83l-10.863,9.54s9.139,5.432,10.334,6.756,2.383-12.982,2.383-12.982Z" transform="translate(6355.368 3691.958)"/>
      <path id="Path_2149" data-name="Path 2149" class="cls-7" d="M1083.1,522.72l-10.864,9.54s9.146,5.432,10.334,6.756,2.383-12.982,2.383-12.982Z" transform="translate(6355.211 3692.273)"/>
      <path id="Path_2150" data-name="Path 2150" class="cls-5" d="M1048.593,526.751s-1.188-.594-2.319,1.131a7.48,7.48,0,0,1-3.242,2.512s-12.059,1.925-12.524,3.514l-5.632.329s-1.99.265-2.147,4.444-1.26,4.566-1.26,4.566-2.319,4.108-2.147,6.226a3.484,3.484,0,0,1-1.789,3.185l8.28,21.527s.265,8.881-1.259,12.123-4.373,17.627-4.373,17.627,1.2-.265,1.124.53-1.431,9.475-1.431,9.475a19.289,19.289,0,0,1-1.059,4.637c-.658,1.2-.715,7.414-.715,7.414l-1.059,4.509s2.512,5.632,6.355,4.838,10.792-15.837,10.792-15.837l4.437-16.231,3.45-16.031.995-10.864,1.589-24.053,2.319-15.895S1049.524,527.881,1048.593,526.751Z" transform="translate(6370.907 3691.155)"/>
      <path id="Path_2151" data-name="Path 2151" class="cls-4" d="M1048.041,525.641s-1.2-.594-2.319,1.131a7.525,7.525,0,0,1-3.249,2.512s-12.059,1.925-12.524,3.514l-5.625.329s-1.99.265-2.19,4.437-1.26,4.573-1.26,4.573-2.319,4.108-2.147,6.226a3.471,3.471,0,0,1-1.789,3.185l8.309,21.556s.265,8.881-1.26,12.123-4.373,17.627-4.373,17.627,1.2-.265,1.131.529-1.431,9.468-1.431,9.468a18.862,18.862,0,0,1-1.059,4.637c-.666,1.188-.715,7.421-.715,7.421l-1.059,4.509s2.519,5.632,6.362,4.831,10.8-15.83,10.8-15.83l4.437-16.231,3.442-16.031.952-10.906,1.589-24.053,2.318-15.895S1048.964,526.771,1048.041,525.641Z" transform="translate(6371.065 3691.471)"/>
      <path id="Path_2152" data-name="Path 2152" class="cls-5" d="M994.6,592.471l-3.843,2.648a45.51,45.51,0,0,1-10.076-.844l-2.147-.952-.43-.186.444.143a8.775,8.775,0,0,0,5.3.186c5.439-1.832,4.838-10.806,4.623-12.839a1.885,1.885,0,0,0-.043-.387h0v.05a3.542,3.542,0,0,0,.25.351l.243.258h0l1.989,3.822a1,1,0,0,1,0,.165Z" transform="translate(6381.979 3675.917)"/>
      <path id="Path_2153" data-name="Path 2153" class="cls-4" d="M1008.058,561.14l-1.854.53-.265,3.771a2.565,2.565,0,0,0-2.784,2.254,9.1,9.1,0,0,1-1.653,3.779s-3.643,3.049-3.843,5.632l-2.254,1.388s-5.231-1.2-6.441-3.313c0,0,2.39,17.09-10.334,12.882,0,0,14.242,6.226,14.907,7.092s5.01,3.378,9.01,1.26a9.45,9.45,0,0,0,4.838-5.367s3.843-5.367,3.972-6.162,3.113-1.725,3.113-1.725l5.725-13.776Z" transform="translate(6381.828 3681.349)"/>
      <path id="Path_2154" data-name="Path 2154" class="cls-5" d="M1084.219,531.465l1.918-8.745s.866,2.863,1.725,3.514l2.862,2.147a16.8,16.8,0,0,0,3.843,1.324c.98,0,6.362,1.431,7.021,2.147s3.314.2,3.314.2,2.182.716,4.107,1.2,2.863,3.643,2.448,4.9a3.828,3.828,0,0,0,.931,3.578c.794.794,1.195,3.378,1.195,3.378a3.879,3.879,0,0,1,2.247,1.918c.665,1.431.465,4.637.465,4.637l-9.869,13.912s.129,5.367-.265,6.562,1.388,21.47,1.388,21.47l2.054,34.846a36.207,36.207,0,0,1-3.313,2.583c-.594.265-1.188-12.324-1.188-12.782s-15.308-22.9-15.308-22.9-2.054-3.314-2.054-4.044-1.918-7.421-1.918-7.421l-2.913-12.882Z" transform="translate(6352.178 3692.273)"/>
      <path id="Path_2155" data-name="Path 2155" class="cls-4" d="M1117.417,550.912v.759l-9.862,13.9h0s.136,5.368-.265,6.563c-.229.716.272,7.822.716,13.676.337,4.223.644,7.786.644,7.786l.874,14.778,1.181,20.038a36.124,36.124,0,0,1-3.313,2.584c-.594.265-1.188-12.324-1.188-12.789s-15.308-22.9-15.308-22.9-2.054-3.313-2.054-4.044-1.918-7.421-1.918-7.421l-2.912-12.882,1.324-39.483,1.124-8.745a18.775,18.775,0,0,0,2.519,3.507l2.863,2.19a16.8,16.8,0,0,0,3.843,1.324c.98,0,6.362,1.431,7.021,2.147s3.313.2,3.313.2,2.19.716,4.108,1.2,2.863,3.643,2.448,4.9a3.837,3.837,0,0,0,.93,3.578c.794.794,1.2,3.378,1.2,3.378a3.881,3.881,0,0,1,2.247,1.918A10.723,10.723,0,0,1,1117.417,550.912Z" transform="translate(6351.866 3692.27)"/>
      <path id="Path_2156" data-name="Path 2156" class="cls-5" d="M1017.53,808.76c.329,0,14.242.53,13.977,2.784S1017.53,808.76,1017.53,808.76Z" transform="translate(6370.767 3610.94)"/>
      <path id="Path_2157" data-name="Path 2157" class="cls-5" d="M1021.88,814s9.34,1.524,6.892,2.913S1021.88,814,1021.88,814Z" transform="translate(6369.531 3609.45)"/>
      <path id="Path_2158" data-name="Path 2158" class="cls-5" d="M1070.39,806.73s15.5,1.324,13.182,3.042-7.815,1.99-8.08,2.054S1070.39,806.73,1070.39,806.73Z" transform="translate(6355.737 3611.517)"/>
      <path id="Path_2159" data-name="Path 2159" class="cls-5" d="M1067.8,816.26s8.588,1.431,8.874,3.113S1067.8,816.26,1067.8,816.26Z" transform="translate(6356.474 3608.807)"/>
      <path id="Path_2160" data-name="Path 2160" class="cls-5" d="M1074.46,760.53s7.872,1.853,8.352,3.113Z" transform="translate(6354.579 3624.654)"/>
      <path id="Path_2161" data-name="Path 2161" class="cls-5" d="M1031.259,768.49s-4.108,1.2-.129,3.578S1031.259,768.49,1031.259,768.49Z" transform="translate(6367.394 3622.39)"/>
      <path id="Path_2162" data-name="Path 2162" class="cls-5" d="M1057.43,678.9c.465,0,7.686-2.383,10.2-1.324a16.783,16.783,0,0,0,5.625,1.059Z" transform="translate(6359.422 3648.32)"/>
      <path id="Path_2163" data-name="Path 2163" class="cls-5" d="M1055,688.627l-.072.658-6.176,16.174s-.995,4.9-1.854,7.686a50.468,50.468,0,0,0-1.3,5.725l5.468-33.9Z" transform="translate(6362.786 3646.139)"/>
      <path id="Path_2164" data-name="Path 2164" class="cls-8" d="M1070.518,647.516l-2.569.043h-.079l-1.51-6.677,2.233-.122Z" transform="translate(6356.883 3658.71)"/>
      <path id="Path_2165" data-name="Path 2165" class="cls-6" d="M1105.244,636.372l-1.646,1.36-5.51,4.53s-14.9,7.951-19.008.4c-3.621-6.656,13.276-11.408,17.348-12.445l.866-.208Z" transform="translate(6353.411 3661.766)"/>
      <path id="Path_2166" data-name="Path 2166" class="cls-5" d="M1026.88,547.9s2.913,1.324,3.578,3.178S1026.88,547.9,1026.88,547.9Z" transform="translate(6368.108 3685.114)"/>
      <path id="Path_2167" data-name="Path 2167" class="cls-5" d="M1013.126,575.67s-4.237,5.167-2.519,7.157S1013.126,575.67,1013.126,575.67Z" transform="translate(6372.853 3677.218)"/>
      <path id="Path_2168" data-name="Path 2168" class="cls-5" d="M1118.558,552s-3.972.4-4.108,3.843Z" transform="translate(6343.21 3683.948)"/>
      <path id="Path_2169" data-name="Path 2169" class="cls-5" d="M1068.72,622.8c.4-.4,9.54-13.912,11.665-12.717Z" transform="translate(6356.213 3667.454)"/>
      <path id="Path_2170" data-name="Path 2170" class="cls-5" d="M1080.094,498.835a15.753,15.753,0,0,1-1.868,7.443h-.115c-1-.215-1.524-1.374-2.283-2.1a3.1,3.1,0,0,0-3.578-.5,3.635,3.635,0,0,0-1.76,3.4c-.5-2.147-.344-4.38-.838-6.505s-1.975-4.294-4.007-4.294c-.873,0-1.9.322-2.526-.336a6.271,6.271,0,0,1-.716-1.5c-1.431-2.354-5.869-1.166-7.672.043s-3.9,3.127-6.141,4.158a15.767,15.767,0,0,1,31.532.229Z" transform="translate(6361.936 3703.57)"/>
      <path id="Path_2171" data-name="Path 2171" class="cls-11" d="M1060.761,490.624a10.059,10.059,0,0,0,.715,1.5c.63.651,1.653.315,2.526.329,2.032.036,3.521,2.19,4.008,4.294s.336,4.38.844,6.5a3.578,3.578,0,0,1,1.754-3.392,3.113,3.113,0,0,1,3.578.494c.759.716,1.281,1.9,2.283,2.1s1.961-.751,2.319-1.8a27.7,27.7,0,0,0,.573-3.3c.451-2.061,1.8-3.757,2.548-5.725a10.384,10.384,0,0,0-.064-7.4c-.5-1.245-1.238-2.362-1.74-3.578-.766-1.882-.966-4.015-1.9-5.811a6.87,6.87,0,0,0-8.251-3.392c-1.431.544-2.691,1.589-4.151,2.061-1.961.63-4.051.158-6.076-.129s-4.294-.308-5.9,1.023c-1.875,1.539-2.39,4.423-4.151,6.1-.716.716-1.66,1.159-2.44,1.811a3.365,3.365,0,0,0-1.367,2.691c.122,1.374,1.432,2.619.966,3.893a3.017,3.017,0,0,1-.715.966,13.872,13.872,0,0,0-3.206,5.46c3.578,1.1,7.385-2.805,10.155-4.652C1054.893,489.464,1059.308,488.276,1060.761,490.624Z" transform="translate(6363.548 3706.95)"/>
      <path id="Path_2172" data-name="Path 2172" class="cls-5" d="M1112.234,636.372l-1.646,1.36c-1.431-2.426-7.428-7.264-7.428-7.264l.258-.251.865-.208Z" transform="translate(6346.42 3661.766)"/>
      <path id="Path_2173" data-name="Path 2173" class="cls-7" d="M1113.983,633.073s-.587,1.474-1.2,2.748-1.281,2.433-1.31,1.5c-.072-1.861-7.751-8.087-7.751-8.087l1.037-1.016,1.21-1.174Z" transform="translate(6346.26 3662.611)"/>
      <path id="Path_2174" data-name="Path 2174" class="cls-5" d="M1114.273,618.676l.873,14.778c-2.061-3.2-7.707-11.4-11.336-11.135l8.81-10.134a11.751,11.751,0,0,0,1.009-1.3C1113.965,615.112,1114.273,618.676,1114.273,618.676Z" transform="translate(6346.235 3667.202)"/>
      <path id="Path_2175" data-name="Path 2175" class="cls-5" d="M1114.395,633.073s-.587,1.474-1.2,2.748c-2.312-3.163-5.482-6.906-8.023-7.608l1.21-1.173Z" transform="translate(6345.848 3662.611)"/>
      <path id="Path_2176" data-name="Path 2176" class="cls-4" d="M1120.791,560.58l2.383,1.854s3.979.072,4.373,3.378,4.044,4.838,4.044,4.838,2.712,2.72,2.712,3.979,2.054,3.507,2.054,3.707,1.989,4.237,1.725,4.967,2.147,3.908,1.388,5.1a30.689,30.689,0,0,0-1.588,3.314s-3.113,5.961-4.7,7.085-8.874,10.606-8.874,10.606-7.822,9-7.822,11.787c0,0-7.615-12.717-12.123-12.388l8.81-10.134s1.524-1.66,1.6-2.648,4.237-5.568,6.226-5.768c0,0,.329-2.712-.529-2.784s-1.589-2.147-1.589-2.147-5.833-6.892-5.9-11.264S1120.791,560.58,1120.791,560.58Z" transform="translate(6346.079 3681.508)"/>
      <path id="Path_2177" data-name="Path 2177" class="cls-5" d="M1130.426,569.37s-5.568,4.108-4.373,5.439S1130.426,569.37,1130.426,569.37Z" transform="translate(6339.958 3679.009)"/>
      <path id="Path_2178" data-name="Path 2178" class="cls-5" d="M1132.6,592.485s10.334-3.313,11.393,0Z" transform="translate(6338.049 3672.855)"/>
      <path id="Path_2179" data-name="Path 2179" class="cls-5" d="M1028.529,838.628s-5.568,3.65-8.352,3.113a10.021,10.021,0,0,0-5.632.931,16.72,16.72,0,0,1-7.021,4.573c-4.508,1.524-10.8.923-14.377-.265-1.689-.565-1.825-1.3-1.009-2.19,3.886.773,12.581,2.312,14.922,1.2a62.128,62.128,0,0,0,7.421-4.637s5.725-.794,6.491-.794a70.892,70.892,0,0,0,7.45-2.863Z" transform="translate(6378.125 3602.714)"/>
      <path id="Path_2180" data-name="Path 2180" class="cls-5" d="M1083.881,849.45a1.212,1.212,0,0,1-.05.365s-1.324,2.913-8.681,3.972-7.35-2.447-7.35-2.447l.072-.952C1070.2,851.275,1075.279,852.255,1083.881,849.45Z" transform="translate(6356.474 3599.37)"/>
      <path id="Path_2181" data-name="Path 2181" class="cls-5" d="M1030.065,568.26s0,15.108-1.288,16.6S1030.065,568.26,1030.065,568.26Z" transform="translate(6367.673 3679.324)"/>
      <path id="Path_2182" data-name="Path 2182" class="cls-5" d="M1114.17,575.07l1.925,5.4S1116.854,575.17,1114.17,575.07Z" transform="translate(6343.289 3677.388)"/>
      <g id="Group_124" data-name="Group 124" class="cls-12" transform="translate(7406.504 4190.754)">
        <path id="Path_525" data-name="Path 525" d="M1048.254,492.643c.487-1.238-.788-2.462-.952-3.793a2.436,2.436,0,0,0-.215,1.2c.086,1.009.83,1.947,1.024,2.863A1.685,1.685,0,0,0,1048.254,492.643Z" transform="translate(-1044.139 -488.85)"/>
        <path id="Path_526" data-name="Path 526" d="M1069.07,508.58c-.472-2.09-.329-4.294-.816-6.391s-1.975-4.294-4.007-4.294c-.873,0-1.9.315-2.526-.336-.386-.394-.458-1.016-.716-1.5-1.432-2.347-5.869-1.152-7.679.05-2.706,1.8-6.441,5.568-9.9,4.709-.165.4-.322.809-.451,1.231,3.578,1.1,7.385-2.805,10.155-4.652,1.811-1.2,6.227-2.39,7.679-.043a10.058,10.058,0,0,0,.716,1.5c.63.651,1.653.315,2.526.329,2.032.036,3.521,2.19,4.007,4.294s.337,4.38.844,6.5A3.589,3.589,0,0,1,1069.07,508.58Z" transform="translate(-1042.97 -490.517)"/>
        <path id="Path_527" data-name="Path 527" d="M1089.41,510.162c-.358,1.052-1.3,2.018-2.326,1.8s-1.517-1.374-2.276-2.1a3.12,3.12,0,0,0-3.578-.5,3.621,3.621,0,0,0-1.76,3.213,3.455,3.455,0,0,1,1.56-1.918,3.113,3.113,0,0,1,3.578.494c.759.716,1.281,1.9,2.283,2.1s1.961-.751,2.318-1.8a8.445,8.445,0,0,0,.365-1.9A4.563,4.563,0,0,1,1089.41,510.162Z" transform="translate(-1053.348 -494.583)"/>
        <path id="Path_528" data-name="Path 528" d="M1096.631,497.414c-.716,1.961-2.1,3.657-2.548,5.725-.086.415-.143.844-.193,1.274.458-2.061,1.8-3.75,2.541-5.725a9.944,9.944,0,0,0,.608-2.748A10.025,10.025,0,0,1,1096.631,497.414Z" transform="translate(-1057.449 -490.866)"/>
      </g>
      <circle id="Ellipse_302" data-name="Ellipse 302" class="cls-13" cx="0.165" cy="0.165" r="0.165" transform="translate(7349.781 4244.943)"/>
      <rect id="Rectangle_384" data-name="Rectangle 384" class="cls-14" width="129.663" height="149.014" rx="6.61" transform="translate(7288.12 4248.801)"/>
      <rect id="Rectangle_385" data-name="Rectangle 385" class="cls-15" width="129.663" height="149.014" rx="6.61" transform="translate(7288.12 4248.801)"/>
      <rect id="Rectangle_386" data-name="Rectangle 386" class="cls-14" width="116.437" height="133.814" rx="6.61" transform="translate(7294.732 4256.402)"/>
      <rect id="Rectangle_387" data-name="Rectangle 387" class="cls-10" width="79.882" height="27.567" rx="6.03" transform="translate(7311.673 4283.238)"/>
      <rect id="Rectangle_388" data-name="Rectangle 388" class="cls-10" width="74.02" height="5.625" transform="translate(7314.607 4320.889)"/>
      <rect id="Rectangle_389" data-name="Rectangle 389" class="cls-10" width="101.852" height="5.625" transform="translate(7302.025 4332.762)"/>
      <rect id="Rectangle_390" data-name="Rectangle 390" class="cls-10" width="101.852" height="5.625" transform="translate(7302.025 4345.257)"/>
      <rect id="Rectangle_391" data-name="Rectangle 391" class="cls-10" width="101.852" height="5.625" transform="translate(7302.025 4357.752)"/>
    </g>
  </g>
</svg>
