<?xml version="1.0" encoding="UTF-8"?>
<svg width="145px" height="72px" viewBox="0 0 145 72" version="1.1" xmlns="http://www.w3.org/2000/svg" xmlns:xlink="http://www.w3.org/1999/xlink">
    <!-- Generator: Sketch 51.2 (57519) - http://www.bohemiancoding.com/sketch -->
    <title>Artboard 3 Copy</title>
    <desc>Created with Sketch.</desc>
    <defs></defs>
    <g id="Artboard-3-Copy" stroke="none" stroke-width="1" fill="none" fill-rule="evenodd">
        <g id="Group" transform="translate(5.000000, 9.000000)" fill="#FFFFFF">
            <polygon id="Path-2" fill-rule="nonzero" transform="translate(72.501365, 27.000497) rotate(20.000000) translate(-72.501365, -27.000497) " points="61.0652472 32.9708597 72.7909099 3.00049684 74.0599391 21.4943592 83.9374829 19.9914745 71.4369001 51.0004968 71.4369001 30.8882654"></polygon>
            <path d="M5.07284133,32 C3.47508804,32 2.23019061,31.6402814 1.33811169,30.9208333 C0.44603277,30.2013853 0,29.1870436 0,27.8777778 C0,27.4499979 0.0332860276,27.0675943 0.0998590814,26.7305556 C0.25963441,25.7972176 0.51260822,24.6435254 0.8587881,23.2694444 C1.28485564,21.5842508 2.06042009,20.2847268 3.1855047,19.3708333 C4.3105893,18.4569399 5.79181753,18 7.62923382,18 C8.68108806,18 9.60311103,18.1587947 10.3953304,18.4763889 C11.1875497,18.7939831 11.8000126,19.2412008 12.2327375,19.8180556 C12.6654623,20.3949103 12.8818215,21.0592555 12.8818215,21.8111111 C12.8818215,22.0314826 12.8618499,22.271295 12.821906,22.5305556 C12.7952768,22.6472228 12.7420192,22.7444441 12.6621315,22.8222222 C12.5822439,22.9000004 12.4823858,22.9388889 12.3625543,22.9388889 L10.4053163,22.9388889 C10.2322263,22.9388889 10.1057394,22.9032411 10.0258518,22.8319444 C9.9459641,22.7606478 9.90602087,22.6342602 9.90602087,22.4527778 C9.99922315,20.9879556 9.18038687,20.2555556 7.44948747,20.2555556 C6.51746472,20.2555556 5.73191447,20.5083308 5.09281315,21.0138889 C4.45371183,21.519447 4.00102186,22.3036984 3.73472964,23.3666667 C3.45512282,24.4296349 3.21546342,25.5185129 3.01574426,26.6333333 C2.9491712,27.0481502 2.91588518,27.3722211 2.91588518,27.6055556 C2.91588518,29.0314886 3.69477822,29.7444444 5.25258768,29.7444444 C6.06477894,29.7444444 6.76378551,29.5759276 7.34962839,29.2388889 C7.93547126,28.9018502 8.40813285,28.3379669 8.76762734,27.5472222 C8.86082962,27.3657398 8.9540305,27.2393522 9.04723277,27.1680556 C9.14043505,27.0967589 9.26692195,27.0611111 9.42669728,27.0611111 L11.3839353,27.0611111 C11.5037668,27.0611111 11.5969676,27.0999996 11.6635407,27.1777778 C11.7301138,27.2555559 11.7500854,27.3527772 11.7234562,27.4694444 C11.3639617,28.8305624 10.6216832,29.9259218 9.49659864,30.7555556 C8.37151403,31.5851893 6.89694301,32 5.07284133,32 Z M14.2560498,31.8055556 C14.1229037,31.8055556 14.0197171,31.7601856 13.9464867,31.6694444 C13.8732563,31.5787033 13.8499561,31.4685192 13.8765853,31.3388889 L16.6526678,18.6611111 C16.6659824,18.5314808 16.7292259,18.4212967 16.8424001,18.3305556 C16.9555742,18.2398144 17.0787325,18.1944444 17.2118787,18.1944444 L19.1092012,18.1944444 C19.2423473,18.1944444 19.3488626,18.2365737 19.4287503,18.3208333 C19.5086379,18.405093 19.5352667,18.5185178 19.5086375,18.6611111 L17.1319914,29.4722222 L23.4630571,29.4722222 C23.6095179,29.4722222 23.7160332,29.5175921 23.7826062,29.6083333 C23.8491793,29.6990745 23.8691509,29.8092586 23.8425217,29.9388889 L23.5429444,31.3388889 C23.5163152,31.4814822 23.4464145,31.594907 23.3332403,31.6791667 C23.2200661,31.7634263 23.0969078,31.8055556 22.9637617,31.8055556 L14.2560498,31.8055556 Z M26.3950872,31.8055556 C26.2486264,31.8055556 26.1387826,31.7601856 26.0655522,31.6694444 C25.9923218,31.5787033 25.9690216,31.4685192 25.9956508,31.3388889 L28.7917051,18.6611111 C28.8050197,18.5314808 28.8682632,18.4212967 28.9814374,18.3305556 C29.0946116,18.2398144 29.2177699,18.1944444 29.350916,18.1944444 L31.2881821,18.1944444 C31.4213283,18.1944444 31.5245149,18.2398144 31.5977453,18.3305556 C31.6709757,18.4212967 31.6942759,18.5314808 31.6676467,18.6611111 L28.8915642,31.3388889 C28.864935,31.4685192 28.7983629,31.5787033 28.691846,31.6694444 C28.5853291,31.7601856 28.4654994,31.8055556 28.3323533,31.8055556 L26.3950872,31.8055556 Z M38.1746318,32 C36.5768785,32 35.3319811,31.6402814 34.4399021,30.9208333 C33.5478232,30.2013853 33.1017905,29.1870436 33.1017905,27.8777778 C33.1017905,27.4499979 33.1350765,27.0675943 33.2016495,26.7305556 C33.3614249,25.7972176 33.6143987,24.6435254 33.9605786,23.2694444 C34.3866461,21.5842508 35.1622105,20.2847268 36.2872952,19.3708333 C37.4123798,18.4569399 38.893608,18 40.7310243,18 C41.7828785,18 42.7049015,18.1587947 43.4971208,18.4763889 C44.2893402,18.7939831 44.9018031,19.2412008 45.3345279,19.8180556 C45.7672528,20.3949103 45.983612,21.0592555 45.983612,21.8111111 C45.983612,22.0314826 45.9636403,22.271295 45.9236965,22.5305556 C45.8970673,22.6472228 45.8438096,22.7444441 45.763922,22.8222222 C45.6840343,22.9000004 45.5841762,22.9388889 45.4643447,22.9388889 L43.5071067,22.9388889 C43.3340168,22.9388889 43.2075299,22.9032411 43.1276422,22.8319444 C43.0477546,22.7606478 43.0078113,22.6342602 43.0078113,22.4527778 C43.1010136,20.9879556 42.2821773,20.2555556 40.5512779,20.2555556 C39.6192552,20.2555556 38.8337049,20.5083308 38.1946036,21.0138889 C37.5555023,21.519447 37.1028123,22.3036984 36.8365201,23.3666667 C36.5569133,24.4296349 36.3172539,25.5185129 36.1175347,26.6333333 C36.0509617,27.0481502 36.0176756,27.3722211 36.0176756,27.6055556 C36.0176756,29.0314886 36.7965687,29.7444444 38.3543781,29.7444444 C39.1665694,29.7444444 39.865576,29.5759276 40.4514188,29.2388889 C41.0372617,28.9018502 41.5099233,28.3379669 41.8694178,27.5472222 C41.9626201,27.3657398 42.055821,27.2393522 42.1490232,27.1680556 C42.2422255,27.0967589 42.3687124,27.0611111 42.5284877,27.0611111 L44.4857257,27.0611111 C44.6055572,27.0611111 44.6987581,27.0999996 44.7653312,27.1777778 C44.8319042,27.2555559 44.8518758,27.3527772 44.8252466,27.4694444 C44.4657521,28.8305624 43.7234737,29.9259218 42.5983891,30.7555556 C41.4733045,31.5851893 39.9987335,32 38.1746318,32 Z M47.3578403,31.8055556 C47.2246942,31.8055556 47.1215075,31.7601856 47.0482771,31.6694444 C46.9750468,31.5787033 46.9517466,31.4685192 46.9783758,31.3388889 L49.7344864,18.6805556 C49.7611157,18.5379623 49.8276877,18.4212967 49.9342046,18.3305556 C50.0407215,18.2398144 50.1605512,18.1944444 50.2936973,18.1944444 L52.1311044,18.1944444 C52.2775651,18.1944444 52.3840804,18.2398144 52.4506534,18.3305556 C52.5172265,18.4212967 52.5371981,18.5379623 52.5105689,18.6805556 L51.5519217,23.1138889 L56.7046503,18.5444444 C56.9043695,18.3111099 57.1839721,18.1944444 57.5434666,18.1944444 L59.6205355,18.1944444 C59.740367,18.1944444 59.8335679,18.2333329 59.9001409,18.3111111 C59.966714,18.3888893 60,18.4796291 60,18.5833333 C60,18.6870376 59.9600568,18.7777774 59.8801691,18.8555556 L53.2495261,24.8833333 L57.6632975,31.1444444 C57.7165559,31.2092596 57.7431848,31.2870366 57.7431848,31.3777778 C57.7431848,31.494445 57.6965843,31.594907 57.603382,31.6791667 C57.5101798,31.7634263 57.4036645,31.8055556 57.283833,31.8055556 L55.2866514,31.8055556 C54.9537861,31.8055556 54.7274411,31.6888901 54.6076096,31.4555556 L50.87288,26.2444444 L49.7544583,31.3388889 C49.727829,31.4814822 49.661257,31.594907 49.5547401,31.6791667 C49.4482232,31.7634263 49.3283935,31.8055556 49.1952474,31.8055556 L47.3578403,31.8055556 Z" id="CLICK"></path>
            <path d="M93.0653235,32 C91.5437167,32 90.3191086,31.6435221 89.3914624,30.9305556 C88.4638162,30.217589 88,29.1805624 88,27.8194444 C88,27.3916645 88.0333681,27.0092609 88.1001052,26.6722222 C88.3670538,25.2981413 88.6139775,24.189819 88.8408837,23.3472222 C89.2813488,21.5842504 90.0688353,20.2523193 91.2033666,19.3513889 C92.337898,18.4504585 93.8127666,18 95.6280168,18 C97.1496235,18 98.3742316,18.3629593 99.3018778,19.0888889 C100.229524,19.8148184 100.69334,20.8518451 100.69334,22.2 C100.69334,22.5500017 100.653299,22.9324053 100.573214,23.3472222 C100.399697,24.3713014 100.159447,25.4796237 99.8524565,26.6722222 C99.3986439,28.4611201 98.6078207,29.7962919 97.4799631,30.6777778 C96.3521054,31.5592637 94.8805736,32 93.0653235,32 Z M93.2455128,29.7444444 C94.1531379,29.7444444 94.9339507,29.4851878 95.5879747,28.9666667 C96.2419986,28.4481456 96.702478,27.6509313 96.9694265,26.575 C97.2497225,25.4083275 97.483299,24.358338 97.670163,23.425 C97.7369001,23.0101831 97.7702682,22.6731494 97.7702682,22.4138889 C97.7702682,20.9749928 97.0028026,20.2555556 95.4678484,20.2555556 C94.5468759,20.2555556 93.7593895,20.5148122 93.1053655,21.0333333 C92.4513416,21.5518544 91.9908622,22.3490687 91.7239137,23.425 C91.4302703,24.6046355 91.2033674,25.654625 91.0431983,26.575 C90.9764611,26.8990757 90.9430931,27.2490722 90.9430931,27.625 C90.9430931,28.3509296 91.1366279,28.8856464 91.5237033,29.2291667 C91.9107787,29.5726869 92.4847095,29.7444444 93.2455128,29.7444444 Z M102.511419,31.8055556 C102.377944,31.8055556 102.274503,31.7601856 102.201092,31.6694444 C102.127682,31.5787033 102.104324,31.4685192 102.131019,31.3388889 L104.893922,18.6805556 C104.920617,18.5379622 104.987353,18.4212967 105.094133,18.3305556 C105.200912,18.2398144 105.327711,18.1944444 105.474533,18.1944444 L107.016153,18.1944444 C107.283101,18.1944444 107.456615,18.3046285 107.5367,18.525 L111.400761,27.2361111 L113.282739,18.6805556 C113.309434,18.5379622 113.37617,18.4212967 113.482949,18.3305556 C113.589729,18.2398144 113.716527,18.1944444 113.863349,18.1944444 L115.585159,18.1944444 C115.73198,18.1944444 115.838758,18.2398144 115.905495,18.3305556 C115.972232,18.4212967 115.992253,18.5379622 115.965558,18.6805556 L113.202655,31.3194444 C113.17596,31.4620378 113.109224,31.5787033 113.002444,31.6694444 C112.895665,31.7601856 112.768866,31.8055556 112.622044,31.8055556 L111.080424,31.8055556 C110.920255,31.8055556 110.803467,31.7731485 110.730056,31.7083333 C110.656645,31.6435182 110.593246,31.5657412 110.539856,31.475 L106.675795,22.9583333 L104.833859,31.3388889 C104.807165,31.4814822 104.737092,31.594907 104.623638,31.6791667 C104.510185,31.7634263 104.386723,31.8055556 104.253249,31.8055556 L102.511419,31.8055556 Z M117.363195,31.8055556 C117.216373,31.8055556 117.106259,31.7601856 117.032848,31.6694444 C116.959437,31.5787033 116.936079,31.4685192 116.962774,31.3388889 L119.76572,18.6611111 C119.779067,18.5314808 119.842467,18.4212967 119.95592,18.3305556 C120.069373,18.2398144 120.192835,18.1944444 120.326309,18.1944444 L122.26835,18.1944444 C122.401824,18.1944444 122.505265,18.2398144 122.578676,18.3305556 C122.652087,18.4212967 122.675445,18.5314808 122.64875,18.6611111 L119.865825,31.3388889 C119.83913,31.4685192 119.772394,31.5787033 119.665615,31.6694444 C119.558835,31.7601856 119.43871,31.8055556 119.305236,31.8055556 L117.363195,31.8055556 Z M129.171773,32 C127.570082,32 126.322116,31.6402814 125.427838,30.9208333 C124.53356,30.2013853 124.086428,29.1870436 124.086428,27.8777778 C124.086428,27.4499979 124.119796,27.0675943 124.186534,26.7305556 C124.346703,25.7972176 124.6003,24.6435254 124.947333,23.2694444 C125.374451,21.5842508 126.151927,20.2847268 127.279784,19.3708333 C128.407642,18.4569399 129.892521,18 131.734466,18 C132.788913,18 133.713208,18.1587947 134.50738,18.4763889 C135.301552,18.7939831 135.915525,19.2412008 136.349316,19.8180556 C136.783108,20.3949103 137,21.0592555 137,21.8111111 C137,22.0314826 136.979979,22.271295 136.939937,22.5305556 C136.913242,22.6472228 136.859853,22.7444441 136.779769,22.8222222 C136.699684,22.9000004 136.59958,22.9388889 136.479453,22.9388889 L134.517391,22.9388889 C134.343874,22.9388889 134.217076,22.9032411 134.136991,22.8319444 C134.056907,22.7606478 134.016865,22.6342602 134.016865,22.4527778 C134.110297,20.9879556 133.289442,20.2555556 131.554277,20.2555556 C130.619957,20.2555556 129.83247,20.5083308 129.191794,21.0138889 C128.551117,21.519447 128.097312,22.3036984 127.830363,23.3666667 C127.550067,24.4296349 127.309817,25.5185129 127.109606,26.6333333 C127.042868,27.0481502 127.0095,27.3722211 127.0095,27.6055556 C127.0095,29.0314886 127.790313,29.7444444 129.351962,29.7444444 C130.166155,29.7444444 130.866885,29.5759276 131.454172,29.2388889 C132.041458,28.9018502 132.515285,28.3379669 132.875665,27.5472222 C132.969097,27.3657398 133.062528,27.2393522 133.15596,27.1680556 C133.249392,27.0967589 133.376191,27.0611111 133.53636,27.0611111 L135.498422,27.0611111 C135.618549,27.0611111 135.711979,27.0999996 135.778716,27.1777778 C135.845454,27.2555559 135.865474,27.3527772 135.83878,27.4694444 C135.478399,28.8305624 134.734291,29.9259218 133.606433,30.7555556 C132.478576,31.5851893 131.00037,32 129.171773,32 Z" id="ONIC"></path>
        </g>
    </g>
</svg>