<?xml version="1.0" encoding="UTF-8"?>
<svg width="145px" height="72px" viewBox="0 0 145 72" version="1.1" xmlns="http://www.w3.org/2000/svg" xmlns:xlink="http://www.w3.org/1999/xlink">
    <!-- Generator: Sketch 51.2 (57519) - http://www.bohemiancoding.com/sketch -->
    <title>Artboard 3</title>
    <desc>Created with Sketch.</desc>
    <defs>
        <linearGradient x1="19.9102539%" y1="14.441823%" x2="90.6694446%" y2="104.294896%" id="linearGradient-1">
            <stop stop-color="#4285F4" offset="0%"></stop>
            <stop stop-color="#6EDBF7" offset="100%"></stop>
        </linearGradient>
    </defs>
    <g id="Artboard-3" stroke="none" stroke-width="1" fill="none" fill-rule="evenodd">
        <g id="Group" transform="translate(4.000000, 9.000000)">
            <path d="M62.0653348,32.9703629 C61.0757682,31.3888595 71.6213273,3 73.7909975,3 C75.9606677,3 74.0863872,20.4278825 75.0600267,21.4938623 C76.0336662,22.5598422 83.901553,18.2154406 84.9375705,19.9909776 C85.973588,21.7665147 73.7909975,51 72.4369877,51 C71.0829779,51 73.4519865,31.9491451 72.4369877,30.8877685 C71.4219888,29.8263919 63.0549014,34.5518662 62.0653348,32.9703629 Z" id="Path-2" fill="url(#linearGradient-1)" fill-rule="nonzero" transform="translate(73.500000, 27.000000) rotate(20.000000) translate(-73.500000, -27.000000) "></path>
            <path d="M5.07284133,34 C3.47508804,34 2.23019061,33.6402814 1.33811169,32.9208333 C0.44603277,32.2013853 0,31.1870436 0,29.8777778 C0,29.4499979 0.0332860276,29.0675943 0.0998590814,28.7305556 C0.25963441,27.7972176 0.51260822,26.6435254 0.8587881,25.2694444 C1.28485564,23.5842508 2.06042009,22.2847268 3.1855047,21.3708333 C4.3105893,20.4569399 5.79181753,20 7.62923382,20 C8.68108806,20 9.60311103,20.1587947 10.3953304,20.4763889 C11.1875497,20.7939831 11.8000126,21.2412008 12.2327375,21.8180556 C12.6654623,22.3949103 12.8818215,23.0592555 12.8818215,23.8111111 C12.8818215,24.0314826 12.8618499,24.271295 12.821906,24.5305556 C12.7952768,24.6472228 12.7420192,24.7444441 12.6621315,24.8222222 C12.5822439,24.9000004 12.4823858,24.9388889 12.3625543,24.9388889 L10.4053163,24.9388889 C10.2322263,24.9388889 10.1057394,24.9032411 10.0258518,24.8319444 C9.9459641,24.7606478 9.90602087,24.6342602 9.90602087,24.4527778 C9.99922315,22.9879556 9.18038687,22.2555556 7.44948747,22.2555556 C6.51746472,22.2555556 5.73191447,22.5083308 5.09281315,23.0138889 C4.45371183,23.519447 4.00102186,24.3036984 3.73472964,25.3666667 C3.45512282,26.4296349 3.21546342,27.5185129 3.01574426,28.6333333 C2.9491712,29.0481502 2.91588518,29.3722211 2.91588518,29.6055556 C2.91588518,31.0314886 3.69477822,31.7444444 5.25258768,31.7444444 C6.06477894,31.7444444 6.76378551,31.5759276 7.34962839,31.2388889 C7.93547126,30.9018502 8.40813285,30.3379669 8.76762734,29.5472222 C8.86082962,29.3657398 8.9540305,29.2393522 9.04723277,29.1680556 C9.14043505,29.0967589 9.26692195,29.0611111 9.42669728,29.0611111 L11.3839353,29.0611111 C11.5037668,29.0611111 11.5969676,29.0999996 11.6635407,29.1777778 C11.7301138,29.2555559 11.7500854,29.3527772 11.7234562,29.4694444 C11.3639617,30.8305624 10.6216832,31.9259218 9.49659864,32.7555556 C8.37151403,33.5851893 6.89694301,34 5.07284133,34 Z M14.2560498,33.8055556 C14.1229037,33.8055556 14.0197171,33.7601856 13.9464867,33.6694444 C13.8732563,33.5787033 13.8499561,33.4685192 13.8765853,33.3388889 L16.6526678,20.6611111 C16.6659824,20.5314808 16.7292259,20.4212967 16.8424001,20.3305556 C16.9555742,20.2398144 17.0787325,20.1944444 17.2118787,20.1944444 L19.1092012,20.1944444 C19.2423473,20.1944444 19.3488626,20.2365737 19.4287503,20.3208333 C19.5086379,20.405093 19.5352667,20.5185178 19.5086375,20.6611111 L17.1319914,31.4722222 L23.4630571,31.4722222 C23.6095179,31.4722222 23.7160332,31.5175921 23.7826062,31.6083333 C23.8491793,31.6990745 23.8691509,31.8092586 23.8425217,31.9388889 L23.5429444,33.3388889 C23.5163152,33.4814822 23.4464145,33.594907 23.3332403,33.6791667 C23.2200661,33.7634263 23.0969078,33.8055556 22.9637617,33.8055556 L14.2560498,33.8055556 Z M26.3950872,33.8055556 C26.2486264,33.8055556 26.1387826,33.7601856 26.0655522,33.6694444 C25.9923218,33.5787033 25.9690216,33.4685192 25.9956508,33.3388889 L28.7917051,20.6611111 C28.8050197,20.5314808 28.8682632,20.4212967 28.9814374,20.3305556 C29.0946116,20.2398144 29.2177699,20.1944444 29.350916,20.1944444 L31.2881821,20.1944444 C31.4213283,20.1944444 31.5245149,20.2398144 31.5977453,20.3305556 C31.6709757,20.4212967 31.6942759,20.5314808 31.6676467,20.6611111 L28.8915642,33.3388889 C28.864935,33.4685192 28.7983629,33.5787033 28.691846,33.6694444 C28.5853291,33.7601856 28.4654994,33.8055556 28.3323533,33.8055556 L26.3950872,33.8055556 Z M38.1746318,34 C36.5768785,34 35.3319811,33.6402814 34.4399021,32.9208333 C33.5478232,32.2013853 33.1017905,31.1870436 33.1017905,29.8777778 C33.1017905,29.4499979 33.1350765,29.0675943 33.2016495,28.7305556 C33.3614249,27.7972176 33.6143987,26.6435254 33.9605786,25.2694444 C34.3866461,23.5842508 35.1622105,22.2847268 36.2872952,21.3708333 C37.4123798,20.4569399 38.893608,20 40.7310243,20 C41.7828785,20 42.7049015,20.1587947 43.4971208,20.4763889 C44.2893402,20.7939831 44.9018031,21.2412008 45.3345279,21.8180556 C45.7672528,22.3949103 45.983612,23.0592555 45.983612,23.8111111 C45.983612,24.0314826 45.9636403,24.271295 45.9236965,24.5305556 C45.8970673,24.6472228 45.8438096,24.7444441 45.763922,24.8222222 C45.6840343,24.9000004 45.5841762,24.9388889 45.4643447,24.9388889 L43.5071067,24.9388889 C43.3340168,24.9388889 43.2075299,24.9032411 43.1276422,24.8319444 C43.0477546,24.7606478 43.0078113,24.6342602 43.0078113,24.4527778 C43.1010136,22.9879556 42.2821773,22.2555556 40.5512779,22.2555556 C39.6192552,22.2555556 38.8337049,22.5083308 38.1946036,23.0138889 C37.5555023,23.519447 37.1028123,24.3036984 36.8365201,25.3666667 C36.5569133,26.4296349 36.3172539,27.5185129 36.1175347,28.6333333 C36.0509617,29.0481502 36.0176756,29.3722211 36.0176756,29.6055556 C36.0176756,31.0314886 36.7965687,31.7444444 38.3543781,31.7444444 C39.1665694,31.7444444 39.865576,31.5759276 40.4514188,31.2388889 C41.0372617,30.9018502 41.5099233,30.3379669 41.8694178,29.5472222 C41.9626201,29.3657398 42.055821,29.2393522 42.1490232,29.1680556 C42.2422255,29.0967589 42.3687124,29.0611111 42.5284877,29.0611111 L44.4857257,29.0611111 C44.6055572,29.0611111 44.6987581,29.0999996 44.7653312,29.1777778 C44.8319042,29.2555559 44.8518758,29.3527772 44.8252466,29.4694444 C44.4657521,30.8305624 43.7234737,31.9259218 42.5983891,32.7555556 C41.4733045,33.5851893 39.9987335,34 38.1746318,34 Z M47.3578403,33.8055556 C47.2246942,33.8055556 47.1215075,33.7601856 47.0482771,33.6694444 C46.9750468,33.5787033 46.9517466,33.4685192 46.9783758,33.3388889 L49.7344864,20.6805556 C49.7611157,20.5379623 49.8276877,20.4212967 49.9342046,20.3305556 C50.0407215,20.2398144 50.1605512,20.1944444 50.2936973,20.1944444 L52.1311044,20.1944444 C52.2775651,20.1944444 52.3840804,20.2398144 52.4506534,20.3305556 C52.5172265,20.4212967 52.5371981,20.5379623 52.5105689,20.6805556 L51.5519217,25.1138889 L56.7046503,20.5444444 C56.9043695,20.3111099 57.1839721,20.1944444 57.5434666,20.1944444 L59.6205355,20.1944444 C59.740367,20.1944444 59.8335679,20.2333329 59.9001409,20.3111111 C59.966714,20.3888893 60,20.4796291 60,20.5833333 C60,20.6870376 59.9600568,20.7777774 59.8801691,20.8555556 L53.2495261,26.8833333 L57.6632975,33.1444444 C57.7165559,33.2092596 57.7431848,33.2870366 57.7431848,33.3777778 C57.7431848,33.494445 57.6965843,33.594907 57.603382,33.6791667 C57.5101798,33.7634263 57.4036645,33.8055556 57.283833,33.8055556 L55.2866514,33.8055556 C54.9537861,33.8055556 54.7274411,33.6888901 54.6076096,33.4555556 L50.87288,28.2444444 L49.7544583,33.3388889 C49.727829,33.4814822 49.661257,33.594907 49.5547401,33.6791667 C49.4482232,33.7634263 49.3283935,33.8055556 49.1952474,33.8055556 L47.3578403,33.8055556 Z" id="CLICK" fill-opacity="0.752009737" fill="#000000"></path>
            <path d="M94.0653235,32 C92.5437167,32 91.3191086,31.6435221 90.3914624,30.9305556 C89.4638162,30.217589 89,29.1805624 89,27.8194444 C89,27.3916645 89.0333681,27.0092609 89.1001052,26.6722222 C89.3670538,25.2981413 89.6139775,24.189819 89.8408837,23.3472222 C90.2813488,21.5842504 91.0688353,20.2523193 92.2033666,19.3513889 C93.337898,18.4504585 94.8127666,18 96.6280168,18 C98.1496235,18 99.3742316,18.3629593 100.301878,19.0888889 C101.229524,19.8148184 101.69334,20.8518451 101.69334,22.2 C101.69334,22.5500017 101.653299,22.9324053 101.573214,23.3472222 C101.399697,24.3713014 101.159447,25.4796237 100.852456,26.6722222 C100.398644,28.4611201 99.6078207,29.7962919 98.4799631,30.6777778 C97.3521054,31.5592637 95.8805736,32 94.0653235,32 Z M94.2455128,29.7444444 C95.1531379,29.7444444 95.9339507,29.4851878 96.5879747,28.9666667 C97.2419986,28.4481456 97.702478,27.6509313 97.9694265,26.575 C98.2497225,25.4083275 98.483299,24.358338 98.670163,23.425 C98.7369001,23.0101831 98.7702682,22.6731494 98.7702682,22.4138889 C98.7702682,20.9749928 98.0028026,20.2555556 96.4678484,20.2555556 C95.5468759,20.2555556 94.7593895,20.5148122 94.1053655,21.0333333 C93.4513416,21.5518544 92.9908622,22.3490687 92.7239137,23.425 C92.4302703,24.6046355 92.2033674,25.654625 92.0431983,26.575 C91.9764611,26.8990757 91.9430931,27.2490722 91.9430931,27.625 C91.9430931,28.3509296 92.1366279,28.8856464 92.5237033,29.2291667 C92.9107787,29.5726869 93.4847095,29.7444444 94.2455128,29.7444444 Z M103.511419,31.8055556 C103.377944,31.8055556 103.274503,31.7601856 103.201092,31.6694444 C103.127682,31.5787033 103.104324,31.4685192 103.131019,31.3388889 L105.893922,18.6805556 C105.920617,18.5379622 105.987353,18.4212967 106.094133,18.3305556 C106.200912,18.2398144 106.327711,18.1944444 106.474533,18.1944444 L108.016153,18.1944444 C108.283101,18.1944444 108.456615,18.3046285 108.5367,18.525 L112.400761,27.2361111 L114.282739,18.6805556 C114.309434,18.5379622 114.37617,18.4212967 114.482949,18.3305556 C114.589729,18.2398144 114.716527,18.1944444 114.863349,18.1944444 L116.585159,18.1944444 C116.73198,18.1944444 116.838758,18.2398144 116.905495,18.3305556 C116.972232,18.4212967 116.992253,18.5379622 116.965558,18.6805556 L114.202655,31.3194444 C114.17596,31.4620378 114.109224,31.5787033 114.002444,31.6694444 C113.895665,31.7601856 113.768866,31.8055556 113.622044,31.8055556 L112.080424,31.8055556 C111.920255,31.8055556 111.803467,31.7731485 111.730056,31.7083333 C111.656645,31.6435182 111.593246,31.5657412 111.539856,31.475 L107.675795,22.9583333 L105.833859,31.3388889 C105.807165,31.4814822 105.737092,31.594907 105.623638,31.6791667 C105.510185,31.7634263 105.386723,31.8055556 105.253249,31.8055556 L103.511419,31.8055556 Z M118.363195,31.8055556 C118.216373,31.8055556 118.106259,31.7601856 118.032848,31.6694444 C117.959437,31.5787033 117.936079,31.4685192 117.962774,31.3388889 L120.76572,18.6611111 C120.779067,18.5314808 120.842467,18.4212967 120.95592,18.3305556 C121.069373,18.2398144 121.192835,18.1944444 121.326309,18.1944444 L123.26835,18.1944444 C123.401824,18.1944444 123.505265,18.2398144 123.578676,18.3305556 C123.652087,18.4212967 123.675445,18.5314808 123.64875,18.6611111 L120.865825,31.3388889 C120.83913,31.4685192 120.772394,31.5787033 120.665615,31.6694444 C120.558835,31.7601856 120.43871,31.8055556 120.305236,31.8055556 L118.363195,31.8055556 Z M130.171773,32 C128.570082,32 127.322116,31.6402814 126.427838,30.9208333 C125.53356,30.2013853 125.086428,29.1870436 125.086428,27.8777778 C125.086428,27.4499979 125.119796,27.0675943 125.186534,26.7305556 C125.346703,25.7972176 125.6003,24.6435254 125.947333,23.2694444 C126.374451,21.5842508 127.151927,20.2847268 128.279784,19.3708333 C129.407642,18.4569399 130.892521,18 132.734466,18 C133.788913,18 134.713208,18.1587947 135.50738,18.4763889 C136.301552,18.7939831 136.915525,19.2412008 137.349316,19.8180556 C137.783108,20.3949103 138,21.0592555 138,21.8111111 C138,22.0314826 137.979979,22.271295 137.939937,22.5305556 C137.913242,22.6472228 137.859853,22.7444441 137.779769,22.8222222 C137.699684,22.9000004 137.59958,22.9388889 137.479453,22.9388889 L135.517391,22.9388889 C135.343874,22.9388889 135.217076,22.9032411 135.136991,22.8319444 C135.056907,22.7606478 135.016865,22.6342602 135.016865,22.4527778 C135.110297,20.9879556 134.289442,20.2555556 132.554277,20.2555556 C131.619957,20.2555556 130.83247,20.5083308 130.191794,21.0138889 C129.551117,21.519447 129.097312,22.3036984 128.830363,23.3666667 C128.550067,24.4296349 128.309817,25.5185129 128.109606,26.6333333 C128.042868,27.0481502 128.0095,27.3722211 128.0095,27.6055556 C128.0095,29.0314886 128.790313,29.7444444 130.351962,29.7444444 C131.166155,29.7444444 131.866885,29.5759276 132.454172,29.2388889 C133.041458,28.9018502 133.515285,28.3379669 133.875665,27.5472222 C133.969097,27.3657398 134.062528,27.2393522 134.15596,27.1680556 C134.249392,27.0967589 134.376191,27.0611111 134.53636,27.0611111 L136.498422,27.0611111 C136.618549,27.0611111 136.711979,27.0999996 136.778716,27.1777778 C136.845454,27.2555559 136.865474,27.3527772 136.83878,27.4694444 C136.478399,28.8305624 135.734291,29.9259218 134.606433,30.7555556 C133.478576,31.5851893 132.00037,32 130.171773,32 Z" id="ONIC" fill-opacity="0.752009737" fill="#000000"></path>
        </g>
    </g>
</svg>