<?xml version="1.0" encoding="UTF-8"?>
<svg width="346px" height="132px" viewBox="0 0 346 132" version="1.1" xmlns="http://www.w3.org/2000/svg" xmlns:xlink="http://www.w3.org/1999/xlink">
    <!-- Generator: Sketch 52.5 (67469) - http://www.bohemiancoding.com/sketch -->
    <title>Artboard</title>
    <desc>Created with Sketch.</desc>
    <g id="Artboard" stroke="none" stroke-width="1" fill="none" fill-rule="evenodd">
        <path d="M169.15954,118.051296 L213.882915,68.6959169 C214.62461,67.8774046 214.562337,66.6126067 213.743825,65.8709118 C213.375966,65.5375765 212.897287,65.3529595 212.400868,65.3529595 L193.680463,65.3529595 L202.528067,14.2160807 C202.71638,13.1276818 201.986716,12.0927026 200.898317,11.90439 C200.24689,11.7916813 199.581854,12.0081681 199.121607,12.4827559 L151.13888,61.9606049 C150.369904,62.753542 150.389328,64.019723 151.182265,64.7886992 C151.555421,65.1505792 152.05481,65.3529595 152.57462,65.3529595 L172.895745,65.3529595 L165.697065,116.429218 C165.542911,117.522977 166.304611,118.534612 167.398371,118.688766 C168.054795,118.781282 168.714409,118.542529 169.15954,118.051296 Z" id="Path-Copy" fill="#00B7FF" fill-rule="nonzero" transform="translate(182.448724, 65.352959) rotate(16.000000) translate(-182.448724, -65.352959) "></path>
        <text id="CLICK" font-family="Rubik-Medium, Rubik" font-size="48" font-weight="400" fill="#1F1F1F">
            <tspan x="13" y="78">CLICK</tspan>
        </text>
        <text id="ONIC" font-family="Rubik-Medium, Rubik" font-size="48" font-weight="400" fill="#1F1F1F">
            <tspan x="215" y="78">ONIC</tspan>
        </text>
    </g>
</svg>