<svg xmlns="http://www.w3.org/2000/svg" xmlns:xlink="http://www.w3.org/1999/xlink" viewBox="0 0 353 347">
  <defs>
    <style>
      .cls-1 {
        clip-path: url(#clip-Artboard_3);
      }

      .cls-10, .cls-2, .cls-9 {
        fill: #4285f4;
      }

      .cls-19, .cls-2, .cls-4 {
        opacity: 0.1;
      }

      .cls-3 {
        fill: #c8cad7;
      }

      .cls-5 {
        fill: #474157;
      }

      .cls-6 {
        fill: #4c4c78;
      }

      .cls-7 {
        fill: #fff;
      }

      .cls-8 {
        fill: #ededf4;
      }

      .cls-10, .cls-11, .cls-20 {
        opacity: 0.5;
      }

      .cls-11, .cls-21 {
        fill: #dce0ed;
      }

      .cls-12 {
        fill: url(#linear-gradient);
      }

      .cls-13 {
        fill: #65617d;
      }

      .cls-14 {
        fill: #a27772;
      }

      .cls-15 {
        fill: #fbbebe;
      }

      .cls-16 {
        fill: #ff748e;
      }

      .cls-17 {
        opacity: 0.05;
      }

      .cls-18 {
        fill: #7c5c5c;
      }

      .cls-22 {
        fill: #ffd037;
      }

      .cls-23 {
        fill: #a8a8a8;
      }

      .cls-24 {
        opacity: 0.2;
      }

      .cls-25 {
        fill: url(#linear-gradient-2);
      }

      .cls-26 {
        fill: url(#linear-gradient-3);
      }

      .cls-27 {
        fill: #efb7b9;
      }

      .cls-28 {
        fill: #444053;
      }

      .cls-29 {
        fill: #b07473;
      }

      .cls-30 {
        fill: #e1e7ef;
      }

      .cls-31 {
        fill: #67647e;
      }

      .cls-32 {
        fill: #585268;
      }

      .cls-33 {
        opacity: 0.03;
      }
    </style>
    <linearGradient id="linear-gradient" x1="0.5" y1="1" x2="0.5" gradientUnits="objectBoundingBox">
      <stop offset="0" stop-color="gray" stop-opacity="0.251"/>
      <stop offset="0.54" stop-color="gray" stop-opacity="0.122"/>
      <stop offset="1" stop-color="gray" stop-opacity="0.102"/>
    </linearGradient>
    <linearGradient id="linear-gradient-2" x1="0.5" y1="1.228" x2="0.5" y2="0.201" xlink:href="#linear-gradient"/>
    <linearGradient id="linear-gradient-3" x1="0.5" y1="1" x2="0.5" y2="0" xlink:href="#linear-gradient"/>
    <clipPath id="clip-Artboard_3">
      <rect width="353" height="347"/>
    </clipPath>
  </defs>
  <g id="Artboard_3" data-name="Artboard – 3" class="cls-1">
    <rect class="cls-7" width="353" height="347"/>
    <g id="Group_164" data-name="Group 164" transform="translate(-857 -3158)">
      <g id="undraw_dashboard_nklg" transform="translate(866 3203)">
        <path id="Path_578" data-name="Path 578" class="cls-2" d="M426.5,74.584a68.545,68.545,0,0,0-13.29-17.9L228.853,55.148,380.641,37.126a100.024,100.024,0,0,0-30.8-5.164C335.232,21.986,316.451,16,295.966,16a96.823,96.823,0,0,0-49.233,13.024,98.87,98.87,0,0,0-39.462-8.037c-40.962,0-75.093,23.984-82.751,55.791Z" transform="translate(-97.981 -16)"/>
        <path id="Path_579" data-name="Path 579" class="cls-2" d="M370,243.845a58.4,58.4,0,0,0-5.745-25.175L44.742,247.024a62.12,62.12,0,0,0-7.486,15.982L136.2,275.475,35,284.564C38.045,320.572,74.557,349,119.159,349c22.451,0,42.85-7.2,57.967-18.953,15.164,11.971,35.759,19.332,58.453,19.332,33.669,0,62.731-16.207,76.264-39.64,27.15-7.287,48.24-25.579,55.459-48.462L242.175,244.874H370Z" transform="translate(-35 -158.586)"/>
        <ellipse id="Ellipse_82" data-name="Ellipse 82" class="cls-2" cx="85.968" cy="3.836" rx="85.968" ry="3.836" transform="translate(62.257 249.667)"/>
        <path id="Path_580" data-name="Path 580" class="cls-3" d="M544.4,750.618v2.318H475.84v-1.883a22.531,22.531,0,0,0,1.551-41.614h66.541a22.531,22.531,0,0,0,.465,41.178Z" transform="translate(-345.148 -503.863)"/>
        <path id="Path_581" data-name="Path 581" class="cls-4" d="M547.618,709.44a22.564,22.564,0,0,0-12.451,14.939H493.531A22.569,22.569,0,0,0,481.08,709.44Z" transform="translate(-348.835 -503.863)"/>
        <path id="Path_582" data-name="Path 582" class="cls-3" d="M211,669.6v13.015c0,7.186,5.259,13.012,11.749,13.012H424.466c6.49,0,11.749-5.826,11.749-13.012V669.6Z" transform="translate(-158.823 -475.834)"/>
        <path id="Path_583" data-name="Path 583" class="cls-4" d="M544.4,842.691v2.318H475.84v-1.883a22.533,22.533,0,0,0,5.286-2.816h59.067A22.637,22.637,0,0,0,544.4,842.691Z" transform="translate(-345.148 -595.935)"/>
        <rect id="Rectangle_110" data-name="Rectangle 110" class="cls-3" width="113.867" height="6.869" rx="3.434" transform="translate(108.036 245.098)"/>
        <path id="Path_584" data-name="Path 584" class="cls-5" d="M436.215,160.731A11.746,11.746,0,0,0,424.466,149H222.758A11.746,11.746,0,0,0,211,160.731V305.869H436.215Z" transform="translate(-158.823 -109.571)"/>
        <path id="Path_585" data-name="Path 585" class="cls-6" d="M444.69,192.524V317.236a5.781,5.781,0,0,1-5.784,5.784H237.544a5.781,5.781,0,0,1-5.784-5.784V192.524a5.784,5.784,0,0,1,5.784-5.784H438.891a5.784,5.784,0,0,1,5.8,5.784Z" transform="translate(-173.428 -136.122)"/>
        <circle id="Ellipse_83" data-name="Ellipse 83" class="cls-7" cx="2.713" cy="2.713" r="2.713" transform="translate(162.075 42.302)"/>
        <circle id="Ellipse_84" data-name="Ellipse 84" class="cls-7" cx="6.688" cy="6.688" r="6.688" transform="translate(158.099 200.635)"/>
        <path id="Path_586" data-name="Path 586" class="cls-7" d="M276.754,196.5V329.886h-39.21a5.781,5.781,0,0,1-5.784-5.784V199.39l.21-.786.563-2.1Z" transform="translate(-173.428 -142.989)"/>
        <path id="Path_587" data-name="Path 587" class="cls-6" d="M246.785,187.65v12.007H196.76V188.436l.21-.786Z" transform="translate(-138.428 -132.034)"/>
        <path id="Path_588" data-name="Path 588" class="cls-3" d="M444.69,192.531H231.76a5.781,5.781,0,0,1,5.784-5.781H438.891a5.781,5.781,0,0,1,5.8,5.781Z" transform="translate(-173.428 -136.129)"/>
        <circle id="Ellipse_85" data-name="Ellipse 85" class="cls-8" cx="1.447" cy="1.447" r="1.447" transform="translate(62.669 52.064)"/>
        <circle id="Ellipse_86" data-name="Ellipse 86" class="cls-8" cx="1.447" cy="1.447" r="1.447" transform="translate(67.006 52.064)"/>
        <circle id="Ellipse_87" data-name="Ellipse 87" class="cls-8" cx="1.447" cy="1.447" r="1.447" transform="translate(71.343 52.064)"/>
        <rect id="Rectangle_111" data-name="Rectangle 111" class="cls-9" width="30.04" height="2.766" transform="translate(65.808 60.902)"/>
        <rect id="Rectangle_112" data-name="Rectangle 112" class="cls-10" width="30.04" height="2.766" transform="translate(65.808 74.391)"/>
        <rect id="Rectangle_113" data-name="Rectangle 113" class="cls-10" width="30.04" height="2.766" transform="translate(65.808 83.928)"/>
        <rect id="Rectangle_114" data-name="Rectangle 114" class="cls-10" width="30.04" height="2.766" transform="translate(65.808 93.465)"/>
        <rect id="Rectangle_115" data-name="Rectangle 115" class="cls-10" width="30.04" height="2.766" transform="translate(65.808 102.999)"/>
        <rect id="Rectangle_116" data-name="Rectangle 116" class="cls-10" width="30.04" height="2.766" transform="translate(65.808 112.536)"/>
        <rect id="Rectangle_117" data-name="Rectangle 117" class="cls-10" width="30.04" height="2.766" transform="translate(65.808 122.073)"/>
        <rect id="Rectangle_118" data-name="Rectangle 118" class="cls-10" width="30.04" height="2.766" transform="translate(65.808 131.608)"/>
        <rect id="Rectangle_119" data-name="Rectangle 119" class="cls-11" width="133.114" height="0.445" transform="translate(127.92 71.073)"/>
        <rect id="Rectangle_120" data-name="Rectangle 120" class="cls-11" width="133.114" height="0.445" transform="translate(127.92 81.399)"/>
        <rect id="Rectangle_121" data-name="Rectangle 121" class="cls-11" width="133.114" height="0.445" transform="translate(127.92 91.728)"/>
        <rect id="Rectangle_122" data-name="Rectangle 122" class="cls-11" width="133.114" height="0.445" transform="translate(127.92 102.053)"/>
        <rect id="Rectangle_123" data-name="Rectangle 123" class="cls-11" width="133.114" height="0.445" transform="translate(127.92 112.379)"/>
        <path id="Path_589" data-name="Path 589" class="cls-10" d="M564.22,296.474H430.94V276.166l12.223,6.024,12.65,1.714,11.1-3.347L480.3,270.172l6.736-3.89,4.924-.949,4.711.252,7.75,3.827,10.53,6.709,8.265,1.064,6.555-2.259,13.889-11.378,7.091-2.529,7.42,1.147,6.045,3.489Z" transform="translate(-303.183 -183.653)"/>
        <path id="Path_590" data-name="Path 590" class="cls-9" d="M489.171,299.706c-12,0-23.094-7.34-23.231-7.435l.329-.492c.172.116,17.242,11.411,31.748,5.751,5.295-2.06,9.054-5.271,12.706-8.372,3.8-3.24,7.4-6.3,12.291-7.631a18.388,18.388,0,0,1,16.418,3.688c3.984,3.276,11.924,8.538,20.31,6.964,4.275-.8,7.88-3.925,11.7-7.231,7.3-6.344,14.882-12.893,27.953-3.489l-.347.48c-12.7-9.128-20.088-2.73-27.227,3.457-3.878,3.362-7.542,6.522-11.974,7.367-8.627,1.616-16.732-3.747-20.8-7.088a17.8,17.8,0,0,0-15.884-3.572c-4.77,1.293-8.3,4.311-12.063,7.506-3.679,3.134-7.486,6.377-12.866,8.476A24.869,24.869,0,0,1,489.171,299.706Z" transform="translate(-338.183 -199.449)"/>
        <circle id="Ellipse_88" data-name="Ellipse 88" class="cls-9" cx="3.3" cy="3.3" r="3.3" transform="translate(188.673 78.322)"/>
        <path id="Path_591" data-name="Path 591" class="cls-12" d="M306.752,476.352a52.371,52.371,0,0,0-6.226-3.243l-.092-.065a3.753,3.753,0,0,1-1.138-1.438v-.267a6.813,6.813,0,0,1,1.977-3.715q1.186-1.4,2.372-2.79a2.724,2.724,0,0,0,.611-.99,2.226,2.226,0,0,0,.065-.593v-.243c0-.694-.033-1.387-.056-2.075-.024-.608-.178-1.37-.786-1.482-.314-.065-.729.047-.889-.222a.5.5,0,0,1-.042-.359v.027a.171.171,0,0,1,0-.033,8.2,8.2,0,0,0,.225-1.426,2.045,2.045,0,0,0-.1-.72c-.353-1.005-1.559-1.417-2.627-1.607a4.617,4.617,0,0,1-2.935-1.186,9.7,9.7,0,0,0-.593-.8,2.336,2.336,0,0,0-1.094-.54,6.143,6.143,0,0,0-3.967.347,3.572,3.572,0,0,1-1.6.507c-.566-.033-1.091-.445-1.672-.543a2.388,2.388,0,0,0-2.3,1.346,3.262,3.262,0,0,0-.424,1.586v.092h0a2.33,2.33,0,0,0,.611,1.619c.4.421,1,.709,1.186,1.26.068.225.053.468.113.694a.319.319,0,0,0,.027.086l-.033.039a7.047,7.047,0,0,0-1.482,4.334,7.192,7.192,0,0,0,5.04,6.819v.214a3.065,3.065,0,0,1-.978,2.386l-6.4,2.567s-3.854-.457-5.241,5.173a9.536,9.536,0,0,0-.237,2.855,8.383,8.383,0,0,1-1.055,4.278c-1.58,3.1-1.221,10.2,2.01,10.9,3.051.664,4.245.388,4.37.356v.124c-.05,1.334-.534,12.825-2.292,14.23-.489.382-.4.643,0,.818v.208c-.053.842-.326,4.041-1.5,5.864-1.352,2.1-1.2,14.257-1.2,14.257l-.931,7.171s.572,4.429,0,5.2c-.513.691-1.186,17.079-1.34,20.631h-.059a1.729,1.729,0,0,0-1.382.842,24.448,24.448,0,0,1-3.4,3.489c-.572.815-2.695,1.6-3.815,1.963a2.454,2.454,0,0,0-.433.187,2.277,2.277,0,0,0-.964,1.014,1.085,1.085,0,0,0-.1.845c.3.7,6.246,1.186,7.752.492,1.186-.551,5.882-1.281,7.832-1.565a1.607,1.607,0,0,0,1.393-1.393.92.92,0,0,0-.178-.7h0a6.3,6.3,0,0,1-.652-2.549,1.737,1.737,0,0,0,.439-.261,18.7,18.7,0,0,1,1.076-7.524c1.435-3.795,1.868-10.827,1.509-15.4,0,0,4.379-18.846,7.827-20.6h0c.053.065,1.725,2.212,1.939,8.858a26.863,26.863,0,0,0,2.653,11.18s-1.076,11.461,0,15.751l-1.414,6.756a2.218,2.218,0,0,1-.169-.154s.041.19.1.489l-.03.142.059.015a13.071,13.071,0,0,1,.3,3.184c-.056.495-.193,1.168-.3,1.832-.148,1.041-.19,2.052.359,2.271.889.362,6.175.857,7.073-.3a1.663,1.663,0,0,0,.261-1.737,1.782,1.782,0,0,0-.261-.442s-1.4-2.292-1.005-3.907a1.186,1.186,0,0,0-.169-.925,47.751,47.751,0,0,1,1.23-7.586c.889-3.383,2.793-10.8,1.4-15.68h0c-.053-.19-.113-.38-.178-.563a21.049,21.049,0,0,1-.791-8.227,16.722,16.722,0,0,1,0-7.171c.854-3.934,1.456-7.788,1.456-7.788a49.4,49.4,0,0,0,.059-8.393l-.027-.2.225-.05s-1.218-5.413-1.651-8.858c-.1-.815-.234-1.844-.379-2.944a7.777,7.777,0,0,0,1.171-.3c3.878-1.337,5.1-13.433,5.1-13.433v-3.836S311.276,478.964,306.752,476.352Zm-28.884,93.385-.19-.1h0Z" transform="translate(-197.471 -323.026)"/>
        <path id="Path_592" data-name="Path 592" class="cls-13" d="M329.21,687.037c1.681,4.835-.3,12.683-1.186,16.187a49.122,49.122,0,0,0-1.186,7.708,16.306,16.306,0,0,1-6.166-.142l1.482-7.216c-1.049-4.275,0-15.7,0-15.7a27.434,27.434,0,0,1-2.591-11.144c-.207-6.62-1.838-8.76-1.891-8.829h0c-3.389,1.761-7.652,20.536-7.652,20.536.35,4.554-.071,11.562-1.482,15.348a18.988,18.988,0,0,0-1.052,7.5,2.313,2.313,0,0,1-1.906.365,13.061,13.061,0,0,1-4.4-2.049s.771-20.456,1.331-21.232,0-5.185,0-5.185l.91-7.148s-.139-12.122,1.186-14.23c1.15-1.817,1.414-5.007,1.467-5.843v-.208l2.028-2.428s19.623-1.482,21.093,0a4.14,4.14,0,0,1,.717,2.217,50.423,50.423,0,0,1-.059,8.363s-.593,3.854-1.429,7.776a17.019,17.019,0,0,0,0,7.148,21.347,21.347,0,0,0,.786,8.206Z" transform="translate(-222.268 -463.921)"/>
        <path id="Path_593" data-name="Path 593" class="cls-14" d="M374.051,851.666c-.875,1.156-6.024.667-6.9.3-.537-.222-.5-1.227-.35-2.265.092-.661.225-1.334.279-1.823a16.7,16.7,0,0,0-.418-3.821s1.156,1.227,1.435,0a1.334,1.334,0,0,1,1-.949,2.62,2.62,0,0,1,1.82.113c.91.394,2.428,1.236,2.155,2.372-.385,1.61.981,3.893.981,3.893a1.754,1.754,0,0,1,.255.442A1.681,1.681,0,0,1,374.051,851.666Z" transform="translate(-268.336 -597.821)"/>
        <path id="Path_594" data-name="Path 594" class="cls-4" d="M374.157,867.579c-.875,1.156-6.024.667-6.9.3-.537-.222-.5-1.227-.35-2.265a5.94,5.94,0,0,0,3.059.329,8.542,8.542,0,0,1,1.1-.036,25.217,25.217,0,0,0,3.344-.065A1.681,1.681,0,0,1,374.157,867.579Z" transform="translate(-268.442 -613.734)"/>
        <path id="Path_595" data-name="Path 595" class="cls-4" d="M320.461,721.4c.35,4.554-.071,11.562-1.482,15.348a18.989,18.989,0,0,0-1.052,7.5,2.313,2.313,0,0,1-1.906.365c.424-2.965,2.223-15.692,3.38-25.751a42.106,42.106,0,0,1,7.462-19.341l1.227,1.349C324.724,702.627,320.461,721.4,320.461,721.4Z" transform="translate(-232.709 -496.883)"/>
        <path id="Path_596" data-name="Path 596" class="cls-15" d="M350.608,504.948l-.857,4.2-4.189,7.044-5.167-2.209s-7.026-7.358-2.612-8.408a3.892,3.892,0,0,0,1.467-.652,3.041,3.041,0,0,0,1.144-2.535,7.793,7.793,0,0,0-.717-3.015l9.039-2.837a14.385,14.385,0,0,0-.649,3.661c-.068,2.461.845,3.676,1.595,4.254A2.685,2.685,0,0,0,350.608,504.948Z" transform="translate(-246.995 -354.079)"/>
        <path id="Path_597" data-name="Path 597" class="cls-4" d="M356.669,496.54a14.388,14.388,0,0,0-.649,3.661,7.145,7.145,0,0,1-7.672,2.191,7.794,7.794,0,0,0-.717-3.015Z" transform="translate(-254.948 -354.079)"/>
        <path id="Path_598" data-name="Path 598" class="cls-15" d="M347.685,475.678a7.13,7.13,0,1,1-2.088-5.059A7.148,7.148,0,0,1,347.685,475.678Z" transform="translate(-244.929 -334.373)"/>
        <path id="Path_599" data-name="Path 599" class="cls-4" d="M350.608,523.732l-.857,4.2-4.189,7.044-5.167-2.209s-7.026-7.358-2.612-8.408a3.9,3.9,0,0,0,1.467-.652c-.8,2.191,2.493,6.747,2.493,6.747.382.563,1.263.21,1.263.21,2.117-.32,6.021-6.415,6.656-7.429A2.688,2.688,0,0,0,350.608,523.732Z" transform="translate(-246.995 -372.864)"/>
        <path id="Path_600" data-name="Path 600" class="cls-4" d="M341.557,655.592c-1.245.3-8.129,1.805-10.738,1.426-2.873-.421-8.461-.7-8.461-.7s-3.558.19-4.649-.3v-.207l2.028-2.428s19.623-1.482,21.093,0A3.919,3.919,0,0,1,341.557,655.592Z" transform="translate(-233.898 -463.963)"/>
        <path id="Path_601" data-name="Path 601" class="cls-16" d="M317.073,530.8s-3.7-5.12-2.3-7.115l-6.246,2.561s-3.759-.457-5.114,5.153a9.781,9.781,0,0,0-.234,2.849,8.476,8.476,0,0,1-1.029,4.26c-1.542,3.083-1.186,10.163,1.963,10.862s4.275.35,4.275.35-.421,12.825-2.241,14.3,4.646,1.121,4.646,1.121,5.585.3,8.458.7,10.93-1.482,10.93-1.482-1.186-5.4-1.613-8.828-1.4-10.744-1.4-10.744l7.148-9.682s1.26-5.852-3.154-8.443a50.636,50.636,0,0,0-6.078-3.231s-4.447,7.225-6.747,7.575C318.333,531.011,317.455,531.366,317.073,530.8Z" transform="translate(-222.324 -372.997)"/>
        <path id="Path_602" data-name="Path 602" class="cls-4" d="M324.119,555.16a10.5,10.5,0,0,0,.353,3.223c.421.91,1.96,5.956,1.96,5.956h-3.5s1.891-2.031,1.752-3.012S324.119,555.16,324.119,555.16Z" transform="translate(-237.57 -395.321)"/>
        <path id="Path_603" data-name="Path 603" class="cls-15" d="M335.428,590.692s-7.738-1.891-8.458-3.5-2.71-5.221-2.71-5.221l.815-1.1,3.765,2.965s4.485,3.558,6.587,3.925S335.428,590.692,335.428,590.692Z" transform="translate(-238.506 -413.409)"/>
        <path id="Path_604" data-name="Path 604" class="cls-17" d="M335.428,590.692s-7.738-1.891-8.458-3.5-2.71-5.221-2.71-5.221l.815-1.1,3.765,2.965s4.485,3.558,6.587,3.925S335.428,590.692,335.428,590.692Z" transform="translate(-238.506 -413.409)"/>
        <path id="Path_605" data-name="Path 605" class="cls-15" d="M351.321,583.185v4.2h-.676a19.636,19.636,0,0,0-9.528,2.466l-1.263.7-.341.19-2.173-4.892,2.034-1.823h.1a12.255,12.255,0,0,0,3.558-.08,5.774,5.774,0,0,1,4.488-.575c1.257.32,2.327,1.728,3.557,1.29Z" transform="translate(-247.708 -415.006)"/>
        <path id="Path_606" data-name="Path 606" class="cls-4" d="M371.1,546.207l1.4,1.577V551.6s-1.186,12.054-4.975,13.385-10.539-.771-10.539-.771-1.746-4.625-.931-4.906,7.216-1.968,7.216-1.968-.092-7.071,1.31-9.173c0,0-.91-6.587,2.241-6.727S371.1,546.207,371.1,546.207Z" transform="translate(-260.723 -385.668)"/>
        <path id="Path_607" data-name="Path 607" class="cls-16" d="M371.788,546.207l1.4,1.577V551.6s-1.186,12.054-4.978,13.385-10.536-.771-10.536-.771-1.746-4.625-.931-4.906,7.213-1.968,7.213-1.968-.089-7.071,1.313-9.173c0,0-.913-6.587,2.241-6.727S371.788,546.207,371.788,546.207Z" transform="translate(-261.208 -385.668)"/>
        <path id="Path_608" data-name="Path 608" class="cls-4" d="M349.2,478.688a2.761,2.761,0,0,0-.16-1.364,1.046,1.046,0,0,0-1.109-.64c-.593.139-.86.919-1.447,1.106a1.148,1.148,0,0,1-1.275-.655,3.349,3.349,0,0,1-.243-1.524v-1.758a2.9,2.9,0,0,0-.415-1.826,3.241,3.241,0,0,0-2.4-.869,2.037,2.037,0,0,0-1.373.551,1.778,1.778,0,0,1-1.444.516,1.248,1.248,0,0,1-1.005-.872.07.07,0,0,1,0-.024,7.148,7.148,0,1,1,10.631,9.487A19.818,19.818,0,0,0,349.2,478.688Z" transform="translate(-248.402 -334.347)"/>
        <path id="Path_609" data-name="Path 609" class="cls-18" d="M334.927,461.693a1.257,1.257,0,0,1-1.008-.872c-.056-.225-.042-.468-.11-.691-.163-.551-.75-.839-1.144-1.257a2.818,2.818,0,0,1-.181-3.223,2.328,2.328,0,0,1,2.244-1.34c.566.1,1.055.5,1.63.539a3.308,3.308,0,0,0,1.562-.5,5.881,5.881,0,0,1,3.872-.344,2.239,2.239,0,0,1,1.067.537,9.029,9.029,0,0,1,.569.8,4.447,4.447,0,0,0,2.864,1.186c1.041.19,2.22.593,2.561,1.6a4.208,4.208,0,0,1-.121,2.075.592.592,0,0,0,.027.43c.163.27.569.157.889.219.593.125.741.889.762,1.482q.042,1.032.056,2.075a2.67,2.67,0,0,1-.059.768,2.721,2.721,0,0,1-.593.963l-2.315,2.781c-1.026,1.233-2.114,2.668-1.909,4.26a.988.988,0,0,1-1.221-.712,3.141,3.141,0,0,1,.077-1.577,19.378,19.378,0,0,0,.365-2.736,2.769,2.769,0,0,0-.16-1.367,1.049,1.049,0,0,0-1.112-.64c-.593.139-.857.919-1.444,1.106a1.145,1.145,0,0,1-1.275-.655,3.389,3.389,0,0,1-.243-1.524V463.32a2.9,2.9,0,0,0-.415-1.826,3.237,3.237,0,0,0-2.4-.869,2.037,2.037,0,0,0-1.373.551A1.779,1.779,0,0,1,334.927,461.693Z" transform="translate(-244 -324.025)"/>
        <path id="Path_610" data-name="Path 610" class="cls-4" d="M347.15,554.57l2.2,9.012S351.075,563.574,347.15,554.57Z" transform="translate(-254.61 -394.906)"/>
        <path id="Path_611" data-name="Path 611" class="cls-4" d="M367.674,549.48s-2.876,4.708-1.752,9.573l.534.038S365.5,556.838,367.674,549.48Z" transform="translate(-267.634 -391.324)"/>
        <path id="Path_612" data-name="Path 612" class="cls-4" d="M378.59,638.716s3.528-1.168,3.786,1.542C382.376,640.257,381.709,638.4,378.59,638.716Z" transform="translate(-276.729 -453.929)"/>
        <path id="Path_613" data-name="Path 613" class="cls-4" d="M329.9,586.83s-.7,4.907.56,6.869a15.4,15.4,0,0,1-6.166.839l-.421-7.708Z" transform="translate(-238.232 -417.602)"/>
        <path id="Path_614" data-name="Path 614" class="cls-4" d="M339.854,592.645l-.341.19-2.173-4.892,2.034-1.823h.1C339.445,586.357,338.879,590.57,339.854,592.645Z" transform="translate(-247.708 -417.102)"/>
        <path id="Path_615" data-name="Path 615" class="cls-16" d="M325.078,586.12s-.7,4.906.56,6.869a15.4,15.4,0,0,1-6.166.839l-2.452-7.708Z" transform="translate(-233.412 -417.102)"/>
        <path id="Path_616" data-name="Path 616" class="cls-14" d="M284.324,848.319a1.583,1.583,0,0,1-1.361,1.387c-1.9.3-6.487,1.008-7.643,1.559-1.482.7-7.287.211-7.569-.489a1.112,1.112,0,0,1,.1-.845,2.309,2.309,0,0,1,1.361-1.186c1.1-.368,3.166-1.141,3.724-1.954a23.836,23.836,0,0,0,3.314-3.478,1.678,1.678,0,0,1,1.349-.839c.614-.03,1.3.282,1.577,1.625,0,0,3.362,1.918,4.272.237,0,0,.139,2.582.7,3.291h0A.928.928,0,0,1,284.324,848.319Z" transform="translate(-198.721 -597.457)"/>
        <path id="Path_617" data-name="Path 617" class="cls-4" d="M284.324,860.53a1.583,1.583,0,0,1-1.361,1.387c-1.9.3-6.487,1.008-7.643,1.559-1.482.7-7.287.211-7.569-.489a1.112,1.112,0,0,1,.1-.845,2.245,2.245,0,0,1,.94-1.008c.949.628,3.054,1.245,7.684.522a33.982,33.982,0,0,0,7.669-1.826h0A.928.928,0,0,1,284.324,860.53Z" transform="translate(-198.721 -609.668)"/>
        <g id="Group_42" data-name="Group 42" class="cls-19" transform="translate(88.066 133.117)">
          <path id="Path_618" data-name="Path 618" d="M388.2,471.815a.15.15,0,0,0,0-.036,6.4,6.4,0,0,0,.216-1.589,10.084,10.084,0,0,1-.216,1.275A.777.777,0,0,0,388.2,471.815Z" transform="translate(-371.545 -468.657)"/>
          <path id="Path_619" data-name="Path 619" d="M344.63,474.735a2.074,2.074,0,0,1,.172.8,2.4,2.4,0,0,0-.172-1.115,1.052,1.052,0,0,0-1.112-.643c-.593.139-.857.922-1.444,1.109a1.15,1.15,0,0,1-1.275-.658,3.311,3.311,0,0,1-.243-1.524v-1.755a2.9,2.9,0,0,0-.415-1.826,3.246,3.246,0,0,0-2.4-.872,2.025,2.025,0,0,0-1.37.554,1.779,1.779,0,0,1-1.444.513,1.242,1.242,0,0,1-1.008-.872c-.059-.225-.042-.465-.11-.691-.163-.551-.75-.836-1.144-1.254a2.306,2.306,0,0,1-.593-1.482,2.4,2.4,0,0,0,.593,1.8c.394.418.981.706,1.144,1.257.068.222.05.465.11.691a1.254,1.254,0,0,0,1.008.872,1.779,1.779,0,0,0,1.444-.516,2.054,2.054,0,0,1,1.367-.548,3.234,3.234,0,0,1,2.4.872,2.91,2.91,0,0,1,.415,1.826v1.755a3.319,3.319,0,0,0,.243,1.527,1.149,1.149,0,0,0,1.275.655c.593-.187.845-.966,1.444-1.109a1.059,1.059,0,0,1,1.115.637Z" transform="translate(-332.06 -465.02)"/>
          <path id="Path_620" data-name="Path 620" d="M382.4,490.2a2.756,2.756,0,0,1-.593.966q-1.162,1.387-2.315,2.778c-.972,1.171-2,2.526-1.93,4.02a6.848,6.848,0,0,1,1.93-3.7l2.315-2.781a2.743,2.743,0,0,0,.593-.964,2.667,2.667,0,0,0,.059-.771A1.917,1.917,0,0,1,382.4,490.2Z" transform="translate(-364.069 -482.419)"/>
          <path id="Path_621" data-name="Path 621" d="M373.326,515a1.658,1.658,0,0,1-.071-.377,1.88,1.88,0,0,0,.071.691.987.987,0,0,0,1.221.712c0-.1-.021-.208-.024-.3A1,1,0,0,1,373.326,515Z" transform="translate(-361.037 -499.916)"/>
        </g>
        <path id="Path_622" data-name="Path 622" class="cls-4" d="M295,847.42s.732,1.287,3.389.151" transform="translate(-217.92 -600.937)"/>
        <path id="Path_623" data-name="Path 623" class="cls-4" d="M370.65,848.46s2.292,2.695,5.176.889" transform="translate(-271.143 -601.669)"/>
        <path id="Path_624" data-name="Path 624" class="cls-4" d="M389.157,740.94s-1.619,1.011-1.672,1.589.836-.421.836-.421Z" transform="translate(-282.985 -526.024)"/>
        <path id="Path_625" data-name="Path 625" class="cls-4" d="M388.39,767.08a3.359,3.359,0,0,1-1.992.777c-1.21.054-1.109,1.631-.317,1.156A19.893,19.893,0,0,0,388.39,767.08Z" transform="translate(-281.581 -544.415)"/>
        <path id="Path_626" data-name="Path 626" class="cls-4" d="M392.978,770.49s-.777,3.812-1.408,3.077" transform="translate(-285.861 -546.814)"/>
        <g id="Group_43" data-name="Group 43" class="cls-20" transform="translate(139.683 135.957)">
          <rect id="Rectangle_124" data-name="Rectangle 124" class="cls-21" width="19.566" height="4.15"/>
          <rect id="Rectangle_125" data-name="Rectangle 125" class="cls-21" width="19.566" height="4.15" transform="translate(44.929)"/>
          <rect id="Rectangle_126" data-name="Rectangle 126" class="cls-21" width="19.566" height="4.15" transform="translate(89.857)"/>
        </g>
        <ellipse id="Ellipse_89" data-name="Ellipse 89" class="cls-2" cx="7.984" cy="1.349" rx="7.984" ry="1.349" transform="translate(274.463 236.187)"/>
        <ellipse id="Ellipse_90" data-name="Ellipse 90" class="cls-2" cx="7.984" cy="1.349" rx="7.984" ry="1.349" transform="translate(26.174 253.219)"/>
        <path id="Path_628" data-name="Path 628" class="cls-9" d="M140.81,807.19s1.631,2.132-.75,5.336-4.343,5.929-3.558,7.936c0,0,3.593-5.974,6.522-6.057S144.027,810.783,140.81,807.19Z" transform="translate(-106.287 -572.634)"/>
        <path id="Path_629" data-name="Path 629" class="cls-4" d="M141.038,807.19a2.67,2.67,0,0,1,.335.67c2.852,3.35,4.37,6.478,1.628,6.555-2.553.074-5.615,4.64-6.35,5.793a2.73,2.73,0,0,0,.086.264s3.593-5.974,6.522-6.057S144.254,810.783,141.038,807.19Z" transform="translate(-106.515 -572.634)"/>
        <path id="Path_630" data-name="Path 630" class="cls-22" d="M160.774,815.2c0,.75-.083,1.358-.187,1.358s-.187-.593-.187-1.358.1-.4.208-.4S160.774,814.448,160.774,815.2Z" transform="translate(-123.224 -577.926)"/>
        <path id="Path_631" data-name="Path 631" class="cls-22" d="M162.123,818.147c-.658.359-1.233.575-1.281.483s.442-.457,1.1-.815.4-.1.448,0S162.781,817.788,162.123,818.147Z" transform="translate(-123.533 -579.979)"/>
        <path id="Path_632" data-name="Path 632" class="cls-9" d="M113.755,807.19s-1.631,2.132.75,5.336,4.343,5.929,3.558,7.936c0,0-3.59-5.974-6.522-6.057S110.538,810.783,113.755,807.19Z" transform="translate(-87.832 -572.634)"/>
        <path id="Path_633" data-name="Path 633" class="cls-4" d="M113.739,807.19a2.67,2.67,0,0,0-.335.67c-2.852,3.35-4.37,6.478-1.628,6.555,2.553.074,5.615,4.64,6.35,5.793a2.128,2.128,0,0,1-.089.264s-3.59-5.974-6.522-6.057S110.523,810.783,113.739,807.19Z" transform="translate(-87.817 -572.634)"/>
        <path id="Path_634" data-name="Path 634" class="cls-22" d="M112.22,815.2c0,.75.086,1.358.19,1.358s.187-.593.187-1.358-.1-.4-.208-.4S112.22,814.448,112.22,815.2Z" transform="translate(-89.327 -577.926)"/>
        <path id="Path_635" data-name="Path 635" class="cls-22" d="M107.768,818.147c.658.359,1.23.575,1.281.483s-.442-.457-1.1-.815-.4-.1-.451,0S107.11,817.788,107.768,818.147Z" transform="translate(-85.913 -579.979)"/>
        <path id="Path_636" data-name="Path 636" class="cls-23" d="M114,845.208s4.554-.142,5.929-1.117,7.005-2.146,7.346-.578,6.842,7.794,1.7,7.836-11.944-.8-13.314-1.633S114,845.208,114,845.208Z" transform="translate(-90.58 -597.649)"/>
        <path id="Path_637" data-name="Path 637" class="cls-24" d="M129.036,856.63c-5.141.042-11.947-.8-13.317-1.634-1.041-.637-1.459-2.917-1.595-3.967h-.154s.3,3.67,1.66,4.506,8.173,1.675,13.314,1.633c1.482,0,2-.54,1.968-1.322C130.705,856.328,130.139,856.621,129.036,856.63Z" transform="translate(-90.559 -603.477)"/>
        <path id="Path_638" data-name="Path 638" class="cls-9" d="M494.957,540.4a10.771,10.771,0,0,1,10.993-10.714h.086V526.93h-.086A13.53,13.53,0,0,0,492.2,540.4a13.715,13.715,0,0,0,4.712,10.348l1.953-1.955A10.969,10.969,0,0,1,494.957,540.4Z" transform="translate(-356.658 -375.46)"/>
        <path id="Path_639" data-name="Path 639" class="cls-10" d="M518.131,526.94V529.7a10.99,10.99,0,1,1-7.171,19.38L509,551.03a13.744,13.744,0,1,0,9.125-24.09Z" transform="translate(-368.478 -375.467)"/>
        <path id="Path_640" data-name="Path 640" class="cls-10" d="M819.246,529.217a10.771,10.771,0,0,1,10.714,10.993v.086h2.757v-.086a13.532,13.532,0,0,0-13.471-13.75,13.708,13.708,0,0,0-10.346,4.711l1.954,1.954a10.969,10.969,0,0,1,8.393-3.907Z" transform="translate(-579.469 -375.129)"/>
        <path id="Path_641" data-name="Path 641" class="cls-9" d="M824.019,552.405h-2.757a10.99,10.99,0,1,1-19.38-7.171l-1.945-1.954a13.744,13.744,0,1,0,24.09,9.125Z" transform="translate(-570.774 -386.963)"/>
        <path id="Path_642" data-name="Path 642" class="cls-10" d="M664.728,529.66l-.548,2.745a10.762,10.762,0,0,1,6.614,10.192,10.99,10.99,0,1,1-15.4-10.065l-1.221-2.476a13.744,13.744,0,1,0,19.385,12.54A13.523,13.523,0,0,0,664.728,529.66Z" transform="translate(-464.914 -377.38)"/>
        <path id="Path_643" data-name="Path 643" class="cls-9" d="M680.222,529.147a9.6,9.6,0,0,1,3.827.795l.548-2.742a12.123,12.123,0,0,0-4.376-.809,13.686,13.686,0,0,0-5.633,1.213l1.234,2.469A10.875,10.875,0,0,1,680.222,529.147Z" transform="translate(-484.976 -375.08)"/>
      </g>
      <g id="Group_123" data-name="Group 123" transform="translate(1097.791 3327.657)">
        <g id="Group_122" data-name="Group 122" class="cls-19" transform="translate(10.018 14.811)">
          <path id="Path_92" data-name="Path 92" class="cls-25" d="M171.13,318.988l.159.035A.216.216,0,0,0,171.13,318.988Z" transform="translate(-171.13 -318.985)"/>
        </g>
        <path id="Path_2075" data-name="Path 2075" class="cls-26" d="M167.975,290.069c-.476-3.2-3.38-10.655-3.38-10.655h0c-.052-.215-.108-.444-.172-.663-2.062-7.085-4.914-7.712-4.914-7.712l-10.217-2.178a.763.763,0,0,1,.215.2l-.162.026a4,4,0,0,1-.9-1.939c-.019-.105-.037-.215-.05-.327a7.184,7.184,0,0,0-.586-10.805c-.106-.084-.215-.164-.327-.243a1.63,1.63,0,0,0,.138-1.939,6.739,6.739,0,0,0-4.356-3.246,7.378,7.378,0,0,0-4.226-.09,15.468,15.468,0,0,0-2.212,1.025,12.641,12.641,0,0,0-3.878,2.329,1.139,1.139,0,0,0-.388.935,2.525,2.525,0,0,0,.386.681,2.072,2.072,0,0,1,.019,1.7c-.2.554-.493,1.077-.633,1.637a1.708,1.708,0,0,0,.342,1.641,7.405,7.405,0,0,0,.646.452,3.291,3.291,0,0,1,.61.683l1.211,1.635a16.712,16.712,0,0,1,1.508,2.3,10.978,10.978,0,0,0,.937,1.758,2.759,2.759,0,0,0,.4.431c-.039-.015-.08-.028-.119-.045a1.833,1.833,0,0,0,1.353.519h.06a.369.369,0,0,0,.248-.1v.216c.022.786.019,1.622-.037,2.406l-.095-.047a.821.821,0,0,0-.881.093l-9.412,7.54a12.405,12.405,0,0,0-1.76,7.626l-1.648,7.242s-2.062,6.146-.476,10.534,2.505,6.893,2.505,6.893.633,4.985,1.585,5.386,1.364.629,1.364.629l.19,1.191h0s.062.114.174.312c.694,1.2,3.259,5.457,4.752,5a19.352,19.352,0,0,1,.243,3.492l1.473,9.909a14.612,14.612,0,0,1,.967,4.106,7.8,7.8,0,0,0,1.2,3.419,6.536,6.536,0,0,0-.633,4.608c.6,2.635,1.364,14.8,1.364,14.8l1.109,2.947-.032,3.447a3.3,3.3,0,0,1-.681,1.529c-.715.776-.668,1.672-2.37,2.729s-2.8,1.456-2.8,2.867a3.728,3.728,0,0,1-.052.582c-.159,1.032-.467,1.588,2.693,1.889a8.321,8.321,0,0,0,6.183-2.07s.545-.989,3.115-1.387c0,0,.877-.047.926-.825.017-.267.013-.78-.011-1.344a8.294,8.294,0,0,0-.28-2.393,5.234,5.234,0,0,1-.575-1.551h.715a31.012,31.012,0,0,0,0-8.216,13.178,13.178,0,0,1-.062-5.517l-.127-8.526a2.329,2.329,0,0,1-.194-2.57c.7-1.659,0-9.875,0-9.875s.256-2.947.984-3.636.037-4.319,0-4.509l1.292,4.351s.571,8.653,1.777,10.222l.349,3.916s2.473,3.606,2,5.551.508,8.966.508,8.966v7.18s-1.112,2.884.444,3.918l.67-.026c-.228.215-.392.515-.646.78a5.943,5.943,0,0,0-.56,2.469c-.08.847-.106,1.575-.106,1.575a2.6,2.6,0,0,0,1.9,1.129c1.237.071,5.327,3.2,5.327,3.2a49.4,49.4,0,0,0,5.09-.215l.062-.015a1.38,1.38,0,0,0,.788-.646,1.645,1.645,0,0,0,.192-1.185,2.971,2.971,0,0,0-1.708-1.872c-2.712-1.432-3.115-2.772-3.115-2.772l-1.777-2.663h.254a11.379,11.379,0,0,1,1.775-5.989l-.125-13.95s.791-4.8-.571-7.4c0,0-.112-2.76.8-3.606s-1.213-9.405-1.213-9.405-.431-4.593-.956-8.785h0c2.139,2.029,4.36-5.28,4.739-6.579h.056s-.011-.034-.026-.095a.09.09,0,0,1,.026-.093h0c0-.011-.474-1.691-.127-1.349s1.206-.939,1.206-.939-.127-6.992,1.364-10.517S167.975,290.069,167.975,290.069Zm-6.374,4.448.011-.019c.215,4.27-.043,13.38-.043,13.38s-.293,1.168-.607,2.542l-.226-8.655h0l-.215-8.151Zm-27.3-2.943s1.077,13.481,0,15.424a10.056,10.056,0,0,0-.778,2.665c-.355-.935-1.109-3.13-.84-4.293.349-1.508-.7-5.457-.7-5.549a9.329,9.329,0,0,1,.666-3.811c.76-1.616.254-2.3.254-2.3S133.54,291.073,134.3,291.575Z" transform="translate(-124.628 -250.229)"/>
        <path id="Path_2076" data-name="Path 2076" class="cls-27" d="M160.966,558.723c-.937,4.128-4.672-2.115-5.523-3.613l-.172-.31.4-1.9,2.141-.872a5.91,5.91,0,0,1,.956.625A5.754,5.754,0,0,1,160.966,558.723Z" transform="translate(-148.669 -487.017)"/>
        <path id="Path_2077" data-name="Path 2077" class="cls-27" d="M293.794,547.888l-.024.092a.561.561,0,0,1-.03.1c-.366,1.292-2.544,8.544-4.647,6.529-2.3-2.21-1.183-7.285-1.183-7.285h.022l4.84-.5.959.987h0Z" transform="translate(-252.523 -482.936)"/>
        <path id="Path_2078" data-name="Path 2078" class="cls-28" d="M195.424,585.687l.123,13.847a11.416,11.416,0,0,0-1.743,5.946l-6.247.248c-1.525-1.025-.431-3.888-.431-3.888v-7.128s-.976-6.967-.511-8.905-1.96-5.508-1.96-5.508l-.34-3.888c-1.185-1.555-1.745-10.146-1.745-10.146l-1.273-4.308c.032.187.694,3.808,0,4.474s-.965,3.61-.965,3.61.685,8.154,0,9.8a2.425,2.425,0,0,0,.185,2.585l.127,8.464a13.24,13.24,0,0,0,.06,5.478,31.146,31.146,0,0,1,0,8.154h-6.721l.03-3.447-1.088-2.925s-.747-12.074-1.338-14.687a6.558,6.558,0,0,1,.62-4.576,7.786,7.786,0,0,1-1.18-3.393,14.6,14.6,0,0,0-.95-4.076l-1.448-9.834a19.076,19.076,0,0,0-.715-5.6c-.842-2.8-2.085-6.473-2.085-6.473l1.4.125,7.092.631s17.234-1.159,18.011-.2a3.215,3.215,0,0,1,.327,1c.773,3.479,1.8,14.371,1.8,14.371s2.085,8.5,1.189,9.336-.784,3.578-.784,3.578C196.2,580.927,195.424,585.687,195.424,585.687Z" transform="translate(-156.954 -485.04)"/>
        <path id="Path_2079" data-name="Path 2079" class="cls-29" d="M189.081,805.293c-.05.771-.911.819-.911.819-2.52.4-3.055,1.379-3.055,1.379a8.149,8.149,0,0,1-6.064,2.064c-3.1-.3-2.8-.862-2.641-1.874a3.666,3.666,0,0,0,.05-.577c0-1.4,1.077-1.8,2.755-2.848s1.633-1.939,2.333-2.708a4.275,4.275,0,0,0,.771-2.262c.793-1.379,2.8.215,2.8.215.093.489,3.081.431,3.081.431a6.642,6.642,0,0,0,.6,1.68,8.318,8.318,0,0,1,.276,2.37C189.094,804.52,189.1,805.03,189.081,805.293Z" transform="translate(-165.184 -680.568)"/>
        <path id="Path_2080" data-name="Path 2080" class="cls-4" d="M189.081,824.34c-.05.771-.911.819-.911.819-2.52.4-3.055,1.379-3.055,1.379a8.149,8.149,0,0,1-6.064,2.064c-3.1-.3-2.8-.862-2.641-1.874,1.385.345,4.035.823,5.581-.017,2.154-1.167,3.69-1.984,3.69-1.984L189.07,823C189.094,823.567,189.1,824.077,189.081,824.34Z" transform="translate(-165.184 -699.615)"/>
        <path id="Path_2081" data-name="Path 2081" class="cls-29" d="M276.657,812.574a1.353,1.353,0,0,1-.775.646.318.318,0,0,1-.06.015,47.614,47.614,0,0,1-5,.215s-4.022-3.115-5.228-3.186a2.578,2.578,0,0,1-1.868-1.12s.024-.724.1-1.564a5.967,5.967,0,0,1,.551-2.451c.539-.56.646-1.329,1.868-.84,0,0,1.723-3.039,3.757-.691l2.1,3.19s.4,1.329,3.059,2.753a2.92,2.92,0,0,1,1.674,1.857A1.642,1.642,0,0,1,276.657,812.574Z" transform="translate(-233.764 -683.693)"/>
        <path id="Path_2082" data-name="Path 2082" class="cls-4" d="M276.657,830.323c-.237.2-.5.416-.775.646a.321.321,0,0,1-.06.015,47.614,47.614,0,0,1-5,.215s-4.022-3.115-5.228-3.186a2.578,2.578,0,0,1-1.868-1.12s.024-.724.1-1.564c1.234.37,3.108,1.023,3.61,1.723a15.05,15.05,0,0,0,3.106,2.566s4.358-.418,6.295-.476A1.644,1.644,0,0,1,276.657,830.323Z" transform="translate(-233.764 -701.443)"/>
        <path id="Path_2083" data-name="Path 2083" class="cls-27" d="M202.655,317.775l-5.743,6.068s-6.956-.513-5.741-2.568c.618-1.045.715-3.231.661-5.14-.052-1.837-.241-3.4-.241-3.4s9.756-4.856,9.009-.327a7.512,7.512,0,0,0-.028,2.585A3.4,3.4,0,0,0,202.655,317.775Z" transform="translate(-176.725 -297.498)"/>
        <path id="Path_2084" data-name="Path 2084" class="cls-4" d="M202.639,312.407a7.513,7.513,0,0,0-.028,2.585,7.161,7.161,0,0,1-5.105,2.13c-1.327,0-2.747-1.077-3.813-1.713-.052-1.838-.063-2.676-.063-2.676S203.386,307.879,202.639,312.407Z" transform="translate(-178.766 -297.498)"/>
        <path id="Path_2085" data-name="Path 2085" class="cls-27" d="M192.62,280.039a7.191,7.191,0,1,1-2.706-5.618A7.191,7.191,0,0,1,192.62,280.039Z" transform="translate(-166.689 -267.978)"/>
        <path id="Path_2086" data-name="Path 2086" class="cls-4" d="M196.593,551.449c-1.79,4.261-13.306,4.349-13.306,4.349v-4.644l-.7-.045c.3,1.329-.431,4.573-.431,4.573-9.1,1.292-11.318-3.9-11.318-3.9l.314-1.775,7.092.631s17.233-1.159,18.011-.2A3.214,3.214,0,0,1,196.593,551.449Z" transform="translate(-160.885 -485.432)"/>
        <path id="Path_2087" data-name="Path 2087" class="cls-30" d="M183.287,390.766V386.12l-.7-.043c.3,1.329-.431,4.573-.431,4.573-6.848.965-9.8-1.723-10.842-3.124a4.232,4.232,0,0,1-.476-.775l2.777-15.637.646-23.013,1-4.037.233-1.939V342.1l.024.011.707.3,4.239,1.831,4.84-3.634.071-.054.239-.181.4.321.989.793,3.175,20.495s5.506,15.782,6.527,22.152c.041.254.075.491.1.713C197.479,390.659,183.287,390.766,183.287,390.766Z" transform="translate(-160.885 -320.96)"/>
        <circle id="Ellipse_294" data-name="Ellipse 294" class="cls-31" cx="0.409" cy="0.409" r="0.409" transform="translate(19.705 23.324)"/>
        <circle id="Ellipse_295" data-name="Ellipse 295" class="cls-31" cx="0.409" cy="0.409" r="0.409" transform="translate(19.895 27.057)"/>
        <circle id="Ellipse_296" data-name="Ellipse 296" class="cls-31" cx="0.409" cy="0.409" r="0.409" transform="translate(20.302 33.104)"/>
        <circle id="Ellipse_297" data-name="Ellipse 297" class="cls-31" cx="0.409" cy="0.409" r="0.409" transform="translate(20.981 39.613)"/>
        <circle id="Ellipse_298" data-name="Ellipse 298" class="cls-31" cx="0.409" cy="0.409" r="0.409" transform="translate(21.388 45.73)"/>
        <circle id="Ellipse_299" data-name="Ellipse 299" class="cls-31" cx="0.409" cy="0.409" r="0.409" transform="translate(21.797 52.242)"/>
        <circle id="Ellipse_300" data-name="Ellipse 300" class="cls-31" cx="0.409" cy="0.409" r="0.409" transform="translate(21.633 58.685)"/>
        <path id="Path_2088" data-name="Path 2088" class="cls-4" d="M175.872,379.446s-.457,5.989-1.293,7.729-1.215,6.628-1.215,6.628l-1.939-.215a4.23,4.23,0,0,1-.476-.775l2.777-15.637.646-23.013,1-4.037.233-1.939a.056.056,0,0,1,.026-.011.786.786,0,0,1,.694.011l.095.047c-.028.08-.056.162-.082.246a37.538,37.538,0,0,0-1.043,6.771s1.09,8.029,1.213,11.764S175.872,379.446,175.872,379.446Z" transform="translate(-160.971 -327.017)"/>
        <path id="Path_2089" data-name="Path 2089" class="cls-4" d="M158.773,552.655a1.283,1.283,0,0,1-.073.144,7,7,0,0,1-3.257,2.312l-.172-.31.4-1.9,2.141-.872A5.91,5.91,0,0,1,158.773,552.655Z" transform="translate(-148.669 -487.017)"/>
        <path id="Path_2090" data-name="Path 2090" class="cls-31" d="M131.272,413.06l-1.773,1.064-1.62,7.189s-2.023,6.1-.465,10.456,2.464,6.84,2.464,6.84.623,4.954,1.555,5.353,1.34.623,1.34.623l.185,1.183s2.533-.862,3.429-2.37-.659-5.28-.659-5.28-1.338-3.205-1-4.7-.685-5.416-.685-5.508a9.435,9.435,0,0,1,.646-3.783c.739-1.6.25-2.286.25-2.286l-.467-4.576Z" transform="translate(-126.351 -377.983)"/>
        <path id="Path_2091" data-name="Path 2091" class="cls-4" d="M249.024,386.149s-4.7,1.775-6.193.215-1.338-8.832-1.338-8.832-1.43-13.444-2.335-15.652-.431-18.145-.431-18.145a9.952,9.952,0,0,0-1.135-2.6.529.529,0,0,0-.112-.093l.183.039.646.14.989.793,3.175,20.495s5.506,15.782,6.527,22.152Z" transform="translate(-213.169 -321.478)"/>
        <path id="Path_2092" data-name="Path 2092" class="cls-4" d="M294.76,548.052h-.054c-.59.075-5.816.707-5.836-.379a3.353,3.353,0,0,1,.022-.377l4.84-.5.959.987h0c.017.065.032.121.045.164Z" transform="translate(-253.489 -482.913)"/>
        <path id="Path_2093" data-name="Path 2093" class="cls-31" d="M289.758,379.63l3.436,1.79s2.85,7.4,3.317,10.577c0,0,2.115,8.5.646,12s-1.338,10.439-1.338,10.439-.84,1.275-1.183.933.125,1.338.125,1.338-5.866.78-5.894-.375a59.175,59.175,0,0,1,1.346-6.661s.373-13.1-.157-15.155S289.758,379.63,289.758,379.63Z" transform="translate(-253.487 -351.755)"/>
        <path id="Path_2094" data-name="Path 2094" class="cls-4" d="M235.235,444.41s-1.939,4.728-2.553,5.041.125,1.555.125,1.555S236.325,446.09,235.235,444.41Z" transform="translate(-209.213 -402.579)"/>
        <path id="Path_2095" data-name="Path 2095" class="cls-4" d="M229.109,367.391c.022-.09-2.3,2.281-2.925,2.635S228.445,370.006,229.109,367.391Z" transform="translate(-204.238 -342.15)"/>
        <path id="Path_2096" data-name="Path 2096" class="cls-4" d="M198.619,442.67s-3.548,2.3-3.083,3.2S198.619,442.67,198.619,442.67Z" transform="translate(-180.229 -401.215)"/>
        <path id="Path_2097" data-name="Path 2097" class="cls-4" d="M239.93,598.12a19.1,19.1,0,0,0,7.718,2.428Z" transform="translate(-215.092 -523.178)"/>
        <path id="Path_2098" data-name="Path 2098" class="cls-4" d="M206.27,619.79s2.8,3.516,4.078,3.611S206.27,619.79,206.27,619.79Z" transform="translate(-188.683 -540.18)"/>
        <path id="Path_2099" data-name="Path 2099" class="cls-4" d="M212.16,683.79c-.125.063-1.588,3.173-3.08,3.268S212.16,683.79,212.16,683.79Z" transform="translate(-190.651 -590.393)"/>
        <path id="Path_2100" data-name="Path 2100" class="cls-4" d="M284.72,715.087s2.775-.621,3.391,1.37C288.111,716.457,287.925,715.834,284.72,715.087Z" transform="translate(-250.233 -614.876)"/>
        <path id="Path_2101" data-name="Path 2101" class="cls-4" d="M276.05,767.419s3.361-.685,4.076.25S276.05,767.419,276.05,767.419Z" transform="translate(-243.431 -655.816)"/>
        <path id="Path_2102" data-name="Path 2102" class="cls-4" d="M219.9,775.67c0,.03-3.423.685-3.287,1.12s3.649.373,3.774-.312a.646.646,0,0,0-.487-.808Z" transform="translate(-196.796 -662.48)"/>
        <path id="Path_2103" data-name="Path 2103" class="cls-4" d="M270.85,788.671s5.622-.685,5.269.5S270.85,788.671,270.85,788.671Z" transform="translate(-239.351 -672.526)"/>
        <path id="Path_2104" data-name="Path 2104" class="cls-4" d="M134.18,467.81c.032.093,3.7.59,4.2,1.773a31.953,31.953,0,0,0-4.168-1.68" transform="translate(-132.122 -420.939)"/>
        <path id="Path_2105" data-name="Path 2105" class="cls-4" d="M147.8,512.45s-3.05.965-2.835,2.428S144.652,514.195,147.8,512.45Z" transform="translate(-140.571 -455.963)"/>
        <path id="Path_2106" data-name="Path 2106" class="cls-4" d="M151.56,542.17s1.112-1.525,2.169-1.245S151.56,542.17,151.56,542.17Z" transform="translate(-145.758 -478.277)"/>
        <path id="Path_2107" data-name="Path 2107" class="cls-4" d="M189.908,274.39a1.782,1.782,0,0,1-.358.267A4.088,4.088,0,0,0,188,276.869a4.65,4.65,0,0,1-1.6,2.189c-1.012.61-2.348.386-3.4.92a2.652,2.652,0,0,0-1.409,2.6,7.658,7.658,0,0,0,.3,1.191,8.6,8.6,0,0,1,.321,2.585.334.334,0,0,1,0,.08,7.191,7.191,0,1,1,7.7-12.048Z" transform="translate(-166.685 -267.946)"/>
        <path id="Path_2108" data-name="Path 2108" class="cls-32" d="M176.683,257.033a6.67,6.67,0,0,0-4.274-3.231,7.17,7.17,0,0,0-4.149-.088,14.114,14.114,0,0,0-2.171,1.017,12.275,12.275,0,0,0-3.8,2.314,1.135,1.135,0,0,0-.379.928,2.517,2.517,0,0,0,.377.674,2.059,2.059,0,0,1,.019,1.689,16.9,16.9,0,0,0-.62,1.626,1.7,1.7,0,0,0,.334,1.629,7.6,7.6,0,0,0,.629.448,3.388,3.388,0,0,1,.6.678l1.187,1.622a16.367,16.367,0,0,1,1.486,2.288,11.287,11.287,0,0,0,.92,1.743,1.986,1.986,0,0,0,1.667.89.317.317,0,0,0,.263-.125.33.33,0,0,0,.034-.166,8.48,8.48,0,0,0-.321-2.585,7.658,7.658,0,0,1-.3-1.191,2.654,2.654,0,0,1,1.409-2.6c1.056-.532,2.391-.308,3.4-.918a4.709,4.709,0,0,0,1.6-2.191c.431-.911.661-1.7,1.547-2.212A1.545,1.545,0,0,0,176.683,257.033Z" transform="translate(-153.647 -252.753)"/>
        <path id="Path_2109" data-name="Path 2109" class="cls-4" d="M216.61,815.58s1.094,1.4.814,2.193S216.61,815.58,216.61,815.58Z" transform="translate(-196.795 -693.793)"/>
        <path id="Path_2110" data-name="Path 2110" class="cls-4" d="M285.68,824.836s.243-1.878,1.224-1.9a3.294,3.294,0,0,1,1.775.185c.747.286,1.448.734,1.226.8s-1.293-1.077-2.37-.493A7.848,7.848,0,0,0,285.68,824.836Z" transform="translate(-250.986 -699.548)"/>
        <path id="Path_2111" data-name="Path 2111" class="cls-4" d="M190.9,352.92l3.068-2.154s-4.5-2.663-5.041-2.288-.9,3.735-.9,3.735Z" transform="translate(-174.364 -327.285)"/>
        <path id="Path_2112" data-name="Path 2112" class="cls-30" d="M190.885,352.083l3.08-2.206s-4.5-2.66-5.041-2.288-.9,3.923-.9,3.923Z" transform="translate(-174.364 -326.588)"/>
        <path id="Path_2113" data-name="Path 2113" class="cls-33" d="M190.885,352.083l3.08-2.206s-4.5-2.66-5.041-2.288-.9,3.923-.9,3.923Z" transform="translate(-174.364 -326.588)"/>
        <path id="Path_2114" data-name="Path 2114" class="cls-31" d="M151.084,347.351l-.093-.047a.8.8,0,0,0-.862.091l-9.237,7.494a12.381,12.381,0,0,0-1.723,7.57l5.446,7.718s.623-2.615,1.37-2.118c0,0,1.058,13.382,0,15.312s-1.525,9.149-1.525,9.149l3.578.4s.373-4.886,1.213-6.629,1.292-7.731,1.292-7.731.756-8.7.631-12.438-1.213-11.762-1.213-11.762A35.568,35.568,0,0,1,151.084,347.351Z" transform="translate(-136.015 -326.324)"/>
        <path id="Path_2115" data-name="Path 2115" class="cls-4" d="M223.317,345.768l-3.837-1.422s4.888-5.351,5.5-2.382Z" transform="translate(-199.047 -321.498)"/>
        <path id="Path_2116" data-name="Path 2116" class="cls-30" d="M223.317,344.879l-3.837-1.42s4.888-5.353,5.5-2.385Z" transform="translate(-199.047 -320.801)"/>
        <path id="Path_2117" data-name="Path 2117" class="cls-33" d="M223.317,344.879l-3.837-1.42s4.888-5.353,5.5-2.385Z" transform="translate(-199.047 -320.801)"/>
        <path id="Path_2118" data-name="Path 2118" class="cls-4" d="M236.72,340.877a.215.215,0,0,1,.157.032Z" transform="translate(-212.573 -321.347)"/>
        <path id="Path_2119" data-name="Path 2119" class="cls-31" d="M238.45,339.136l10.185,2.2s2.8.623,4.823,7.654-2.77,15.65-2.77,15.65l-1.058-.9.53,20.54s-4.7,1.773-6.193.215-1.34-8.832-1.34-8.832S241.2,362.214,240.292,360s-.431-18.145-.431-18.145S239.019,339.013,238.45,339.136Z" transform="translate(-213.93 -319.981)"/>
        <path id="Path_2120" data-name="Path 2120" class="cls-4" d="M281.191,399.564a58.151,58.151,0,0,0,.312,11.079,60.359,60.359,0,0,0,1.764,8.526l-.924-18.957S281.627,399.153,281.191,399.564Z" transform="translate(-247.359 -367.32)"/>
        <path id="Path_2121" data-name="Path 2121" class="cls-4" d="M275.9,375.06c.25.155,1.34,2.738.84,3.8S275.9,375.06,275.9,375.06Z" transform="translate(-243.313 -348.169)"/>
        <path id="Path_2122" data-name="Path 2122" class="cls-4" d="M196.656,261.564a5.6,5.6,0,0,0-2.238-2.344,5.314,5.314,0,0,1,1.678,1.971,1.577,1.577,0,0,1-.545,2.242,4.168,4.168,0,0,0-1.545,2.212,4.653,4.653,0,0,1-1.6,2.189c-1.012.612-2.346.388-3.4.918a2.656,2.656,0,0,0-1.409,2.6,7.433,7.433,0,0,0,.3,1.191,8.459,8.459,0,0,1,.319,2.585.332.332,0,0,1-.032.166.317.317,0,0,1-.263.125,1.507,1.507,0,0,1-.767-.142,1.786,1.786,0,0,0,1.327.515.317.317,0,0,0,.263-.125.353.353,0,0,0,.034-.166,8.544,8.544,0,0,0-.321-2.585,7.43,7.43,0,0,1-.3-1.191,2.654,2.654,0,0,1,1.409-2.6c1.056-.532,2.389-.308,3.4-.918a4.713,4.713,0,0,0,1.6-2.191c.431-.911.659-1.7,1.545-2.212A1.554,1.554,0,0,0,196.656,261.564Z" transform="translate(-173.682 -257.283)"/>
      </g>
    </g>
  </g>
</svg>
