<?xml version="1.0" encoding="UTF-8"?>
<svg width="537px" height="523px" viewBox="0 0 537 523" version="1.1" xmlns="http://www.w3.org/2000/svg" xmlns:xlink="http://www.w3.org/1999/xlink">
    <!-- Generator: Sketch 51.2 (57519) - http://www.bohemiancoding.com/sketch -->
    <title>Artboard</title>
    <desc>Created with Sketch.</desc>
    <defs></defs>
    <g id="Artboard" stroke="none" stroke-width="1" fill="none" fill-rule="evenodd">
        <g id="Twitter_Logo_WhiteOnBlue" transform="translate(-107.000000, -114.000000)">
            <g id="Logo_FIXED">
                <path d="M288.0375,565.48125 C464.925,565.48125 561.675,418.93125 561.675,291.84375 C561.675,287.68125 561.675,283.5375 561.39375,279.4125 C580.215588,265.798329 596.462915,248.941489 609.375,229.63125 C591.822732,237.408783 573.203049,242.509287 554.1375,244.7625 C574.21395,232.743414 589.239816,213.839475 596.41875,191.56875 C577.540453,202.771037 556.887114,210.66585 535.35,214.9125 C505.539052,183.213643 458.169738,175.455236 419.804049,195.987749 C381.43836,216.520261 361.617656,260.237357 371.45625,302.625 C294.129295,298.748429 222.083921,262.224811 173.25,202.14375 C147.724177,246.087089 160.762273,302.303615 203.025,330.525 C187.720148,330.071392 172.748988,325.942747 159.375,318.4875 C159.375,318.88125 159.375,319.29375 159.375,319.70625 C159.387527,365.486118 191.65784,404.916284 236.53125,413.98125 C222.372555,417.842626 207.517136,418.407081 193.10625,415.63125 C205.705274,454.807928 241.810773,481.645947 282.95625,482.41875 C248.901282,509.183099 206.832366,523.712395 163.51875,523.66875 C155.866942,523.65406 148.222576,523.190765 140.625,522.28125 C184.605674,550.505185 235.779626,565.475942 288.0375,565.40625" id="Shape" fill="#FFFFFF" fill-rule="nonzero"></path>
                <rect id="Rectangle-path" x="0" y="0" width="750" height="750"></rect>
            </g>
        </g>
    </g>
</svg>